{"glyphs":{"0":{"ha":794,"x_min":0,"x_max":0,"o":"m 57 444 b 146 783 57 588 86 701 b 397 907 206 865 290 907 b 647 783 504 907 588 865 b 739 444 708 701 739 588 b 647 107 739 301 708 189 b 397 -15 588 25 504 -15 b 57 444 185 -15 57 160 m 215 444 b 397 124 215 240 279 124 b 579 444 515 124 579 240 b 397 765 579 649 515 765 b 215 444 279 765 215 651 "},"1":{"ha":535,"x_min":0,"x_max":0,"o":"m 64 604 b 47 614 53 597 47 601 l 47 732 b 57 749 47 739 50 744 l 278 885 b 296 890 285 889 292 890 l 410 890 b 424 876 419 890 424 886 l 424 14 b 410 0 424 4 419 0 l 283 0 b 269 14 274 0 269 4 l 269 728 "},"2":{"ha":728,"x_min":0,"x_max":0,"o":"m 296 142 l 656 142 b 669 128 665 142 669 138 l 669 14 b 656 0 669 4 665 0 l 86 0 b 72 14 76 0 72 4 l 72 103 b 79 119 72 110 75 115 l 408 456 b 500 633 469 518 500 578 b 361 765 500 713 444 765 b 221 664 288 765 236 725 b 204 651 218 654 213 650 l 79 667 b 68 682 69 668 65 674 b 364 907 90 819 203 907 b 575 835 451 907 521 883 b 656 644 629 786 656 724 b 621 497 656 590 644 542 b 500 349 599 454 558 404 "},"3":{"ha":756,"x_min":0,"x_max":0,"o":"m 447 550 b 697 279 599 533 697 428 b 606 68 697 193 667 122 b 374 -14 546 14 468 -14 b 160 56 289 -14 217 10 b 61 240 103 101 69 164 b 72 257 60 250 64 256 l 197 281 b 213 268 207 282 213 278 b 376 125 219 183 288 125 b 540 282 471 125 540 188 b 392 435 540 371 481 428 b 297 438 376 436 344 438 l 289 438 b 274 449 282 438 276 442 l 249 532 b 254 551 247 539 249 546 l 460 754 l 125 754 b 111 768 115 754 111 758 l 111 876 b 125 890 111 886 115 890 l 640 890 b 654 876 650 890 654 886 l 654 767 b 647 750 654 760 651 754 "},"4":{"ha":818,"x_min":0,"x_max":0,"o":"m 624 372 l 760 372 b 774 358 769 372 774 368 l 774 256 b 760 242 774 246 769 242 l 624 242 l 624 14 b 610 0 624 4 619 0 l 488 0 b 474 14 478 0 474 4 l 474 242 l 58 242 b 44 256 49 242 44 246 l 44 351 b 50 369 44 358 46 365 l 417 882 b 433 890 421 888 426 890 l 610 890 b 624 876 619 890 624 886 m 213 372 l 474 372 l 474 740 "},"5":{"ha":776,"x_min":0,"x_max":0,"o":"m 411 585 b 628 501 499 585 571 557 b 713 289 685 446 713 375 b 618 71 713 200 681 128 b 383 -12 556 15 478 -12 b 174 53 301 -12 231 10 b 68 228 117 97 81 156 b 81 244 67 238 71 243 l 204 268 b 219 257 213 269 218 267 b 382 125 232 178 297 125 b 554 290 482 125 554 192 b 383 456 554 389 488 456 b 238 394 321 456 272 435 b 219 388 232 389 226 386 l 94 401 b 83 417 85 403 82 408 l 182 878 b 197 890 183 886 188 890 l 653 890 b 667 876 663 890 667 886 l 667 768 b 653 754 667 758 663 754 l 306 754 l 260 549 b 411 585 300 572 351 585 "},"6":{"ha":782,"x_min":0,"x_max":0,"o":"m 414 592 b 638 508 504 592 578 564 b 726 294 697 454 726 382 b 631 72 726 204 694 131 b 388 -14 568 15 486 -14 b 150 71 289 -14 210 14 b 61 289 90 128 61 201 b 82 408 61 328 68 368 b 125 506 97 450 111 482 b 181 590 139 529 157 557 l 379 882 b 396 890 383 888 389 890 l 533 890 b 543 874 544 890 549 883 l 342 585 b 414 592 368 589 392 592 m 392 125 b 569 292 493 125 569 193 b 397 457 569 392 496 457 b 219 290 297 457 219 392 b 392 125 219 190 293 125 "},"7":{"ha":650,"x_min":0,"x_max":0,"o":"m 28 876 b 42 890 28 886 32 890 l 607 890 b 621 876 617 890 621 886 l 621 776 b 617 760 621 772 619 767 l 271 10 b 256 0 268 3 263 0 l 118 0 b 107 17 106 0 103 6 l 449 754 l 42 754 b 28 768 32 754 28 758 "},"8":{"ha":761,"x_min":0,"x_max":0,"o":"m 563 474 b 704 256 651 439 704 356 b 613 60 704 174 674 108 b 381 -12 551 11 474 -12 b 149 60 288 -12 210 11 b 57 256 88 108 57 174 b 196 475 57 357 111 438 b 86 668 129 514 86 586 b 168 839 86 738 114 794 b 381 907 224 885 294 907 b 592 839 467 907 538 885 b 674 667 646 793 674 736 b 563 474 674 583 629 511 m 379 771 b 240 654 297 771 240 722 b 382 535 240 582 299 535 b 521 653 461 535 521 582 b 379 771 521 724 463 771 m 379 125 b 546 264 478 125 546 181 b 381 400 546 347 476 400 b 214 264 282 400 214 347 b 379 125 214 181 285 125 "},"9":{"ha":790,"x_min":0,"x_max":0,"o":"m 400 907 b 638 819 499 907 578 878 b 728 601 697 763 728 689 b 706 482 728 563 721 522 b 665 389 692 442 678 410 b 608 301 653 368 633 339 l 410 8 b 393 0 406 3 400 0 l 254 0 b 246 17 243 0 239 10 l 447 306 b 375 297 422 300 399 297 b 151 381 285 297 211 325 b 63 594 92 438 63 508 b 158 819 63 686 94 761 b 400 907 222 878 303 907 m 393 433 b 569 600 493 433 569 500 b 396 764 569 700 494 764 b 219 599 296 764 219 697 b 393 433 219 500 294 433 "},"\r":{"ha":299,"x_min":0,"x_max":0,"o":""}," ":{"ha":331,"x_min":0,"x_max":0,"o":""},"!":{"ha":417,"x_min":0,"x_max":0,"o":"m 261 335 b 246 321 261 325 256 321 l 172 321 b 157 335 163 321 157 325 l 124 876 b 136 890 124 886 128 890 l 282 890 b 294 876 290 890 294 886 m 210 -19 b 90 94 142 -19 90 28 b 210 208 90 163 143 208 b 326 94 275 208 326 163 b 210 -19 326 28 275 -19 "},"\"":{"ha":482,"x_min":0,"x_max":0,"o":"m 53 813 b 126 908 43 869 71 908 b 196 813 181 908 207 869 l 149 510 b 135 497 147 501 143 497 l 114 497 b 100 510 107 497 101 501 m 286 813 b 360 908 276 869 304 908 b 429 813 414 908 440 869 l 382 510 b 368 497 381 501 376 497 l 347 497 b 333 510 340 497 335 501 "},"#":{"ha":903,"x_min":0,"x_max":0,"o":"m 821 531 b 806 518 819 522 815 518 l 686 518 l 657 372 l 782 372 b 794 357 792 372 796 367 l 775 250 b 760 238 774 242 768 238 l 629 238 l 585 13 b 569 0 583 4 579 0 l 458 0 b 446 15 449 0 444 6 l 492 238 l 319 238 l 275 13 b 260 0 274 4 268 0 l 150 0 b 138 15 140 0 136 6 l 182 238 l 74 238 b 61 253 64 238 60 243 l 82 360 b 97 372 83 368 88 372 l 210 372 l 238 518 l 114 518 b 101 533 104 518 100 524 l 121 642 b 136 654 122 650 126 654 l 265 654 l 310 878 b 325 890 311 886 315 890 l 436 890 b 449 875 446 890 450 885 l 404 654 l 576 654 l 621 878 b 636 890 622 886 626 890 l 746 890 b 758 875 756 890 760 885 l 714 654 l 828 654 b 840 639 838 654 842 649 m 518 372 l 549 518 l 376 518 l 347 372 "},"$":{"ha":814,"x_min":0,"x_max":0,"o":"m 726 249 b 432 -15 726 97 619 -3 l 432 -108 b 418 -122 432 -118 428 -122 l 358 -122 b 344 -108 349 -122 344 -118 l 344 -15 b 57 78 228 -10 132 21 b 53 96 50 82 49 88 l 93 190 b 113 194 97 199 104 200 b 378 111 189 139 278 111 b 558 239 494 111 558 157 b 508 332 558 282 543 314 b 419 369 475 353 463 357 l 326 396 b 242 422 292 406 263 415 b 164 463 221 431 196 444 b 71 647 103 501 71 564 b 344 906 71 796 178 890 l 344 1000 b 358 1014 344 1010 349 1014 l 418 1014 b 432 1000 428 1014 432 1010 l 432 907 b 688 829 531 900 617 874 b 693 811 694 825 696 819 l 653 715 b 635 710 649 706 643 704 b 401 778 564 756 486 778 b 236 656 296 778 236 732 b 382 532 236 582 283 558 l 483 506 b 603 460 529 493 553 488 b 726 249 674 424 721 361 "},"%":{"ha":1051,"x_min":0,"x_max":0,"o":"m 440 593 b 303 542 404 558 358 542 b 165 593 247 542 201 558 b 111 725 129 628 111 672 b 165 856 111 778 129 821 b 303 908 201 890 247 908 b 440 856 358 908 404 890 b 494 725 476 821 494 778 b 440 593 494 672 476 628 m 279 -7 b 261 -11 275 -15 268 -17 l 208 24 b 206 42 201 28 201 35 l 771 897 b 789 901 775 904 782 906 l 842 868 b 846 850 849 864 850 857 m 303 638 b 393 725 357 638 393 674 b 303 813 393 776 357 813 b 214 725 249 813 214 776 b 303 638 214 674 251 638 m 556 165 b 747 349 556 271 636 349 b 940 165 858 349 940 271 b 885 35 940 114 922 69 b 747 -18 849 0 803 -18 b 610 35 692 -18 646 0 b 556 165 574 69 556 114 m 747 78 b 838 165 801 78 838 114 b 747 254 838 219 801 254 b 658 165 696 254 658 219 b 747 78 658 114 696 78 "},"&":{"ha":997,"x_min":0,"x_max":0,"o":"m 915 15 b 907 -1 922 6 918 -1 l 738 -1 b 721 6 731 -1 725 1 l 661 71 b 397 -14 593 14 506 -14 b 100 219 218 -14 100 76 b 146 361 100 278 119 328 b 188 406 163 379 169 390 l 207 422 l 240 449 l 283 479 l 249 517 b 165 699 193 576 165 636 b 235 849 165 760 189 810 b 417 908 282 889 343 908 b 661 704 561 908 661 826 b 543 503 661 631 622 564 l 496 468 l 653 299 b 676 472 671 342 678 400 b 690 486 676 482 681 486 l 900 486 b 914 472 910 486 914 482 l 914 378 b 900 364 914 368 910 364 l 811 364 b 760 183 807 292 789 232 m 413 786 b 322 699 357 786 322 749 b 344 632 322 672 332 651 b 382 592 356 618 374 600 l 407 565 l 439 592 b 504 699 482 626 504 661 b 413 786 504 749 472 786 m 417 129 b 561 179 476 129 524 146 l 372 383 l 335 356 b 269 243 292 322 269 285 b 417 129 269 171 326 129 "},"'":{"ha":249,"x_min":0,"x_max":0,"o":"m 53 813 b 126 908 43 869 71 908 b 196 813 181 908 207 869 l 149 510 b 135 497 147 501 143 497 l 114 497 b 100 510 107 497 101 501 "},"(":{"ha":389,"x_min":0,"x_max":0,"o":"m 376 -247 b 368 -264 385 -258 382 -264 l 275 -264 b 258 -257 271 -264 265 -261 b 56 333 135 -112 56 104 b 108 654 56 443 74 550 b 258 922 143 760 193 849 b 275 931 264 928 269 931 l 368 931 b 376 914 382 931 385 925 b 257 654 326 843 286 756 b 213 333 228 553 213 446 b 254 21 213 228 226 124 b 376 -247 283 -82 324 -171 "},")":{"ha":386,"x_min":0,"x_max":0,"o":"m 21 -264 b 13 -247 7 -264 4 -258 b 132 19 64 -172 104 -83 b 175 333 161 122 175 226 b 131 653 175 443 160 550 b 13 914 101 756 63 843 b 21 931 4 925 7 931 l 113 931 b 129 924 117 931 122 928 b 281 654 194 850 246 760 b 333 333 315 550 333 443 b 129 -257 333 106 256 -112 b 113 -264 122 -261 117 -264 "},"*":{"ha":521,"x_min":0,"x_max":0,"o":"m 317 699 b 410 657 356 683 386 669 l 471 621 b 476 601 479 617 481 610 l 451 560 b 432 554 447 550 440 549 l 371 590 b 288 650 338 611 310 631 b 299 549 294 621 299 586 l 299 476 b 285 463 299 467 294 463 l 235 463 b 221 476 225 463 221 467 l 221 549 b 232 650 221 578 225 611 b 150 590 211 632 185 611 l 89 554 b 69 560 81 550 74 551 l 44 601 b 50 621 40 610 43 617 l 111 657 b 204 699 135 669 165 683 b 111 739 172 707 142 721 l 50 775 b 44 794 42 779 40 786 l 69 836 b 89 842 74 846 81 847 l 150 806 b 232 746 185 785 211 764 b 221 847 225 783 221 817 l 221 919 b 235 933 221 929 225 933 l 285 933 b 299 919 294 933 299 929 l 299 847 b 288 746 299 810 294 775 b 371 806 310 765 338 785 l 432 842 b 451 836 440 846 447 844 l 476 794 b 471 775 481 786 478 779 l 410 739 b 317 699 376 719 346 706 "},"+":{"ha":888,"x_min":0,"x_max":0,"o":"m 721 481 b 735 467 731 481 735 476 l 735 376 b 721 363 735 367 731 363 l 510 363 l 510 142 b 496 128 510 132 506 128 l 393 128 b 379 142 383 128 379 132 l 379 363 l 167 363 b 153 376 157 363 153 367 l 153 467 b 167 481 153 476 157 481 l 379 481 l 379 703 b 393 717 379 713 383 717 l 496 717 b 510 703 506 717 510 713 l 510 481 "},",":{"ha":325,"x_min":0,"x_max":0,"o":"m 268 85 b 215 -44 268 53 250 10 l 126 -183 b 108 -187 122 -190 115 -192 l 68 -161 b 64 -143 61 -157 60 -150 l 165 0 b 142 -4 158 -3 151 -4 b 47 89 88 -4 47 32 b 157 194 47 150 92 194 b 268 85 222 194 268 151 "},"-":{"ha":761,"x_min":0,"x_max":0,"o":"m 96 388 b 110 401 96 397 100 401 l 650 401 b 664 388 660 401 664 397 l 664 276 b 650 263 664 267 660 263 l 110 263 b 96 276 100 263 96 267 "},".":{"ha":296,"x_min":0,"x_max":0,"o":"m 43 83 b 147 186 43 140 86 186 b 253 83 208 186 253 140 b 147 -17 253 29 208 -17 b 43 83 86 -17 43 29 "},"/":{"ha":585,"x_min":0,"x_max":0,"o":"m 58 0 b 49 17 47 0 44 6 l 385 879 b 400 890 388 886 393 890 l 526 890 b 536 874 538 890 540 885 l 200 11 b 185 0 197 4 192 0 "},":":{"ha":508,"x_min":0,"x_max":0,"o":"m 254 426 b 153 525 200 426 153 471 b 254 626 153 579 200 626 b 356 525 310 626 356 579 b 254 426 356 471 310 426 m 325 22 b 182 22 286 -17 222 -17 b 182 163 143 63 143 124 b 325 163 222 203 286 203 b 325 22 365 124 365 63 "},";":{"ha":531,"x_min":0,"x_max":0,"o":"m 163 525 b 265 626 163 582 208 626 b 367 525 321 626 367 582 b 265 426 367 471 321 426 b 163 525 210 426 163 471 m 267 192 b 378 82 332 192 378 149 b 369 38 378 67 375 53 b 325 -47 360 8 353 -3 l 236 -186 b 218 -190 232 -193 225 -194 l 176 -164 b 172 -146 169 -160 168 -153 l 274 -4 b 251 -7 263 -6 256 -7 b 156 86 197 -7 156 29 b 267 192 156 147 200 192 "},"<":{"ha":538,"x_min":0,"x_max":0,"o":"m 54 226 b 44 243 47 229 44 235 l 44 383 b 54 400 44 392 47 397 l 468 614 b 485 604 479 618 485 615 l 485 463 b 475 446 485 454 482 449 l 211 313 l 475 179 b 485 163 482 176 485 171 l 485 22 b 468 13 485 11 479 8 "},"=":{"ha":754,"x_min":0,"x_max":0,"o":"m 142 611 b 156 625 142 621 146 625 l 599 625 b 613 611 608 625 613 621 l 613 508 b 599 494 613 499 608 494 l 156 494 b 142 508 146 494 142 499 m 142 317 b 156 331 142 326 146 331 l 599 331 b 613 317 608 331 613 326 l 613 213 b 599 199 613 203 608 199 l 156 199 b 142 213 146 199 142 203 "},">":{"ha":546,"x_min":0,"x_max":0,"o":"m 69 13 b 53 22 58 8 53 11 l 53 163 b 63 179 53 171 56 176 l 328 313 l 63 446 b 53 463 56 449 53 454 l 53 604 b 69 614 53 615 58 618 l 485 400 b 494 383 492 397 494 392 l 494 243 b 485 226 494 235 492 229 "},"?":{"ha":603,"x_min":0,"x_max":0,"o":"m 296 253 b 93 422 175 253 93 322 b 260 615 93 521 154 575 b 385 718 353 654 385 675 b 306 786 385 761 351 786 b 215 719 256 786 221 760 b 200 707 214 710 208 706 l 81 724 b 68 739 71 725 67 731 b 308 907 83 839 176 907 b 536 719 446 907 536 835 b 368 529 536 621 475 572 b 257 479 306 506 268 489 b 236 432 243 467 236 450 b 304 371 236 394 265 371 b 379 439 349 371 375 396 b 394 453 381 450 386 454 l 500 439 b 513 426 508 438 513 433 b 296 253 506 321 422 253 m 208 76 b 306 168 208 128 249 168 b 407 75 363 168 407 129 b 307 -17 407 21 363 -17 b 208 76 251 -17 208 22 "},"@":{"ha":1331,"x_min":0,"x_max":0,"o":"m 668 907 b 1085 749 835 907 974 854 b 1253 350 1197 644 1253 511 b 1179 110 1253 251 1228 171 b 988 18 1131 49 1067 18 b 796 168 875 18 808 86 b 622 85 757 113 699 85 b 451 154 551 85 494 108 b 386 335 408 200 386 261 b 453 518 386 410 408 471 b 631 589 499 565 557 589 b 804 503 711 589 769 560 l 810 563 b 825 575 811 571 815 575 l 893 575 b 907 561 903 575 907 571 l 907 215 b 993 122 907 158 943 122 b 1129 343 1081 122 1129 206 b 1000 669 1129 478 1086 586 b 668 794 915 753 804 794 b 331 665 531 794 418 751 b 200 331 243 579 200 468 b 331 -7 200 192 243 79 b 667 -136 418 -93 531 -136 b 914 -72 760 -136 843 -115 b 933 -78 924 -68 929 -69 l 974 -156 b 968 -175 979 -164 978 -171 b 667 -249 875 -224 775 -249 b 246 -87 497 -249 357 -194 b 79 331 135 19 79 160 b 246 746 79 501 135 639 b 668 907 358 853 499 907 m 646 178 b 792 336 731 178 792 242 b 647 493 792 431 732 493 b 497 336 557 493 497 429 b 646 178 497 243 557 178 "},"A":{"ha":950,"x_min":0,"x_max":0,"o":"m 769 0 b 754 11 763 0 757 4 l 679 193 l 267 193 l 190 11 b 175 0 188 4 182 0 l 31 0 b 19 17 18 0 15 6 l 393 879 b 408 890 396 886 401 890 l 540 890 b 556 879 547 890 553 886 l 929 17 b 918 0 933 6 931 0 m 322 325 l 625 325 l 475 692 "},"B":{"ha":815,"x_min":0,"x_max":0,"o":"m 606 447 b 765 238 707 419 765 342 b 485 0 765 83 658 0 l 114 0 b 100 14 104 0 100 4 l 100 876 b 114 890 100 886 104 890 l 481 890 b 742 657 643 890 742 800 b 606 447 742 558 690 482 m 254 756 l 254 503 l 438 503 b 583 628 528 503 583 550 b 444 756 583 706 528 756 m 464 135 b 608 258 557 135 608 182 b 463 386 608 342 551 386 l 254 386 l 254 135 "},"C":{"ha":975,"x_min":0,"x_max":0,"o":"m 508 908 b 919 663 703 908 860 814 b 911 644 924 653 921 647 l 778 600 b 760 610 768 597 763 600 b 506 763 726 700 628 763 b 294 675 418 763 347 733 b 215 446 242 618 215 542 b 294 214 215 350 242 272 b 506 128 347 157 418 128 b 760 282 628 128 726 189 b 778 290 763 290 768 293 l 911 247 b 919 229 921 244 924 239 b 764 49 890 153 838 93 b 508 -18 690 4 604 -18 b 176 110 371 -18 261 25 b 50 446 92 196 50 308 b 176 781 50 583 92 696 b 508 908 261 865 371 908 "},"D":{"ha":925,"x_min":0,"x_max":0,"o":"m 426 890 b 749 764 558 890 665 849 b 875 443 833 681 875 574 b 750 124 875 313 833 206 b 426 0 667 42 558 0 l 114 0 b 100 14 104 0 100 4 l 100 876 b 114 890 100 886 104 890 m 414 143 b 628 225 503 143 574 171 b 708 443 682 281 708 353 b 628 663 708 533 682 607 b 414 747 574 719 503 747 l 257 747 l 257 143 "},"E":{"ha":739,"x_min":0,"x_max":0,"o":"m 668 760 b 654 746 668 750 664 746 l 257 746 l 257 517 l 611 517 b 625 503 621 517 625 513 l 625 394 b 611 381 625 385 621 381 l 257 381 l 257 143 l 654 143 b 668 129 664 143 668 139 l 668 14 b 654 0 668 4 664 0 l 114 0 b 100 14 104 0 100 4 l 100 876 b 114 890 100 886 104 890 l 654 890 b 668 876 664 890 668 886 "},"F":{"ha":719,"x_min":0,"x_max":0,"o":"m 678 761 b 664 747 678 751 674 747 l 258 747 l 258 550 l 664 550 b 678 536 674 550 678 546 l 678 426 b 664 413 678 417 674 413 l 258 413 l 258 14 b 244 0 258 4 254 0 l 115 0 b 101 14 106 0 101 4 l 101 876 b 115 890 101 886 106 890 l 664 890 b 678 876 674 890 678 886 "},"G":{"ha":994,"x_min":0,"x_max":0,"o":"m 360 469 b 374 483 360 479 364 483 l 931 483 b 944 469 940 483 944 479 l 944 399 b 822 96 944 274 904 172 b 501 -18 740 19 633 -18 b 174 107 367 -18 257 24 b 50 439 92 192 50 301 b 176 778 50 579 92 692 b 506 908 261 865 371 908 b 907 669 694 908 847 815 b 899 651 911 660 908 654 l 771 611 b 754 619 763 608 757 611 b 504 763 715 710 619 763 b 290 674 414 763 343 733 b 213 442 239 615 213 538 b 504 128 213 247 326 128 b 779 347 654 128 761 213 l 374 347 b 360 361 364 347 360 351 "},"H":{"ha":907,"x_min":0,"x_max":0,"o":"m 114 0 b 100 14 104 0 100 4 l 100 876 b 114 890 100 886 104 890 l 243 890 b 257 876 253 890 257 886 l 257 518 l 658 518 l 658 876 b 672 890 658 886 663 890 l 803 890 b 817 876 813 890 817 886 l 817 14 b 803 0 817 4 813 0 l 672 0 b 658 14 663 0 658 4 l 658 381 l 257 381 l 257 14 b 243 0 257 4 253 0 "},"I":{"ha":358,"x_min":0,"x_max":0,"o":"m 257 14 b 243 0 257 4 253 0 l 114 0 b 100 14 104 0 100 4 l 100 876 b 114 890 100 886 104 890 l 243 890 b 257 876 253 890 257 886 "},"J":{"ha":739,"x_min":0,"x_max":0,"o":"m 67 256 l 67 425 b 81 439 67 435 71 439 l 204 439 b 218 425 214 439 218 435 l 218 261 b 351 125 218 172 269 125 b 488 261 440 125 488 178 l 488 876 b 501 890 488 886 492 890 l 631 890 b 644 876 640 890 644 886 l 644 256 b 564 56 644 172 618 106 b 351 -18 510 7 439 -18 b 67 256 179 -17 67 93 "},"K":{"ha":889,"x_min":0,"x_max":0,"o":"m 850 890 b 857 874 861 890 864 883 l 539 517 l 860 17 b 851 0 867 6 864 0 l 688 0 b 671 10 681 0 675 3 l 425 390 l 258 204 l 258 14 b 244 0 258 4 254 0 l 114 0 b 100 14 104 0 100 4 l 100 876 b 114 890 100 886 104 890 l 244 890 b 258 876 254 890 258 886 l 258 422 l 672 883 b 689 890 676 888 682 890 "},"L":{"ha":658,"x_min":0,"x_max":0,"o":"m 260 143 l 613 143 b 626 129 622 143 626 139 l 626 14 b 613 0 626 4 622 0 l 114 0 b 100 14 104 0 100 4 l 100 876 b 114 890 100 886 104 890 l 246 890 b 260 876 256 890 260 886 "},"M":{"ha":1242,"x_min":0,"x_max":0,"o":"m 1206 15 b 1194 0 1208 6 1204 0 l 1053 0 b 1038 13 1043 0 1039 4 l 890 617 l 688 39 b 671 28 685 32 679 28 l 571 28 b 554 39 563 28 557 32 l 351 615 l 203 13 b 188 0 201 4 196 0 l 47 0 b 36 15 38 0 33 6 l 251 878 b 267 890 253 886 257 890 l 399 890 b 415 879 407 890 413 886 l 624 254 l 836 879 b 853 890 839 886 844 890 l 975 890 b 990 878 985 890 989 886 "},"N":{"ha":911,"x_min":0,"x_max":0,"o":"m 664 876 b 678 890 664 886 668 890 l 806 890 b 819 876 815 890 819 886 l 819 14 b 806 0 819 4 815 0 l 682 0 b 665 8 675 0 669 3 l 257 617 l 257 14 b 243 0 257 4 253 0 l 114 0 b 100 14 104 0 100 4 l 100 876 b 114 890 100 886 104 890 l 239 890 b 256 882 246 890 251 888 l 664 269 "},"O":{"ha":1036,"x_min":0,"x_max":0,"o":"m 986 446 b 853 111 986 310 942 199 b 518 -18 764 25 653 -18 b 182 111 383 -18 271 25 b 50 444 94 197 50 308 b 182 778 50 581 94 692 b 518 908 269 865 382 908 b 853 778 653 908 764 865 b 986 446 942 692 986 581 m 819 446 b 735 672 819 539 792 614 b 519 761 678 732 607 761 b 301 672 432 761 358 732 b 215 444 244 614 215 538 b 300 217 215 351 243 275 b 518 129 357 158 431 129 b 733 217 606 129 676 158 b 819 446 790 276 819 353 "},"P":{"ha":800,"x_min":0,"x_max":0,"o":"m 481 890 b 764 638 660 890 764 792 b 481 381 764 475 654 381 l 257 381 l 257 14 b 243 0 257 4 253 0 l 114 0 b 100 14 104 0 100 4 l 100 876 b 114 890 100 886 104 890 m 467 513 b 599 632 550 513 599 558 b 467 750 599 708 549 750 l 257 750 l 257 513 "},"Q":{"ha":1036,"x_min":0,"x_max":0,"o":"m 986 446 b 894 158 986 335 956 239 b 653 0 833 79 753 26 l 868 -182 b 869 -203 875 -189 875 -196 l 786 -293 b 767 -294 779 -301 774 -301 l 501 -18 b 176 117 369 -14 261 32 b 50 444 92 201 50 311 b 182 778 50 581 94 692 b 518 908 269 865 382 908 b 853 778 653 908 764 865 b 986 446 942 692 986 581 m 518 129 b 733 217 606 129 676 158 b 819 446 790 276 819 353 b 735 672 819 539 792 614 b 519 761 678 732 607 761 b 301 672 432 761 358 732 b 215 444 244 614 215 538 b 300 217 215 351 243 275 b 518 129 357 158 431 129 "},"R":{"ha":821,"x_min":0,"x_max":0,"o":"m 776 17 b 768 0 783 10 779 0 l 611 0 b 594 8 604 0 599 3 l 318 406 l 257 406 l 257 14 b 243 0 257 4 253 0 l 114 0 b 100 14 104 0 100 4 l 100 876 b 114 890 100 886 104 890 l 483 890 b 754 650 654 890 754 796 b 497 406 754 504 653 410 m 257 522 l 458 522 b 589 638 543 522 589 565 b 458 754 589 711 542 754 l 257 754 "},"S":{"ha":774,"x_min":0,"x_max":0,"o":"m 383 -17 b 57 78 249 -17 140 15 b 53 96 50 82 49 88 l 93 190 b 113 194 97 199 104 200 b 378 111 189 139 278 111 b 558 239 494 111 558 157 b 508 332 558 282 543 314 b 419 369 475 353 463 357 l 326 396 b 242 422 292 406 263 415 b 164 463 221 431 196 444 b 71 647 103 501 71 564 b 160 838 71 728 100 792 b 393 908 219 885 297 908 b 688 829 506 908 603 882 b 693 811 694 825 696 819 l 653 715 b 635 710 649 706 643 704 b 401 778 564 756 486 778 b 236 656 296 778 236 732 b 382 532 236 582 283 558 l 483 506 b 603 460 529 493 553 488 b 726 249 674 424 721 361 b 383 -17 726 83 600 -17 "},"T":{"ha":742,"x_min":0,"x_max":0,"o":"m 707 890 b 721 876 717 890 721 886 l 721 761 b 707 747 721 751 717 747 l 451 747 l 451 14 b 438 0 451 4 447 0 l 308 0 b 294 14 299 0 294 4 l 294 747 l 35 747 b 21 761 25 747 21 751 l 21 876 b 35 890 21 886 25 890 "},"U":{"ha":921,"x_min":0,"x_max":0,"o":"m 93 319 l 93 876 b 107 890 93 886 97 890 l 236 890 b 250 876 246 890 250 886 l 250 325 b 460 126 251 186 338 126 b 671 325 588 126 671 196 l 671 876 b 685 890 671 886 675 890 l 814 890 b 828 876 824 890 828 886 l 828 319 b 725 69 828 211 793 128 b 460 -18 657 11 568 -18 b 194 69 351 -18 263 11 b 93 319 126 128 93 211 "},"V":{"ha":1008,"x_min":0,"x_max":0,"o":"m 18 874 b 29 890 14 885 17 890 l 179 890 b 194 879 186 890 192 886 l 506 189 l 817 879 b 832 890 819 886 825 890 l 979 890 b 990 874 992 890 994 885 l 592 10 b 576 0 589 3 583 0 l 436 0 b 421 10 429 0 424 3 "},"W":{"ha":1540,"x_min":0,"x_max":0,"o":"m 1336 879 b 1351 890 1339 886 1344 890 l 1506 890 b 1517 874 1518 890 1521 885 l 1165 11 b 1150 0 1163 4 1157 0 l 1021 0 b 1006 11 1014 0 1008 4 l 769 642 l 533 11 b 518 0 531 4 525 0 l 388 0 b 372 11 381 0 375 4 l 24 874 b 35 890 19 885 22 890 l 189 890 b 204 879 196 890 201 886 l 454 228 l 689 856 b 704 867 692 863 697 867 l 836 867 b 851 856 843 867 849 863 l 1085 228 "},"X":{"ha":871,"x_min":0,"x_max":0,"o":"m 42 0 b 33 17 31 0 26 10 l 332 444 l 32 874 b 42 890 25 883 31 890 l 193 890 b 210 882 200 890 206 888 l 436 544 l 668 882 b 685 890 672 888 678 890 l 829 890 b 839 874 840 890 844 883 l 540 444 l 839 17 b 829 0 846 10 840 0 l 679 0 b 663 8 672 0 667 3 l 435 336 l 204 8 b 188 0 200 3 194 0 "},"Y":{"ha":847,"x_min":0,"x_max":0,"o":"m 8 874 b 17 890 1 885 4 890 l 169 890 b 186 881 176 890 182 888 l 426 511 l 667 881 b 683 890 671 888 676 890 l 831 890 b 839 874 843 890 846 885 l 504 358 l 504 14 b 490 0 504 4 500 0 l 360 0 b 346 14 350 0 346 4 l 346 358 "},"Z":{"ha":813,"x_min":0,"x_max":0,"o":"m 67 0 b 53 14 57 0 53 4 l 53 101 b 58 119 53 108 54 115 l 536 747 l 89 747 b 75 761 79 747 75 751 l 75 876 b 89 890 75 886 79 890 l 740 890 b 754 876 750 890 754 886 l 754 794 b 749 776 754 788 753 781 l 272 143 l 743 143 b 757 129 753 143 757 139 l 757 14 b 743 0 757 4 753 0 "},"[":{"ha":378,"x_min":0,"x_max":0,"o":"m 357 -146 b 371 -160 367 -146 371 -150 l 371 -250 b 357 -264 371 -260 367 -264 l 99 -264 b 85 -250 89 -264 85 -260 l 85 913 b 99 926 85 922 89 926 l 357 926 b 371 913 367 926 371 922 l 371 822 b 357 808 371 813 367 808 l 217 808 l 217 -146 "},"\\":{"ha":511,"x_min":0,"x_max":0,"o":"m 504 17 b 494 0 508 6 506 0 l 369 0 b 354 11 363 0 357 4 l 7 874 b 18 890 3 885 6 890 l 144 890 b 160 879 151 890 157 886 "},"]":{"ha":376,"x_min":0,"x_max":0,"o":"m 7 -160 b 21 -146 7 -150 11 -146 l 161 -146 l 161 808 l 21 808 b 7 822 11 808 7 813 l 7 913 b 21 926 7 922 11 926 l 278 926 b 292 913 288 926 292 922 l 292 -250 b 278 -264 292 -260 288 -264 l 21 -264 b 7 -250 11 -264 7 -260 "},"^":{"ha":636,"x_min":0,"x_max":0,"o":"m 524 618 b 514 601 528 607 525 601 l 410 601 b 393 611 401 601 396 604 l 318 758 l 244 611 b 228 601 242 604 236 601 l 122 601 b 113 618 111 601 108 607 l 246 881 b 263 890 249 888 254 890 l 374 890 b 390 881 382 890 388 888 "},"_":{"ha":528,"x_min":0,"x_max":0,"o":"m -3 -36 b 11 -22 -3 -26 1 -22 l 517 -22 b 531 -36 526 -22 531 -26 l 531 -122 b 517 -136 531 -132 526 -136 l 11 -136 b -3 -122 1 -136 -3 -132 "},"`":{"ha":426,"x_min":0,"x_max":0,"o":"m 301 963 b 282 961 296 956 289 956 l 69 1128 b 68 1149 63 1133 61 1140 l 128 1208 b 147 1208 135 1215 142 1215 l 329 1011 b 329 992 335 1004 335 999 "},"a":{"ha":789,"x_min":0,"x_max":0,"o":"m 558 606 b 572 619 558 615 563 619 l 699 619 b 713 606 708 619 713 615 l 713 14 b 699 0 713 4 708 0 l 572 0 b 558 14 563 0 558 4 l 558 61 b 358 -18 513 8 446 -18 b 135 72 267 -18 192 13 b 50 310 78 132 50 211 b 135 549 50 408 78 489 b 358 639 192 608 267 639 b 558 561 446 639 513 613 m 392 122 b 558 211 464 122 531 157 l 558 410 b 392 500 529 465 464 500 b 208 311 282 500 208 424 b 392 122 208 199 282 122 "},"b":{"ha":799,"x_min":0,"x_max":0,"o":"m 440 639 b 663 549 532 639 606 608 b 749 310 719 489 749 408 b 663 72 749 211 719 132 b 440 -18 606 13 532 -18 b 240 61 353 -18 286 8 l 240 14 b 226 0 240 4 236 0 l 100 0 b 86 14 90 0 86 4 l 86 876 b 100 890 86 886 90 890 l 226 890 b 240 876 236 890 240 886 l 240 561 b 440 639 286 613 353 639 m 407 122 b 590 311 517 122 590 199 b 407 500 590 424 517 500 b 240 408 333 500 267 464 l 240 214 b 407 122 267 158 333 122 "},"c":{"ha":717,"x_min":0,"x_max":0,"o":"m 379 638 b 667 465 514 638 626 571 b 657 447 669 456 667 450 l 539 410 b 521 418 531 407 525 410 b 376 500 499 468 444 500 b 208 310 275 500 208 425 b 376 119 208 194 275 119 b 521 201 444 119 499 151 b 539 210 525 210 531 213 l 657 172 b 667 154 667 169 669 164 b 379 -18 626 49 518 -18 b 140 72 281 -18 201 13 b 50 310 81 132 50 211 b 140 547 50 408 81 488 b 379 638 201 607 281 638 "},"d":{"ha":789,"x_min":0,"x_max":0,"o":"m 558 876 b 572 890 558 886 563 890 l 699 890 b 713 876 708 890 713 886 l 713 14 b 699 0 713 4 708 0 l 572 0 b 558 14 563 0 558 4 l 558 61 b 358 -18 513 8 446 -18 b 135 72 267 -18 192 13 b 50 310 78 132 50 211 b 135 549 50 408 78 489 b 358 639 192 608 267 639 b 558 561 446 639 513 613 m 392 122 b 558 211 464 122 531 157 l 558 410 b 392 500 529 465 464 500 b 208 311 282 500 208 424 b 392 122 208 199 282 122 "},"e":{"ha":718,"x_min":0,"x_max":0,"o":"m 50 313 b 138 549 50 411 79 489 b 369 639 197 608 274 639 b 586 558 460 639 532 613 b 669 347 642 504 669 435 b 665 285 669 324 668 303 b 650 272 664 276 660 272 l 204 272 b 386 110 206 172 281 110 b 563 188 464 111 522 138 b 582 189 568 196 575 196 l 650 122 b 653 103 657 115 657 110 b 378 -18 596 29 494 -18 b 139 72 278 -18 199 13 b 50 313 79 132 50 213 m 515 379 b 364 511 514 458 454 511 b 206 379 275 511 215 461 "},"f":{"ha":578,"x_min":0,"x_max":0,"o":"m 542 619 b 556 606 551 619 556 615 l 556 504 b 542 490 556 494 551 490 l 347 490 l 347 14 b 333 0 347 4 343 0 l 206 0 b 192 14 196 0 192 4 l 192 490 l 36 490 b 22 504 26 490 22 494 l 22 606 b 36 619 22 615 26 619 l 192 619 l 192 685 b 431 908 192 833 286 908 b 526 894 460 908 492 904 b 538 878 533 892 538 886 l 538 783 b 522 771 538 774 532 769 b 464 778 507 775 488 778 b 347 664 386 778 347 740 l 347 619 "},"g":{"ha":772,"x_min":0,"x_max":0,"o":"m 542 606 b 556 619 542 615 546 619 l 683 619 b 697 606 693 619 697 615 l 697 0 b 367 -304 697 -187 571 -304 b 65 -126 222 -304 110 -237 b 75 -108 63 -117 65 -111 l 193 -69 b 210 -78 201 -67 207 -69 b 368 -168 235 -137 288 -168 b 542 -6 479 -168 542 -106 l 542 88 b 350 15 496 39 432 15 b 132 100 260 15 188 43 b 50 326 78 157 50 233 b 132 553 50 419 78 496 b 351 639 188 610 261 639 b 542 567 435 639 499 615 m 382 149 b 542 228 450 149 513 179 l 542 426 b 382 506 513 475 450 506 b 207 326 278 506 207 433 b 382 149 207 221 278 149 "},"h":{"ha":763,"x_min":0,"x_max":0,"o":"m 429 639 b 686 375 585 639 686 540 l 686 14 b 672 0 686 4 682 0 l 544 0 b 531 14 535 0 531 4 l 531 351 b 388 499 531 450 483 499 b 240 422 321 499 272 474 l 240 14 b 226 0 240 4 236 0 l 100 0 b 86 14 90 0 86 4 l 86 876 b 100 890 86 886 90 890 l 226 890 b 240 876 236 890 240 886 l 240 569 b 429 639 289 615 353 639 "},"i":{"ha":331,"x_min":0,"x_max":0,"o":"m 274 844 b 165 740 274 788 228 740 b 57 844 103 740 57 785 b 165 947 57 904 103 947 b 274 844 228 947 274 904 m 101 0 b 88 14 92 0 88 4 l 88 606 b 101 619 88 615 92 619 l 228 619 b 242 606 238 619 242 615 l 242 14 b 228 0 242 4 238 0 "},"j":{"ha":328,"x_min":0,"x_max":0,"o":"m 164 740 b 57 844 103 740 57 785 b 164 947 57 904 103 947 b 272 844 226 947 272 904 b 164 740 272 788 226 740 m -103 -192 b -87 -181 -103 -182 -97 -178 b -37 -186 -72 -185 -56 -186 b 88 -60 46 -186 88 -144 l 88 606 b 101 619 88 615 92 619 l 228 619 b 242 606 238 619 242 615 l 242 -68 b 1 -321 242 -235 151 -321 b -92 -307 -33 -321 -64 -317 b -103 -292 -99 -304 -103 -299 "},"k":{"ha":751,"x_min":0,"x_max":0,"o":"m 697 619 b 704 603 710 619 714 613 l 465 372 l 711 17 b 701 0 717 10 713 0 l 553 0 b 536 8 546 0 540 3 l 357 267 l 240 154 l 240 14 b 226 0 240 4 236 0 l 100 0 b 86 14 90 0 86 4 l 86 876 b 100 890 86 886 90 890 l 226 890 b 240 876 236 890 240 886 l 240 344 l 522 613 b 539 619 526 617 532 619 "},"l":{"ha":326,"x_min":0,"x_max":0,"o":"m 100 0 b 86 14 90 0 86 4 l 86 876 b 100 890 86 886 90 890 l 226 890 b 240 876 236 890 240 886 l 240 14 b 226 0 240 4 236 0 "},"m":{"ha":1168,"x_min":0,"x_max":0,"o":"m 847 639 b 1092 375 999 639 1092 538 l 1092 14 b 1078 0 1092 4 1088 0 l 951 0 b 938 14 942 0 938 4 l 938 351 b 813 499 938 450 896 499 b 664 419 744 499 696 472 b 667 375 665 401 667 386 l 667 14 b 653 0 667 4 663 0 l 526 0 b 513 14 517 0 513 4 l 513 351 b 386 499 513 450 471 499 b 240 424 321 499 272 474 l 240 14 b 226 0 240 4 236 0 l 100 0 b 86 14 90 0 86 4 l 86 606 b 100 619 86 615 90 619 l 226 619 b 240 606 236 619 240 615 l 240 571 b 426 639 289 617 350 639 b 622 542 514 639 579 607 b 847 639 672 601 757 639 "},"n":{"ha":763,"x_min":0,"x_max":0,"o":"m 429 639 b 686 375 585 639 686 540 l 686 14 b 672 0 686 4 682 0 l 544 0 b 531 14 535 0 531 4 l 531 351 b 388 499 531 450 483 499 b 240 422 321 499 272 474 l 240 14 b 226 0 240 4 236 0 l 100 0 b 86 14 90 0 86 4 l 86 606 b 100 619 86 615 90 619 l 226 619 b 240 606 236 619 240 615 l 240 569 b 429 639 289 615 353 639 "},"o":{"ha":776,"x_min":0,"x_max":0,"o":"m 50 310 b 143 546 50 406 81 485 b 388 639 206 608 286 639 b 632 546 489 639 569 608 b 726 310 694 485 726 406 b 632 74 726 214 694 136 b 388 -18 569 13 489 -18 b 143 74 288 -18 206 13 b 50 310 81 136 50 214 m 388 121 b 568 311 494 121 568 200 b 388 500 568 421 494 500 b 208 311 282 500 208 422 b 388 121 208 200 282 121 "},"p":{"ha":799,"x_min":0,"x_max":0,"o":"m 440 639 b 663 549 532 639 606 608 b 749 310 719 489 749 408 b 663 72 749 211 719 132 b 440 -18 606 13 532 -18 b 240 61 353 -18 286 8 l 240 -271 b 226 -285 240 -281 236 -285 l 100 -285 b 86 -271 90 -285 86 -281 l 86 606 b 100 619 86 615 90 619 l 226 619 b 240 606 236 619 240 615 l 240 561 b 440 639 286 613 353 639 m 407 122 b 590 311 517 122 590 199 b 407 500 590 424 517 500 b 240 408 333 500 267 464 l 240 214 b 407 122 267 158 333 122 "},"q":{"ha":789,"x_min":0,"x_max":0,"o":"m 558 606 b 572 619 558 615 563 619 l 699 619 b 713 606 708 619 713 615 l 713 -271 b 699 -285 713 -281 708 -285 l 572 -285 b 558 -271 563 -285 558 -281 l 558 61 b 358 -18 513 8 446 -18 b 135 72 267 -18 192 13 b 50 310 78 132 50 211 b 135 549 50 408 78 489 b 358 639 192 608 267 639 b 558 561 446 639 513 613 m 392 122 b 558 211 464 122 531 157 l 558 410 b 392 500 529 465 464 500 b 208 311 282 500 208 424 b 392 122 208 199 282 122 "},"r":{"ha":500,"x_min":0,"x_max":0,"o":"m 413 631 b 463 626 431 631 447 629 b 475 611 471 625 475 621 l 475 499 b 460 486 475 489 469 485 b 413 490 444 489 428 490 b 235 388 326 490 267 456 l 233 14 b 219 0 233 4 229 0 l 93 0 b 79 14 83 0 79 4 l 79 606 b 93 619 79 615 83 619 l 221 619 b 235 606 231 619 235 615 l 235 544 b 413 631 272 601 332 631 "},"s":{"ha":614,"x_min":0,"x_max":0,"o":"m 301 -18 b 60 50 201 -18 121 4 b 54 68 53 54 51 60 l 90 154 b 108 158 94 163 100 164 b 299 104 163 122 226 104 b 408 171 372 104 408 126 b 393 210 408 186 403 200 b 332 238 375 231 364 231 l 232 264 b 63 443 125 290 63 342 b 311 639 63 560 163 639 b 532 585 393 639 467 621 b 539 565 540 581 543 574 l 503 479 b 485 474 499 469 493 468 b 319 518 435 503 379 518 b 219 453 253 518 219 496 b 232 418 219 439 224 428 b 293 392 250 401 260 399 l 406 364 b 568 183 514 338 568 276 b 301 -18 568 57 464 -18 "},"t":{"ha":601,"x_min":0,"x_max":0,"o":"m 565 504 b 551 490 565 494 561 490 l 353 490 l 353 233 b 471 117 353 156 392 117 b 543 126 492 117 515 119 b 558 114 553 129 558 125 l 558 14 b 546 -1 558 4 554 0 b 429 -17 507 -11 468 -17 b 197 215 281 -17 197 61 l 197 490 l 35 490 b 21 504 25 490 21 494 l 21 606 b 35 619 21 615 25 619 l 197 619 l 197 876 b 211 890 197 886 201 890 l 339 890 b 353 876 349 890 353 886 l 353 619 l 551 619 b 565 606 561 619 565 615 "},"u":{"ha":744,"x_min":0,"x_max":0,"o":"m 510 606 b 524 619 510 615 514 619 l 651 619 b 665 606 661 619 665 615 l 665 14 b 651 0 665 4 661 0 l 524 0 b 510 14 514 0 510 4 l 510 51 b 318 -18 458 6 394 -18 b 79 244 167 -18 79 78 l 79 606 b 93 619 79 615 83 619 l 219 619 b 233 606 229 619 233 615 l 233 271 b 367 119 233 169 278 119 b 510 192 431 119 478 143 "},"v":{"ha":789,"x_min":0,"x_max":0,"o":"m 15 603 b 25 619 11 614 14 619 l 171 619 b 188 610 179 619 185 617 l 396 176 l 606 610 b 622 619 608 617 614 619 l 764 619 b 774 603 775 619 778 614 l 478 10 b 461 0 475 3 469 0 l 332 0 b 315 10 324 0 318 3 "},"w":{"ha":1146,"x_min":0,"x_max":0,"o":"m 965 608 b 981 619 968 615 974 619 l 1119 619 b 1131 603 1132 619 1135 614 l 865 11 b 850 0 863 4 857 0 l 738 0 b 721 11 729 0 724 4 l 574 411 l 415 11 b 400 0 413 4 407 0 l 288 0 b 272 11 281 0 275 4 l 15 603 b 26 619 11 614 14 619 l 168 619 b 183 608 175 619 181 615 l 350 201 l 500 592 b 515 603 503 599 508 603 l 632 603 b 647 592 639 603 644 599 l 792 201 "},"x":{"ha":668,"x_min":0,"x_max":0,"o":"m 36 0 b 28 17 25 0 21 10 l 242 307 l 25 603 b 33 619 18 610 22 619 l 172 619 b 189 611 179 619 185 617 l 335 408 l 479 611 b 496 619 483 617 489 619 l 635 619 b 643 603 646 619 650 610 l 428 310 l 643 17 b 635 0 650 10 646 0 l 499 0 b 481 8 490 0 485 3 l 335 207 l 190 8 b 174 0 186 3 181 0 "},"y":{"ha":760,"x_min":0,"x_max":0,"o":"m 21 603 b 31 619 17 614 19 619 l 174 619 b 190 610 182 619 188 617 l 378 236 l 569 610 b 586 619 572 617 578 619 l 729 619 b 739 603 739 619 744 613 l 271 -275 b 254 -285 268 -282 263 -285 l 117 -285 b 107 -268 106 -285 103 -279 l 290 79 "},"z":{"ha":681,"x_min":0,"x_max":0,"o":"m 74 0 b 60 14 64 0 60 4 l 60 93 b 67 110 60 97 63 103 l 390 483 l 88 483 b 74 497 78 483 74 488 l 74 606 b 88 619 74 615 78 619 l 593 619 b 607 606 603 619 607 615 l 607 525 b 600 508 607 521 604 515 l 278 138 l 607 138 b 621 124 617 138 621 133 l 621 14 b 607 0 621 4 617 0 "},"{":{"ha":461,"x_min":0,"x_max":0,"o":"m 315 524 b 229 339 315 432 286 371 b 315 156 286 307 315 246 l 315 -49 b 457 -176 315 -150 363 -192 b 472 -189 467 -175 472 -179 l 472 -269 b 460 -285 472 -279 468 -283 b 249 -239 363 -299 292 -283 b 185 -57 206 -194 185 -133 l 185 160 b 86 286 185 247 153 282 b 72 300 76 286 72 290 l 72 378 b 86 392 72 388 76 392 b 185 519 153 396 185 432 l 185 735 b 460 963 185 900 281 992 b 472 947 468 961 472 957 l 472 867 b 457 854 472 857 467 853 b 315 726 363 867 315 824 "},"|":{"ha":476,"x_min":0,"x_max":0,"o":"m 178 949 b 192 963 178 958 182 963 l 285 963 b 299 949 294 963 299 958 l 299 -96 b 285 -110 299 -106 294 -110 l 192 -110 b 178 -96 182 -110 178 -106 "},"}":{"ha":461,"x_min":0,"x_max":0,"o":"m 276 519 b 375 392 276 432 308 396 b 389 378 385 392 389 388 l 389 300 b 375 286 389 290 385 286 b 276 160 308 282 276 247 l 276 -57 b 211 -239 276 -133 254 -194 b 1 -285 168 -283 97 -299 b -11 -269 -7 -283 -11 -279 l -11 -189 b 4 -176 -11 -179 -6 -175 b 146 -49 99 -192 146 -150 l 146 156 b 232 339 146 246 175 307 b 146 524 175 371 146 432 l 146 726 b 4 854 146 824 99 867 b -11 867 -6 853 -11 857 l -11 947 b 1 963 -11 957 -7 961 b 276 735 179 992 276 900 "},"~":{"ha":582,"x_min":0,"x_max":0,"o":"m 453 446 b 467 461 453 456 457 461 l 529 461 b 543 447 539 461 543 457 b 396 271 544 336 481 271 b 274 317 358 271 318 286 b 181 364 231 349 199 364 b 131 303 147 364 131 343 b 117 288 131 293 126 288 l 54 288 b 40 301 44 288 40 292 b 186 475 39 408 101 475 b 307 428 224 475 264 460 b 403 381 351 396 383 381 b 453 446 436 381 453 403 "}," ":{"ha":331,"x_min":0,"x_max":0,"o":""},"¡":{"ha":417,"x_min":0,"x_max":0,"o":"m 210 908 b 326 794 275 908 326 861 b 210 681 326 726 275 681 b 90 794 143 681 90 726 b 210 908 90 861 142 908 m 253 569 b 267 556 263 569 267 565 l 294 13 b 282 -1 294 3 290 -1 l 136 -1 b 122 13 126 -1 122 3 l 150 556 b 164 569 150 565 154 569 "},"¢":{"ha":825,"x_min":0,"x_max":0,"o":"m 428 274 b 572 356 500 274 549 301 b 590 364 576 364 582 367 l 708 325 b 718 307 718 322 721 317 b 469 138 683 211 590 149 l 469 14 b 456 0 469 4 465 0 l 385 0 b 371 14 375 0 371 4 l 371 140 b 101 463 206 167 101 289 b 174 679 101 550 125 622 b 371 786 222 738 289 774 l 371 903 b 385 917 371 913 375 917 l 456 917 b 469 903 465 917 469 913 l 469 789 b 718 618 588 776 683 713 b 708 600 721 608 718 603 l 590 563 b 572 571 582 560 576 563 b 428 653 549 625 500 653 b 260 463 326 653 260 578 b 428 274 260 347 326 274 "},"£":{"ha":881,"x_min":0,"x_max":0,"o":"m 658 267 b 672 281 658 276 663 281 l 781 281 b 794 267 790 281 794 276 l 794 14 b 781 0 794 4 790 0 l 111 0 b 97 14 101 0 97 4 l 97 124 b 110 138 97 132 101 136 b 238 313 189 153 238 222 b 229 375 238 335 235 356 l 114 375 b 100 389 104 375 100 379 l 100 476 b 114 490 100 486 104 490 l 186 490 b 161 614 169 533 161 575 b 249 825 161 700 190 771 b 479 907 308 879 385 907 b 694 836 567 907 639 883 b 786 649 751 789 782 726 b 772 635 786 639 782 635 l 647 635 b 632 649 638 635 633 639 b 475 771 625 722 563 771 b 314 611 376 771 314 707 b 344 490 314 575 324 535 l 593 490 b 607 476 603 490 607 486 l 607 389 b 593 375 607 379 603 375 l 383 375 b 386 328 385 357 386 340 b 288 136 386 249 350 174 l 658 136 "},"¤":{"ha":904,"x_min":0,"x_max":0,"o":"m 818 196 b 819 176 825 189 825 183 l 738 96 b 718 97 731 89 725 90 l 638 186 b 451 129 582 149 519 129 b 267 188 383 129 321 149 l 186 97 b 167 96 179 90 174 89 l 85 176 b 86 196 78 183 79 189 l 179 278 b 125 457 143 332 125 392 b 179 638 125 524 143 583 l 86 719 b 85 739 79 726 78 733 l 167 821 b 186 819 174 828 179 826 l 268 729 b 451 786 324 767 385 786 b 636 729 519 786 581 767 l 718 819 b 738 821 725 826 731 828 l 819 739 b 818 719 825 733 825 726 l 725 639 b 725 275 799 526 799 388 m 451 271 b 582 325 503 271 546 289 b 638 457 619 363 638 406 b 582 588 638 508 619 551 b 451 643 546 625 503 643 b 319 588 400 643 357 625 b 265 457 283 551 265 508 b 321 325 265 406 283 363 b 451 271 358 289 401 271 "},"¥":{"ha":985,"x_min":0,"x_max":0,"o":"m 874 890 b 882 874 886 890 889 885 l 635 490 l 771 490 b 785 476 781 490 785 486 l 785 386 b 771 372 785 376 781 372 l 568 372 l 568 281 l 771 281 b 785 267 781 281 785 276 l 785 178 b 771 164 785 168 781 164 l 568 164 l 568 14 b 554 0 568 4 564 0 l 428 0 b 414 14 418 0 414 4 l 414 164 l 211 164 b 197 178 201 164 197 168 l 197 267 b 211 281 197 276 201 281 l 414 281 l 414 372 l 211 372 b 197 386 201 372 197 376 l 197 476 b 211 490 197 486 201 490 l 351 490 l 104 874 b 113 890 97 885 100 890 l 265 890 b 282 881 272 890 278 888 l 493 513 l 493 514 l 703 881 b 719 890 707 888 713 890 "},"¦":{"ha":489,"x_min":0,"x_max":0,"o":"m 178 951 b 192 965 178 961 182 965 l 299 965 b 313 951 308 965 313 961 l 313 568 b 299 554 313 558 308 554 l 192 554 b 178 568 182 554 178 558 m 178 324 b 192 338 178 333 182 338 l 299 338 b 313 324 308 338 313 333 l 313 -71 b 299 -85 313 -81 308 -85 l 192 -85 b 178 -71 182 -85 178 -81 "},"§":{"ha":658,"x_min":0,"x_max":0,"o":"m 60 17 b 74 31 60 26 64 31 l 207 31 b 221 17 217 31 221 26 b 338 -75 228 -43 275 -75 b 444 17 400 -75 444 -37 b 407 82 444 46 433 69 b 331 110 383 97 365 103 l 250 128 b 64 326 126 160 64 225 b 193 503 64 408 115 476 b 53 688 100 536 53 597 b 128 846 53 753 78 806 b 325 907 178 886 243 907 b 603 690 486 907 596 822 b 589 676 603 681 599 676 l 454 676 b 439 690 444 676 440 681 b 324 783 432 750 386 783 b 218 693 261 783 218 749 b 331 599 218 633 260 611 l 413 581 b 597 383 535 553 597 482 b 469 204 597 296 549 232 b 610 19 563 172 610 111 b 533 -139 610 -46 585 -99 b 336 -200 482 -179 417 -200 b 60 17 175 -200 67 -115 m 332 272 b 447 356 406 272 447 306 b 329 438 447 410 400 438 b 215 356 257 438 215 404 b 332 272 215 300 261 272 "},"¨":{"ha":529,"x_min":0,"x_max":0,"o":"m 132 953 b 50 1033 86 953 50 988 b 132 1117 50 1082 86 1117 b 215 1033 181 1117 215 1082 b 132 953 215 988 181 953 m 389 953 b 306 1033 340 953 306 988 b 389 1117 306 1082 340 1117 b 471 1033 435 1117 471 1082 b 389 953 471 988 435 953 "},"©":{"ha":1046,"x_min":0,"x_max":0,"o":"m 524 -18 b 185 113 388 -18 275 25 b 50 444 94 200 50 310 b 185 778 50 579 94 690 b 524 908 275 865 388 908 b 861 776 658 908 771 864 b 996 444 951 689 996 578 b 861 113 996 311 951 200 b 524 -18 771 25 658 -18 m 524 79 b 788 182 631 79 718 114 b 893 444 858 251 893 339 b 788 708 893 551 858 640 b 524 813 718 778 631 813 b 257 708 417 813 328 778 b 153 444 188 640 153 551 b 257 182 153 339 188 251 b 524 79 328 114 417 79 m 307 444 b 531 675 307 582 399 675 b 718 572 615 675 678 640 b 711 554 722 565 719 558 l 647 528 b 629 535 640 524 633 526 b 529 588 610 569 576 588 b 406 444 457 588 406 532 b 529 303 406 360 457 303 b 629 356 576 303 610 321 b 647 363 633 364 640 367 l 711 336 b 718 318 719 332 722 325 b 531 215 679 250 617 215 b 369 279 465 215 411 236 b 307 444 328 322 307 376 "},"ª":{"ha":633,"x_min":0,"x_max":0,"o":"m 449 938 b 463 951 449 947 453 951 l 556 951 b 569 938 565 951 569 947 l 569 469 b 556 456 569 460 565 456 l 463 456 b 449 469 453 456 449 460 l 449 506 b 288 442 411 463 357 442 b 110 514 214 442 156 465 b 42 704 64 563 42 626 b 110 894 42 783 64 846 b 289 967 156 943 215 967 b 449 903 360 967 413 946 m 314 550 b 449 624 374 550 426 579 l 449 785 b 314 858 426 829 374 858 b 165 706 225 858 165 796 b 314 550 165 613 225 550 "},"«":{"ha":725,"x_min":0,"x_max":0,"o":"m 392 565 b 401 549 404 565 408 560 l 265 310 l 401 69 b 392 53 408 58 404 53 l 251 53 b 235 63 244 53 239 56 l 100 300 b 100 319 96 307 96 313 l 235 556 b 251 565 239 563 244 565 m 668 565 b 678 549 681 565 685 560 l 543 310 l 678 69 b 668 53 685 58 681 53 l 529 53 b 513 63 522 53 517 56 l 379 300 b 379 319 375 307 375 314 l 513 556 b 529 565 517 563 522 565 "},"¬":{"ha":792,"x_min":0,"x_max":0,"o":"m 721 179 b 707 165 721 169 717 165 l 569 165 b 556 179 560 165 556 169 l 556 324 l 85 324 b 71 338 75 324 71 328 l 71 474 b 85 488 71 483 75 488 l 707 488 b 721 474 717 488 721 483 "},"®":{"ha":751,"x_min":0,"x_max":0,"o":"m 378 907 b 613 815 472 907 550 876 b 707 583 675 754 707 676 b 613 349 707 489 675 411 b 378 257 550 288 472 257 b 139 349 282 257 203 288 b 44 583 76 410 44 488 b 139 815 44 676 76 754 b 378 907 203 876 282 907 m 376 324 b 561 394 450 324 513 347 b 636 582 611 443 636 506 b 561 767 636 657 611 718 b 376 839 513 815 450 839 b 189 767 300 839 238 815 b 117 582 140 719 117 658 b 189 394 117 506 140 443 b 376 324 238 347 300 324 m 501 632 b 414 544 501 581 468 549 l 490 463 b 483 446 500 451 497 446 l 431 446 b 414 454 424 446 418 449 l 333 544 l 331 544 l 331 460 b 317 446 331 450 326 446 l 279 446 b 265 460 269 446 265 450 l 265 703 b 279 717 265 713 269 717 l 404 717 b 501 632 464 717 501 682 m 331 656 l 331 594 l 392 594 b 429 625 417 594 429 604 b 392 656 429 646 417 656 "},"¯":{"ha":568,"x_min":0,"x_max":0,"o":"m 107 1058 b 121 1072 107 1068 111 1072 l 458 1072 b 472 1058 468 1072 472 1068 l 472 978 b 458 964 472 968 468 964 l 121 964 b 107 978 111 964 107 968 "},"°":{"ha":394,"x_min":0,"x_max":0,"o":"m 196 575 b 31 740 103 575 31 646 b 78 858 31 788 46 826 b 196 907 110 890 150 907 b 364 740 292 907 364 835 b 196 575 364 646 292 575 m 196 819 b 118 740 151 819 118 785 b 253 685 111 674 207 639 b 196 819 304 732 267 819 "},"±":{"ha":628,"x_min":0,"x_max":0,"o":"m 378 476 l 564 476 b 578 463 574 476 578 472 l 578 365 b 564 351 578 356 574 351 l 378 351 l 378 239 b 364 225 378 229 374 225 l 265 225 b 251 239 256 225 251 229 l 251 351 l 64 351 b 50 365 54 351 50 356 l 50 463 b 64 476 50 472 54 476 l 251 476 l 251 588 b 265 601 251 597 256 601 l 364 601 b 378 588 374 601 378 597 m 64 0 b 50 14 54 0 50 4 l 50 110 b 64 124 50 119 54 124 l 564 124 b 578 110 574 124 578 119 l 578 14 b 564 0 578 4 574 0 "},"²":{"ha":615,"x_min":0,"x_max":0,"o":"m 286 507 l 544 507 b 558 493 554 507 558 503 l 558 393 b 544 379 558 383 554 379 l 86 379 b 72 393 76 379 72 383 l 72 471 b 79 488 72 478 75 483 l 339 751 b 406 881 383 796 406 839 b 306 976 406 938 365 976 b 204 904 250 976 217 953 b 188 892 201 894 196 890 l 76 906 b 64 921 67 907 63 913 b 313 1106 85 1036 183 1106 b 547 890 453 1106 547 1022 b 447 675 547 815 514 743 "},"³":{"ha":639,"x_min":0,"x_max":0,"o":"m 389 819 b 581 604 506 804 581 721 b 506 435 581 536 556 479 b 317 368 457 390 393 368 b 61 569 179 368 76 449 b 72 585 60 578 63 583 l 183 607 b 200 594 193 608 199 604 b 318 494 207 533 256 494 b 438 608 386 494 438 538 b 324 718 438 675 390 714 b 249 719 303 719 278 719 l 244 719 b 229 732 236 719 231 724 l 210 803 b 215 822 208 810 210 817 l 364 968 l 113 968 b 99 982 103 968 99 972 l 99 1078 b 113 1092 99 1088 103 1092 l 531 1092 b 544 1078 540 1092 544 1088 l 544 983 b 538 967 544 976 542 971 "},"´":{"ha":406,"x_min":0,"x_max":0,"o":"m 182 963 b 163 964 175 957 168 957 l 136 992 b 136 1011 131 999 131 1004 l 318 1208 b 338 1210 325 1215 331 1217 l 397 1150 b 396 1129 404 1142 403 1135 "},"µ":{"ha":864,"x_min":0,"x_max":0,"o":"m 767 106 b 792 107 776 106 785 106 b 806 93 801 107 806 103 l 806 13 b 793 -3 806 4 801 -1 b 569 78 688 -29 599 4 b 394 -17 540 21 468 -17 b 235 71 318 -17 258 17 l 235 -287 b 221 -301 235 -297 231 -301 l 96 -301 b 82 -287 86 -301 82 -297 l 82 606 b 96 619 82 615 86 619 l 224 619 b 238 606 233 619 238 615 l 238 288 b 385 118 238 172 294 118 b 536 281 479 118 536 179 l 536 606 b 550 619 536 615 540 619 l 678 619 b 692 606 688 619 692 615 l 692 207 b 767 106 692 139 717 106 "},"¶":{"ha":797,"x_min":0,"x_max":0,"o":"m 783 890 b 797 876 793 890 797 886 l 797 825 b 783 811 797 815 793 811 l 690 811 l 690 -154 b 676 -168 690 -164 686 -168 l 621 -168 b 607 -154 611 -168 607 -164 l 607 811 l 476 811 l 476 -151 b 463 -165 476 -161 472 -165 l 358 -165 b 344 -151 349 -165 344 -161 l 344 453 l 256 453 b 33 672 117 453 33 540 b 256 890 33 801 117 890 "},"·":{"ha":471,"x_min":0,"x_max":0,"o":"m 236 243 b 140 282 199 243 167 256 b 100 375 114 308 100 340 b 236 511 100 449 163 511 b 371 375 308 511 371 447 b 331 282 371 340 357 308 b 236 243 304 256 272 243 "},"¸":{"ha":381,"x_min":0,"x_max":0,"o":"m 186 -78 b 279 -104 218 -74 249 -83 b 325 -201 310 -125 325 -158 b 279 -300 325 -243 310 -276 b 65 -312 218 -350 136 -342 b 56 -296 58 -308 56 -303 l 56 -243 b 71 -236 56 -231 61 -229 b 161 -253 96 -254 126 -260 b 215 -196 197 -246 215 -226 b 136 -135 215 -158 179 -131 b 118 -128 128 -135 122 -132 l 100 -106 b 99 -87 96 -101 96 -94 l 160 36 b 176 46 163 43 168 46 l 218 46 b 232 32 228 46 232 42 l 232 8 b 228 -10 232 1 231 -4 "},"¹":{"ha":483,"x_min":0,"x_max":0,"o":"m 64 847 b 47 857 53 840 47 844 l 47 957 b 57 974 47 964 50 969 l 238 1086 b 256 1092 244 1090 251 1092 l 358 1092 b 372 1078 368 1092 372 1088 l 372 393 b 358 379 372 383 368 379 l 244 379 b 231 393 235 379 231 383 l 231 940 "},"º":{"ha":621,"x_min":0,"x_max":0,"o":"m 310 965 b 506 890 390 965 456 940 b 581 703 556 842 581 779 b 506 515 581 626 556 564 b 310 442 456 467 390 442 b 115 515 231 442 165 467 b 42 703 67 564 42 626 b 117 890 42 779 67 842 b 310 965 167 940 231 965 m 310 549 b 458 703 397 549 458 614 b 310 857 458 792 399 857 b 165 703 225 857 165 792 b 310 549 165 614 225 549 "},"»":{"ha":725,"x_min":0,"x_max":0,"o":"m 197 565 b 214 556 204 565 210 563 l 349 319 b 349 300 353 313 353 307 l 214 63 b 197 53 210 56 204 53 l 57 53 b 47 69 44 53 40 58 l 183 310 l 47 549 b 57 565 40 560 44 565 m 475 565 b 492 556 482 565 488 563 l 625 319 b 625 300 629 314 629 307 l 492 63 b 475 53 488 56 482 53 l 336 53 b 326 69 324 53 319 58 l 461 310 l 326 549 b 336 565 319 560 324 565 "},"¼":{"ha":1326,"x_min":0,"x_max":0,"o":"m 939 1019 b 957 1024 943 1026 950 1028 l 1010 990 b 1014 972 1017 986 1018 979 l 285 -131 b 267 -135 281 -137 274 -139 l 214 -103 b 210 -83 207 -99 206 -92 m 218 285 b 204 299 208 285 204 289 l 204 804 l 46 717 b 29 726 35 710 29 714 l 29 824 b 39 840 29 831 32 836 l 211 947 b 229 953 218 951 225 953 l 329 953 b 343 939 339 953 343 949 l 343 299 b 329 285 343 289 339 285 m 1190 288 l 1286 288 b 1300 274 1296 288 1300 283 l 1300 186 b 1286 172 1300 176 1296 172 l 1190 172 l 1190 14 b 1176 0 1190 4 1186 0 l 1069 0 b 1056 14 1060 0 1056 4 l 1056 172 l 753 172 b 739 186 743 172 739 176 l 739 267 b 744 285 739 274 740 281 l 1007 660 b 1024 668 1011 665 1017 668 l 1176 668 b 1190 654 1186 668 1190 664 m 883 288 l 1056 288 l 1056 536 "},"½":{"ha":1365,"x_min":0,"x_max":0,"o":"m 939 1019 b 957 1024 943 1026 950 1028 l 1010 990 b 1014 972 1017 986 1018 979 l 285 -131 b 267 -135 281 -137 274 -139 l 214 -103 b 210 -83 207 -99 206 -92 m 218 285 b 204 299 208 285 204 289 l 204 804 l 46 717 b 29 726 35 710 29 714 l 29 824 b 39 840 29 831 32 836 l 211 947 b 229 953 218 951 225 953 l 329 953 b 343 939 339 953 343 949 l 343 299 b 329 285 343 289 339 285 m 1083 126 l 1318 126 b 1332 113 1328 126 1332 122 l 1332 14 b 1318 0 1332 4 1328 0 l 886 0 b 872 14 876 0 872 4 l 872 89 b 879 106 872 96 875 101 l 1124 351 b 1183 467 1164 393 1183 432 b 1092 554 1183 521 1147 554 b 1003 490 1043 554 1013 533 b 986 478 1000 481 994 476 l 878 492 b 865 507 868 493 864 499 b 1100 681 883 613 976 681 b 1322 478 1233 681 1322 601 b 1229 276 1322 407 1292 340 "},"¾":{"ha":1440,"x_min":0,"x_max":0,"o":"m 1053 1019 b 1071 1024 1057 1026 1064 1028 l 1124 990 b 1128 972 1131 986 1132 979 l 399 -131 b 381 -135 394 -137 388 -139 l 328 -103 b 324 -83 321 -99 319 -92 m 528 496 b 457 336 528 431 504 378 b 278 274 411 294 351 274 b 38 461 150 274 53 349 b 49 478 36 471 40 476 l 158 499 b 174 486 167 500 172 496 b 281 399 181 432 225 399 b 388 500 342 399 388 439 b 288 600 388 560 354 593 b 213 601 271 600 228 601 l 210 601 b 194 614 201 601 196 606 l 176 682 b 182 701 175 689 176 696 l 315 832 l 86 832 b 72 846 76 832 72 836 l 72 939 b 86 953 72 949 76 953 l 479 953 b 493 939 489 953 493 949 l 493 847 b 486 831 493 840 490 835 l 351 697 b 528 496 458 682 528 606 m 1304 288 l 1400 288 b 1414 274 1410 288 1414 283 l 1414 186 b 1400 172 1414 176 1410 172 l 1304 172 l 1304 14 b 1290 0 1304 4 1300 0 l 1183 0 b 1169 14 1174 0 1169 4 l 1169 172 l 867 172 b 853 186 857 172 853 176 l 853 267 b 858 285 853 274 854 281 l 1121 660 b 1138 668 1125 665 1131 668 l 1290 668 b 1304 654 1300 668 1304 664 m 997 288 l 1169 288 l 1169 536 "},"¿":{"ha":610,"x_min":0,"x_max":0,"o":"m 299 739 b 396 647 353 739 396 699 b 300 558 396 596 357 558 b 201 649 244 558 201 597 b 299 739 201 700 243 739 m 313 469 b 511 299 433 469 511 403 b 454 171 511 244 492 203 b 338 104 417 142 388 125 b 218 3 247 67 218 46 b 301 -69 218 -43 251 -69 b 396 0 356 -69 390 -43 b 411 13 397 10 403 14 l 522 -3 b 535 -18 532 -4 536 -10 b 299 -185 519 -118 428 -185 b 74 -1 164 -185 74 -112 b 253 194 74 97 136 146 l 282 207 b 335 231 310 218 314 219 b 372 293 361 249 368 263 b 304 356 372 332 347 356 b 226 285 258 356 231 325 b 211 271 226 274 221 269 l 111 285 b 97 297 101 286 97 290 b 313 469 107 401 190 469 "},"À":{"ha":950,"x_min":0,"x_max":0,"o":"m 513 1003 b 513 983 518 996 518 990 l 485 954 b 465 953 479 947 472 947 l 253 1119 b 251 1140 246 1125 244 1132 l 311 1200 b 331 1200 318 1207 325 1207 m 769 0 b 754 11 763 0 757 4 l 679 193 l 267 193 l 190 11 b 175 0 188 4 182 0 l 31 0 b 19 17 18 0 15 6 l 393 879 b 408 890 396 886 401 890 l 540 890 b 556 879 547 890 553 886 l 929 17 b 918 0 933 6 931 0 m 322 325 l 625 325 l 475 692 "},"Á":{"ha":950,"x_min":0,"x_max":0,"o":"m 700 1142 b 699 1121 707 1133 706 1126 l 485 954 b 465 956 478 949 472 949 l 439 983 b 439 1003 433 990 433 996 l 621 1200 b 640 1201 628 1207 633 1208 m 769 0 b 754 11 763 0 757 4 l 679 193 l 267 193 l 190 11 b 175 0 188 4 182 0 l 31 0 b 19 17 18 0 15 6 l 393 879 b 408 890 396 886 401 890 l 540 890 b 556 879 547 890 553 886 l 929 17 b 918 0 933 6 931 0 m 322 325 l 625 325 l 475 692 "},"Â":{"ha":950,"x_min":0,"x_max":0,"o":"m 475 1079 l 349 949 b 329 946 343 942 336 942 l 279 981 b 276 1000 272 986 272 993 l 399 1165 b 417 1174 403 1171 408 1174 l 533 1174 b 551 1165 542 1174 547 1171 l 674 1000 b 671 981 678 993 678 986 l 621 946 b 601 949 614 942 608 942 m 769 0 b 754 11 763 0 757 4 l 679 193 l 267 193 l 190 11 b 175 0 188 4 182 0 l 31 0 b 19 17 18 0 15 6 l 393 879 b 408 890 396 886 401 890 l 540 890 b 556 879 547 890 553 886 l 929 17 b 918 0 933 6 931 0 m 322 325 l 625 325 l 475 692 "},"Ã":{"ha":950,"x_min":0,"x_max":0,"o":"m 360 965 b 346 951 360 956 356 951 l 296 951 b 282 964 286 951 282 956 b 386 1125 269 1063 314 1125 b 476 1093 413 1125 442 1114 b 549 1063 511 1072 536 1063 b 589 1110 574 1063 588 1078 b 603 1124 589 1119 593 1124 l 653 1124 b 667 1111 663 1124 667 1119 b 560 958 679 1021 633 958 b 467 988 533 958 501 968 b 399 1018 432 1008 410 1018 b 360 965 372 1018 360 1000 m 769 0 b 754 11 763 0 757 4 l 679 193 l 267 193 l 190 11 b 175 0 188 4 182 0 l 31 0 b 19 17 18 0 15 6 l 393 879 b 408 890 396 886 401 890 l 540 890 b 556 879 547 890 553 886 l 929 17 b 918 0 933 6 931 0 m 322 325 l 625 325 l 475 692 "},"Ä":{"ha":950,"x_min":0,"x_max":0,"o":"m 346 943 b 264 1024 300 943 264 978 b 346 1107 264 1072 300 1107 b 429 1024 394 1107 429 1072 b 346 943 429 978 394 943 m 603 943 b 519 1024 554 943 519 978 b 603 1107 519 1072 554 1107 b 685 1024 649 1107 685 1072 b 603 943 685 978 649 943 m 769 0 b 754 11 763 0 757 4 l 679 193 l 267 193 l 190 11 b 175 0 188 4 182 0 l 31 0 b 19 17 18 0 15 6 l 393 879 b 408 890 396 886 401 890 l 540 890 b 556 879 547 890 553 886 l 929 17 b 918 0 933 6 931 0 m 322 325 l 625 325 l 475 692 "},"Å":{"ha":950,"x_min":0,"x_max":0,"o":"m 769 0 b 754 11 763 0 757 4 l 679 193 l 267 193 l 190 11 b 175 0 188 4 182 0 l 31 0 b 19 17 18 0 15 6 l 372 832 b 304 961 326 861 304 904 b 475 1122 304 1050 371 1122 b 597 1074 525 1122 565 1106 b 644 961 629 1042 644 1004 b 576 832 644 907 622 864 l 929 17 b 918 0 933 6 931 0 m 543 964 b 475 1033 543 1003 513 1033 b 407 964 438 1033 407 1004 b 543 964 400 872 550 872 m 322 325 l 625 325 l 475 692 "},"Æ":{"ha":1182,"x_min":0,"x_max":0,"o":"m 1111 750 b 1097 736 1111 740 1107 736 l 693 738 l 693 524 l 1054 522 b 1068 508 1064 522 1068 518 l 1068 389 b 1054 375 1068 379 1064 375 l 693 376 l 693 153 l 1097 153 b 1111 139 1107 153 1111 149 l 1111 14 b 1097 0 1111 4 1107 0 l 693 1 l 693 0 l 553 0 b 539 14 543 0 539 4 l 539 217 l 281 217 l 201 11 b 186 0 199 4 193 0 l 32 0 b 21 17 19 0 17 6 l 372 879 b 388 890 375 886 381 890 l 1097 890 b 1111 876 1107 890 1111 886 m 539 356 l 539 738 l 482 738 l 335 356 "},"Ç":{"ha":975,"x_min":0,"x_max":0,"o":"m 506 128 b 760 282 628 128 726 189 b 778 290 763 290 768 293 l 911 247 b 919 229 921 244 924 239 b 525 -18 863 81 713 -12 l 493 -71 b 586 -97 525 -67 556 -76 b 632 -194 617 -118 632 -151 b 586 -293 632 -236 617 -269 b 372 -306 525 -343 443 -335 b 363 -289 365 -301 363 -296 l 363 -236 b 378 -229 363 -224 368 -222 b 468 -246 403 -247 433 -253 b 522 -189 504 -239 522 -219 b 443 -128 522 -151 486 -124 b 425 -121 435 -128 429 -125 l 407 -99 b 406 -81 403 -94 403 -87 l 439 -14 b 156 132 321 1 226 50 b 50 446 85 215 50 319 b 176 781 50 583 92 696 b 508 908 261 865 371 908 b 919 663 703 908 860 814 b 911 644 924 653 921 647 l 778 600 b 760 610 768 597 763 600 b 506 763 726 700 628 763 b 294 675 418 763 347 733 b 215 446 242 618 215 542 b 294 214 215 350 242 272 b 506 128 347 157 418 128 "},"È":{"ha":739,"x_min":0,"x_max":0,"o":"m 418 1003 b 418 983 424 996 424 990 l 390 954 b 371 953 385 947 378 947 l 158 1119 b 157 1140 151 1125 150 1132 l 217 1200 b 236 1200 224 1207 231 1207 m 668 760 b 654 746 668 750 664 746 l 257 746 l 257 517 l 611 517 b 625 503 621 517 625 513 l 625 394 b 611 381 625 385 621 381 l 257 381 l 257 143 l 654 143 b 668 129 664 143 668 139 l 668 14 b 654 0 668 4 664 0 l 114 0 b 100 14 104 0 100 4 l 100 876 b 114 890 100 886 104 890 l 654 890 b 668 876 664 890 668 886 "},"É":{"ha":739,"x_min":0,"x_max":0,"o":"m 606 1142 b 604 1121 613 1133 611 1126 l 390 954 b 371 956 383 949 378 949 l 344 983 b 344 1003 339 990 339 996 l 526 1200 b 546 1201 533 1207 539 1208 m 668 760 b 654 746 668 750 664 746 l 257 746 l 257 517 l 611 517 b 625 503 621 517 625 513 l 625 394 b 611 381 625 385 621 381 l 257 381 l 257 143 l 654 143 b 668 129 664 143 668 139 l 668 14 b 654 0 668 4 664 0 l 114 0 b 100 14 104 0 100 4 l 100 876 b 114 890 100 886 104 890 l 654 890 b 668 876 664 890 668 886 "},"Ê":{"ha":739,"x_min":0,"x_max":0,"o":"m 381 1079 l 254 949 b 235 946 247 942 242 942 l 185 981 b 182 1000 178 986 178 993 l 304 1165 b 322 1174 308 1171 314 1174 l 439 1174 b 457 1165 447 1174 453 1171 l 579 1000 b 576 981 583 993 583 986 l 526 946 b 507 949 519 942 514 942 m 668 760 b 654 746 668 750 664 746 l 257 746 l 257 517 l 611 517 b 625 503 621 517 625 513 l 625 394 b 611 381 625 385 621 381 l 257 381 l 257 143 l 654 143 b 668 129 664 143 668 139 l 668 14 b 654 0 668 4 664 0 l 114 0 b 100 14 104 0 100 4 l 100 876 b 114 890 100 886 104 890 l 654 890 b 668 876 664 890 668 886 "},"Ë":{"ha":739,"x_min":0,"x_max":0,"o":"m 253 943 b 171 1024 207 943 171 978 b 253 1107 171 1072 207 1107 b 336 1024 301 1107 336 1072 b 253 943 336 978 301 943 m 510 943 b 426 1024 461 943 426 978 b 510 1107 426 1072 461 1107 b 592 1024 556 1107 592 1072 b 510 943 592 978 556 943 m 668 760 b 654 746 668 750 664 746 l 257 746 l 257 517 l 611 517 b 625 503 621 517 625 513 l 625 394 b 611 381 625 385 621 381 l 257 381 l 257 143 l 654 143 b 668 129 664 143 668 139 l 668 14 b 654 0 668 4 664 0 l 114 0 b 100 14 104 0 100 4 l 100 876 b 114 890 100 886 104 890 l 654 890 b 668 876 664 890 668 886 "},"Ì":{"ha":358,"x_min":0,"x_max":0,"o":"m 188 954 b 168 953 182 947 175 947 l -44 1119 b -46 1140 -51 1125 -53 1132 l 14 1200 b 33 1200 21 1207 28 1207 l 215 1003 b 215 983 221 996 221 990 m 257 14 b 243 0 257 4 253 0 l 114 0 b 100 14 104 0 100 4 l 100 876 b 114 890 100 886 104 890 l 243 890 b 257 876 253 890 257 886 "},"Í":{"ha":358,"x_min":0,"x_max":0,"o":"m 189 954 b 169 956 182 949 175 949 l 143 983 b 143 1003 138 990 138 996 l 325 1200 b 344 1201 332 1207 338 1208 l 404 1142 b 403 1121 411 1133 410 1126 m 257 14 b 243 0 257 4 253 0 l 114 0 b 100 14 104 0 100 4 l 100 876 b 114 890 100 886 104 890 l 243 890 b 257 876 253 890 257 886 "},"Î":{"ha":358,"x_min":0,"x_max":0,"o":"m -17 981 b -19 1000 -24 986 -24 993 l 103 1165 b 121 1174 107 1171 113 1174 l 238 1174 b 256 1165 246 1174 251 1171 l 378 1000 b 375 981 382 993 382 986 l 325 946 b 306 949 318 942 313 942 l 179 1079 l 53 949 b 33 946 46 942 40 942 m 257 14 b 243 0 257 4 253 0 l 114 0 b 100 14 104 0 100 4 l 100 876 b 114 890 100 886 104 890 l 243 890 b 257 876 253 890 257 886 "},"Ï":{"ha":358,"x_min":0,"x_max":0,"o":"m 50 943 b -32 1024 4 943 -32 978 b 50 1107 -32 1072 4 1107 b 133 1024 99 1107 133 1072 b 50 943 133 978 99 943 m 307 943 b 224 1024 258 943 224 978 b 307 1107 224 1072 258 1107 b 389 1024 353 1107 389 1072 b 307 943 389 978 353 943 m 257 14 b 243 0 257 4 253 0 l 114 0 b 100 14 104 0 100 4 l 100 876 b 114 890 100 886 104 890 l 243 890 b 257 876 253 890 257 886 "},"Ð":{"ha":999,"x_min":0,"x_max":0,"o":"m 454 890 b 776 764 586 890 693 849 b 903 443 861 681 903 574 b 778 124 903 313 861 206 b 454 0 694 42 586 0 l 142 0 b 128 14 132 0 128 4 l 128 388 l 46 388 b 32 401 36 388 32 392 l 32 488 b 46 501 32 497 36 501 l 128 501 l 128 876 b 142 890 128 886 132 890 m 442 143 b 656 225 531 143 601 171 b 736 443 710 281 736 353 b 656 663 736 533 710 607 b 442 747 601 719 531 747 l 285 747 l 285 501 l 449 501 b 463 488 458 501 463 497 l 463 401 b 449 388 463 392 458 388 l 285 388 l 285 143 "},"Ñ":{"ha":911,"x_min":0,"x_max":0,"o":"m 350 982 b 336 968 350 972 346 968 l 286 968 b 272 981 276 968 272 972 b 376 1142 260 1079 304 1142 b 467 1110 403 1142 432 1131 b 539 1079 501 1089 526 1079 b 579 1126 564 1079 578 1094 b 593 1140 579 1136 583 1140 l 643 1140 b 657 1128 653 1140 657 1136 b 550 975 669 1038 624 975 b 457 1004 524 975 492 985 b 389 1035 422 1025 400 1035 b 350 982 363 1035 350 1017 m 664 876 b 678 890 664 886 668 890 l 806 890 b 819 876 815 890 819 886 l 819 14 b 806 0 819 4 815 0 l 682 0 b 665 8 675 0 669 3 l 257 617 l 257 14 b 243 0 257 4 253 0 l 114 0 b 100 14 104 0 100 4 l 100 876 b 114 890 100 886 104 890 l 239 890 b 256 882 246 890 251 888 l 664 269 "},"Ò":{"ha":1036,"x_min":0,"x_max":0,"o":"m 528 972 b 508 971 522 965 515 965 l 296 1138 b 294 1158 289 1143 288 1150 l 354 1218 b 374 1218 361 1225 368 1225 l 556 1021 b 556 1001 561 1014 561 1008 m 986 446 b 853 111 986 310 942 199 b 518 -18 764 25 653 -18 b 182 111 383 -18 271 25 b 50 444 94 197 50 308 b 182 778 50 581 94 692 b 518 908 269 865 382 908 b 853 778 653 908 764 865 b 986 446 942 692 986 581 m 819 446 b 735 672 819 539 792 614 b 519 761 678 732 607 761 b 301 672 432 761 358 732 b 215 444 244 614 215 538 b 300 217 215 351 243 275 b 518 129 357 158 431 129 b 733 217 606 129 676 158 b 819 446 790 276 819 353 "},"Ó":{"ha":1036,"x_min":0,"x_max":0,"o":"m 528 972 b 508 974 521 967 514 967 l 482 1001 b 482 1021 476 1008 476 1014 l 664 1218 b 683 1219 671 1225 676 1226 l 743 1160 b 742 1139 750 1151 749 1144 m 986 446 b 853 111 986 310 942 199 b 518 -18 764 25 653 -18 b 182 111 383 -18 271 25 b 50 444 94 197 50 308 b 182 778 50 581 94 692 b 518 908 269 865 382 908 b 853 778 653 908 764 865 b 986 446 942 692 986 581 m 819 446 b 735 672 819 539 792 614 b 519 761 678 732 607 761 b 301 672 432 761 358 732 b 215 444 244 614 215 538 b 300 217 215 351 243 275 b 518 129 357 158 431 129 b 733 217 606 129 676 158 b 819 446 790 276 819 353 "},"Ô":{"ha":1036,"x_min":0,"x_max":0,"o":"m 322 999 b 319 1018 315 1004 315 1011 l 442 1183 b 460 1192 446 1189 451 1192 l 576 1192 b 594 1183 585 1192 590 1189 l 717 1018 b 714 999 721 1011 721 1004 l 664 964 b 644 967 657 960 651 960 l 518 1097 l 392 967 b 372 964 385 960 379 960 m 986 446 b 853 111 986 310 942 199 b 518 -18 764 25 653 -18 b 182 111 383 -18 271 25 b 50 444 94 197 50 308 b 182 778 50 581 94 692 b 518 908 269 865 382 908 b 853 778 653 908 764 865 b 986 446 942 692 986 581 m 819 446 b 735 672 819 539 792 614 b 519 761 678 732 607 761 b 301 672 432 761 358 732 b 215 444 244 614 215 538 b 300 217 215 351 243 275 b 518 129 357 158 431 129 b 733 217 606 129 676 158 b 819 446 790 276 819 353 "},"Õ":{"ha":1036,"x_min":0,"x_max":0,"o":"m 339 969 b 325 982 329 969 325 974 b 429 1143 313 1081 357 1143 b 519 1111 456 1143 485 1132 b 592 1081 554 1090 579 1081 b 632 1128 617 1081 631 1096 b 646 1142 632 1138 636 1142 l 696 1142 b 710 1129 706 1142 710 1138 b 603 976 722 1039 676 976 b 510 1006 576 976 544 986 b 442 1036 475 1026 453 1036 b 403 983 415 1036 403 1018 b 389 969 403 974 399 969 m 986 446 b 853 111 986 310 942 199 b 518 -18 764 25 653 -18 b 182 111 383 -18 271 25 b 50 444 94 197 50 308 b 182 778 50 581 94 692 b 518 908 269 865 382 908 b 853 778 653 908 764 865 b 986 446 942 692 986 581 m 819 446 b 735 672 819 539 792 614 b 519 761 678 732 607 761 b 301 672 432 761 358 732 b 215 444 244 614 215 538 b 300 217 215 351 243 275 b 518 129 357 158 431 129 b 733 217 606 129 676 158 b 819 446 790 276 819 353 "},"Ö":{"ha":1036,"x_min":0,"x_max":0,"o":"m 390 961 b 308 1042 344 961 308 996 b 390 1125 308 1090 344 1125 b 474 1042 439 1125 474 1090 b 390 961 474 996 439 961 m 647 961 b 564 1042 599 961 564 996 b 647 1125 564 1090 599 1125 b 729 1042 693 1125 729 1090 b 647 961 729 996 693 961 m 986 446 b 853 111 986 310 942 199 b 518 -18 764 25 653 -18 b 182 111 383 -18 271 25 b 50 444 94 197 50 308 b 182 778 50 581 94 692 b 518 908 269 865 382 908 b 853 778 653 908 764 865 b 986 446 942 692 986 581 m 819 446 b 735 672 819 539 792 614 b 519 761 678 732 607 761 b 301 672 432 761 358 732 b 215 444 244 614 215 538 b 300 217 215 351 243 275 b 518 129 357 158 431 129 b 733 217 606 129 676 158 b 819 446 790 276 819 353 "},"×":{"ha":801,"x_min":0,"x_max":0,"o":"m 163 249 b 163 268 156 256 156 261 l 317 424 l 164 575 b 164 594 157 582 157 588 l 228 660 b 247 660 235 667 240 667 l 401 507 l 554 661 b 574 661 561 668 567 668 l 639 594 b 639 575 646 588 646 582 l 486 422 l 639 268 b 639 249 646 261 646 256 l 575 185 b 556 185 568 178 563 178 l 403 339 l 247 183 b 228 183 240 176 235 176 "},"Ø":{"ha":1036,"x_min":0,"x_max":0,"o":"m 518 910 b 853 779 653 910 764 867 b 986 446 942 693 986 582 b 853 113 986 310 942 199 b 518 -17 764 26 653 -17 b 182 113 383 -17 271 26 b 50 446 94 199 50 310 b 182 779 50 581 94 692 b 518 910 269 867 382 910 m 519 763 b 301 674 432 763 358 733 b 215 446 244 615 215 539 b 231 342 215 410 221 375 l 736 672 b 519 763 679 732 607 763 m 518 129 b 733 217 606 129 676 158 b 819 446 790 276 819 353 b 803 560 819 488 814 525 l 296 222 b 518 129 353 160 428 129 "},"Ù":{"ha":921,"x_min":0,"x_max":0,"o":"m 471 954 b 451 953 465 947 458 947 l 239 1119 b 238 1140 232 1125 231 1132 l 297 1200 b 317 1200 304 1207 311 1207 l 499 1003 b 499 983 504 996 504 990 m 93 876 b 107 890 93 886 97 890 l 236 890 b 250 876 246 890 250 886 l 250 325 b 460 126 251 186 338 126 b 671 325 588 126 671 196 l 671 876 b 685 890 671 886 675 890 l 814 890 b 828 876 824 890 828 886 l 828 319 b 725 69 828 211 793 128 b 460 -18 657 11 568 -18 b 194 69 351 -18 263 11 b 93 319 126 128 93 211 "},"Ú":{"ha":921,"x_min":0,"x_max":0,"o":"m 471 954 b 451 956 464 949 457 949 l 425 983 b 425 1003 419 990 419 996 l 607 1200 b 626 1201 614 1207 619 1208 l 686 1142 b 685 1121 693 1133 692 1126 m 93 876 b 107 890 93 886 97 890 l 236 890 b 250 876 246 890 250 886 l 250 325 b 460 126 251 186 338 126 b 671 325 588 126 671 196 l 671 876 b 685 890 671 886 675 890 l 814 890 b 828 876 824 890 828 886 l 828 319 b 725 69 828 211 793 128 b 460 -18 657 11 568 -18 b 194 69 351 -18 263 11 b 93 319 126 128 93 211 "},"Û":{"ha":921,"x_min":0,"x_max":0,"o":"m 265 981 b 263 1000 258 986 258 993 l 385 1165 b 403 1174 389 1171 394 1174 l 519 1174 b 538 1165 528 1174 533 1171 l 660 1000 b 657 981 664 993 664 986 l 607 946 b 588 949 600 942 594 942 l 461 1079 l 335 949 b 315 946 328 942 322 942 m 93 876 b 107 890 93 886 97 890 l 236 890 b 250 876 246 890 250 886 l 250 325 b 460 126 251 186 338 126 b 671 325 588 126 671 196 l 671 876 b 685 890 671 886 675 890 l 814 890 b 828 876 824 890 828 886 l 828 319 b 725 69 828 211 793 128 b 460 -18 657 11 568 -18 b 194 69 351 -18 263 11 b 93 319 126 128 93 211 "},"Ü":{"ha":921,"x_min":0,"x_max":0,"o":"m 333 943 b 251 1024 288 943 251 978 b 333 1107 251 1072 288 1107 b 417 1024 382 1107 417 1072 b 333 943 417 978 382 943 m 590 943 b 507 1024 542 943 507 978 b 590 1107 507 1072 542 1107 b 672 1024 636 1107 672 1072 b 590 943 672 978 636 943 m 93 876 b 107 890 93 886 97 890 l 236 890 b 250 876 246 890 250 886 l 250 325 b 460 126 251 186 338 126 b 671 325 588 126 671 196 l 671 876 b 685 890 671 886 675 890 l 814 890 b 828 876 824 890 828 886 l 828 319 b 725 69 828 211 793 128 b 460 -18 657 11 568 -18 b 194 69 351 -18 263 11 b 93 319 126 128 93 211 "},"Ý":{"ha":847,"x_min":0,"x_max":0,"o":"m 438 953 b 418 954 431 947 424 947 l 392 982 b 392 1001 386 989 386 994 l 574 1199 b 593 1200 581 1206 586 1207 l 653 1140 b 651 1119 660 1132 658 1125 m 8 874 b 17 890 1 885 4 890 l 169 890 b 186 881 176 890 182 888 l 426 511 l 667 881 b 683 890 671 888 676 890 l 831 890 b 839 874 843 890 846 885 l 504 358 l 504 14 b 490 0 504 4 500 0 l 360 0 b 346 14 350 0 346 4 l 346 358 "},"Þ":{"ha":804,"x_min":0,"x_max":0,"o":"m 465 743 b 767 442 653 743 767 626 b 685 224 767 353 739 281 b 463 140 631 168 556 140 l 263 140 l 263 14 b 249 0 263 4 258 0 l 114 0 b 100 14 104 0 100 4 l 100 876 b 114 890 100 886 104 890 l 249 890 b 263 876 258 890 263 886 l 263 743 m 432 282 b 596 446 542 282 596 351 b 436 597 596 531 540 597 l 263 597 l 263 282 "},"ß":{"ha":739,"x_min":0,"x_max":0,"o":"m 100 0 b 86 14 90 0 86 4 l 86 607 b 169 828 86 700 114 774 b 392 908 225 882 299 908 b 647 696 549 908 647 825 b 560 531 647 636 618 582 l 500 482 b 451 415 468 458 451 436 b 538 344 451 386 475 374 b 682 163 632 296 682 247 b 476 -18 682 53 594 -18 b 289 133 367 -18 294 40 b 301 149 289 143 293 147 l 388 168 b 403 156 397 171 401 167 b 474 93 404 118 431 93 b 547 157 517 93 547 118 b 463 244 547 200 519 221 b 343 311 401 272 361 294 b 301 406 315 338 301 368 b 375 538 301 449 326 492 l 433 585 b 463 611 449 597 458 607 b 490 681 472 621 490 651 b 379 776 490 738 446 776 b 236 614 290 776 236 710 l 236 14 b 222 0 236 4 232 0 "},"à":{"ha":789,"x_min":0,"x_max":0,"o":"m 383 751 b 383 732 389 744 389 739 l 356 703 b 336 701 350 696 343 696 l 124 868 b 122 889 117 874 115 881 l 182 949 b 201 949 189 956 196 956 m 558 606 b 572 619 558 615 563 619 l 699 619 b 713 606 708 619 713 615 l 713 14 b 699 0 713 4 708 0 l 572 0 b 558 14 563 0 558 4 l 558 61 b 358 -18 513 8 446 -18 b 135 72 267 -18 192 13 b 50 310 78 132 50 211 b 135 549 50 408 78 489 b 358 639 192 608 267 639 b 558 561 446 639 513 613 m 392 122 b 558 211 464 122 531 157 l 558 410 b 392 500 529 465 464 500 b 208 311 282 500 208 424 b 392 122 208 199 282 122 "},"á":{"ha":789,"x_min":0,"x_max":0,"o":"m 571 889 b 569 868 578 881 576 874 l 357 701 b 336 703 349 694 342 696 l 310 732 b 310 751 304 739 304 744 l 492 949 b 511 949 497 956 504 956 m 558 606 b 572 619 558 615 563 619 l 699 619 b 713 606 708 619 713 615 l 713 14 b 699 0 713 4 708 0 l 572 0 b 558 14 563 0 558 4 l 558 61 b 358 -18 513 8 446 -18 b 135 72 267 -18 192 13 b 50 310 78 132 50 211 b 135 549 50 408 78 489 b 358 639 192 608 267 639 b 558 561 446 639 513 613 m 392 122 b 558 211 464 122 531 157 l 558 410 b 392 500 529 465 464 500 b 208 311 282 500 208 424 b 392 122 208 199 282 122 "},"â":{"ha":789,"x_min":0,"x_max":0,"o":"m 346 828 l 219 697 b 200 694 213 692 207 690 l 150 729 b 147 749 143 735 143 742 l 269 914 b 288 922 274 919 279 922 l 403 922 b 421 914 411 922 417 919 l 544 749 b 542 729 549 742 549 735 l 492 694 b 472 697 485 690 479 690 m 558 606 b 572 619 558 615 563 619 l 699 619 b 713 606 708 619 713 615 l 713 14 b 699 0 713 4 708 0 l 572 0 b 558 14 563 0 558 4 l 558 61 b 358 -18 513 8 446 -18 b 135 72 267 -18 192 13 b 50 310 78 132 50 211 b 135 549 50 408 78 489 b 358 639 192 608 267 639 b 558 561 446 639 513 613 m 392 122 b 558 211 464 122 531 157 l 558 410 b 392 500 529 465 464 500 b 208 311 282 500 208 424 b 392 122 208 199 282 122 "},"ã":{"ha":789,"x_min":0,"x_max":0,"o":"m 231 714 b 217 700 231 704 226 700 l 167 700 b 153 713 157 700 153 704 b 257 874 140 811 185 874 b 347 842 283 874 313 863 b 419 811 382 821 407 811 b 460 858 444 811 458 826 b 474 872 460 868 464 872 l 524 872 b 538 860 533 872 538 868 b 431 707 550 769 504 707 b 338 736 404 707 372 717 b 269 767 303 757 281 767 b 231 714 243 767 231 749 m 558 606 b 572 619 558 615 563 619 l 699 619 b 713 606 708 619 713 615 l 713 14 b 699 0 713 4 708 0 l 572 0 b 558 14 563 0 558 4 l 558 61 b 358 -18 513 8 446 -18 b 135 72 267 -18 192 13 b 50 310 78 132 50 211 b 135 549 50 408 78 489 b 358 639 192 608 267 639 b 558 561 446 639 513 613 m 392 122 b 558 211 464 122 531 157 l 558 410 b 392 500 529 465 464 500 b 208 311 282 500 208 424 b 392 122 208 199 282 122 "},"ä":{"ha":789,"x_min":0,"x_max":0,"o":"m 218 697 b 136 778 172 697 136 732 b 218 861 136 826 172 861 b 301 778 267 861 301 826 b 218 697 301 732 267 697 m 475 697 b 392 778 426 697 392 732 b 475 861 392 826 426 861 b 557 778 521 861 557 826 b 475 697 557 732 521 697 m 558 606 b 572 619 558 615 563 619 l 699 619 b 713 606 708 619 713 615 l 713 14 b 699 0 713 4 708 0 l 572 0 b 558 14 563 0 558 4 l 558 61 b 358 -18 513 8 446 -18 b 135 72 267 -18 192 13 b 50 310 78 132 50 211 b 135 549 50 408 78 489 b 358 639 192 608 267 639 b 558 561 446 639 513 613 m 392 122 b 558 211 464 122 531 157 l 558 410 b 392 500 529 465 464 500 b 208 311 282 500 208 424 b 392 122 208 199 282 122 "},"å":{"ha":789,"x_min":0,"x_max":0,"o":"m 346 672 b 175 832 242 672 175 744 b 346 993 175 921 242 993 b 468 944 396 993 436 976 b 515 832 500 913 515 875 b 346 672 515 744 447 672 m 346 904 b 278 835 307 904 278 874 b 414 835 271 743 421 743 b 346 904 414 874 383 904 m 558 606 b 572 619 558 615 563 619 l 699 619 b 713 606 708 619 713 615 l 713 14 b 699 0 713 4 708 0 l 572 0 b 558 14 563 0 558 4 l 558 61 b 358 -18 513 8 446 -18 b 135 72 267 -18 192 13 b 50 310 78 132 50 211 b 135 549 50 408 78 489 b 358 639 192 608 267 639 b 558 561 446 639 513 613 m 392 122 b 558 211 464 122 531 157 l 558 410 b 392 500 529 465 464 500 b 208 311 282 500 208 424 b 392 122 208 199 282 122 "},"æ":{"ha":1254,"x_min":0,"x_max":0,"o":"m 1206 347 b 1201 288 1206 324 1204 304 b 1186 275 1200 279 1196 275 l 740 275 b 922 110 742 174 815 110 b 1099 188 1000 111 1058 138 b 1118 189 1104 196 1111 196 l 1186 122 b 1189 103 1193 115 1193 110 b 914 -18 1132 29 1031 -18 b 696 53 826 -18 753 6 l 696 14 b 682 0 696 4 692 0 l 572 0 b 558 14 563 0 558 4 l 558 61 b 358 -18 513 8 446 -18 b 135 72 267 -18 192 13 b 50 310 78 132 50 211 b 135 549 50 408 78 489 b 358 639 192 608 267 639 b 558 561 446 639 513 613 l 558 606 b 572 619 558 615 563 619 l 682 619 b 696 606 692 619 696 615 l 696 569 b 906 639 753 615 822 639 b 1122 558 996 639 1068 613 b 1206 347 1178 504 1206 435 m 1051 379 b 900 511 1050 458 990 511 b 742 379 811 511 751 461 m 392 122 b 558 211 464 122 531 157 l 558 410 b 392 500 529 465 464 500 b 208 311 282 500 208 424 b 392 122 208 199 282 122 "},"ç":{"ha":717,"x_min":0,"x_max":0,"o":"m 376 119 b 521 201 444 119 499 151 b 539 210 525 210 531 213 l 657 172 b 667 154 667 169 669 164 b 417 -17 629 58 535 -6 l 385 -68 b 478 -94 417 -64 447 -74 b 524 -192 508 -115 524 -149 b 478 -290 524 -233 508 -267 b 264 -303 417 -340 335 -332 b 254 -286 257 -299 254 -293 l 254 -233 b 269 -226 254 -221 260 -219 b 360 -243 294 -244 325 -250 b 414 -186 396 -236 414 -217 b 335 -125 414 -149 378 -121 b 317 -118 326 -125 321 -122 l 299 -96 b 297 -78 294 -92 294 -85 l 328 -15 b 50 310 160 6 50 132 b 140 547 50 408 81 488 b 379 638 201 607 281 638 b 667 465 514 638 626 571 b 657 447 669 456 667 450 l 539 410 b 521 418 531 407 525 410 b 376 500 499 468 444 500 b 208 310 275 500 208 425 b 376 119 208 194 275 119 "},"è":{"ha":718,"x_min":0,"x_max":0,"o":"m 378 703 b 358 701 372 696 365 696 l 146 868 b 144 889 139 874 138 881 l 204 949 b 224 949 211 956 218 956 l 406 751 b 406 732 411 744 411 739 m 50 313 b 138 549 50 411 79 489 b 369 639 197 608 274 639 b 586 558 460 639 532 613 b 669 347 642 504 669 435 b 665 285 669 324 668 303 b 650 272 664 276 660 272 l 204 272 b 386 110 206 172 281 110 b 563 188 464 111 522 138 b 582 189 568 196 575 196 l 650 122 b 653 103 657 115 657 110 b 378 -18 596 29 494 -18 b 139 72 278 -18 199 13 b 50 313 79 132 50 213 m 515 379 b 364 511 514 458 454 511 b 206 379 275 511 215 461 "},"é":{"ha":718,"x_min":0,"x_max":0,"o":"m 379 703 b 360 704 372 697 365 697 l 333 732 b 333 751 328 739 328 744 l 515 949 b 535 950 522 956 528 957 l 594 890 b 593 869 601 882 600 875 m 50 313 b 138 549 50 411 79 489 b 369 639 197 608 274 639 b 586 558 460 639 532 613 b 669 347 642 504 669 435 b 665 285 669 324 668 303 b 650 272 664 276 660 272 l 204 272 b 386 110 206 172 281 110 b 563 188 464 111 522 138 b 582 189 568 196 575 196 l 650 122 b 653 103 657 115 657 110 b 378 -18 596 29 494 -18 b 139 72 278 -18 199 13 b 50 313 79 132 50 213 m 515 379 b 364 511 514 458 454 511 b 206 379 275 511 215 461 "},"ê":{"ha":718,"x_min":0,"x_max":0,"o":"m 172 729 b 169 749 165 735 165 742 l 292 914 b 310 922 296 919 301 922 l 426 922 b 444 914 435 922 440 919 l 567 749 b 564 729 571 742 571 735 l 514 694 b 494 697 507 690 501 690 l 368 828 l 242 697 b 222 694 235 690 229 690 m 50 313 b 138 549 50 411 79 489 b 369 639 197 608 274 639 b 586 558 460 639 532 613 b 669 347 642 504 669 435 b 665 285 669 324 668 303 b 650 272 664 276 660 272 l 204 272 b 386 110 206 172 281 110 b 563 188 464 111 522 138 b 582 189 568 196 575 196 l 650 122 b 653 103 657 115 657 110 b 378 -18 596 29 494 -18 b 139 72 278 -18 199 13 b 50 313 79 132 50 213 m 515 379 b 364 511 514 458 454 511 b 206 379 275 511 215 461 "},"ë":{"ha":718,"x_min":0,"x_max":0,"o":"m 240 697 b 158 778 194 697 158 732 b 240 861 158 826 194 861 b 324 778 289 861 324 826 b 240 697 324 732 289 697 m 497 697 b 414 778 449 697 414 732 b 497 861 414 826 449 861 b 579 778 543 861 579 826 b 497 697 579 732 543 697 m 50 313 b 138 549 50 411 79 489 b 369 639 197 608 274 639 b 586 558 460 639 532 613 b 669 347 642 504 669 435 b 665 285 669 324 668 303 b 650 272 664 276 660 272 l 204 272 b 386 110 206 172 281 110 b 563 188 464 111 522 138 b 582 189 568 196 575 196 l 650 122 b 653 103 657 115 657 110 b 378 -18 596 29 494 -18 b 139 72 278 -18 199 13 b 50 313 79 132 50 213 m 515 379 b 364 511 514 458 454 511 b 206 379 275 511 215 461 "},"ì":{"ha":328,"x_min":0,"x_max":0,"o":"m 174 708 b 154 707 168 701 161 701 l -58 874 b -60 894 -65 879 -67 886 l 0 954 b 19 954 7 961 14 961 l 201 757 b 201 738 207 750 207 744 m 86 606 b 100 619 86 615 90 619 l 228 619 b 242 606 238 619 242 615 l 242 14 b 228 0 242 4 238 0 l 100 0 b 86 14 90 0 86 4 "},"í":{"ha":328,"x_min":0,"x_max":0,"o":"m 174 708 b 154 710 167 703 160 703 l 128 738 b 128 757 122 744 122 750 l 310 954 b 329 956 317 961 322 963 l 389 896 b 388 875 396 888 394 881 m 86 606 b 100 619 86 615 90 619 l 228 619 b 242 606 238 619 242 615 l 242 14 b 228 0 242 4 238 0 l 100 0 b 86 14 90 0 86 4 "},"î":{"ha":328,"x_min":0,"x_max":0,"o":"m -32 735 b -35 754 -39 740 -39 747 l 88 919 b 106 928 92 925 97 928 l 222 928 b 240 919 231 928 236 925 l 363 754 b 360 735 367 747 367 740 l 310 700 b 290 703 303 696 297 696 l 164 833 l 38 703 b 18 700 31 696 25 696 m 86 606 b 100 619 86 615 90 619 l 228 619 b 242 606 238 619 242 615 l 242 14 b 228 0 242 4 238 0 l 100 0 b 86 14 90 0 86 4 "},"ï":{"ha":328,"x_min":0,"x_max":0,"o":"m 36 699 b -46 779 -10 699 -46 733 b 36 863 -46 828 -10 863 b 119 779 85 863 119 828 b 36 699 119 733 85 699 m 293 699 b 210 779 244 699 210 733 b 293 863 210 828 244 863 b 375 779 339 863 375 828 b 293 699 375 733 339 699 m 86 606 b 100 619 86 615 90 619 l 228 619 b 242 606 238 619 242 615 l 242 14 b 228 0 242 4 238 0 l 100 0 b 86 14 90 0 86 4 "},"ð":{"ha":757,"x_min":0,"x_max":0,"o":"m 561 615 l 594 576 l 614 553 b 651 499 632 531 636 525 b 707 306 685 449 707 385 b 615 71 707 208 676 131 b 374 -18 554 11 474 -18 b 138 67 275 -18 196 10 b 50 288 79 124 50 197 b 138 504 50 376 79 449 b 363 588 197 560 272 588 b 393 586 376 588 386 588 l 306 685 l 165 619 b 147 626 158 615 151 618 l 115 694 b 122 713 111 701 114 708 l 235 765 l 139 874 b 146 890 132 883 135 890 l 307 890 b 324 882 314 890 319 888 l 372 828 l 496 886 b 514 879 506 890 511 889 l 543 811 b 536 793 546 804 543 797 l 442 749 m 551 297 b 494 461 551 351 532 406 b 382 476 463 474 425 478 b 207 294 276 475 207 401 b 379 119 207 190 278 119 b 551 297 481 119 551 192 "},"ñ":{"ha":763,"x_min":0,"x_max":0,"o":"m 258 714 b 244 700 258 704 254 700 l 194 700 b 181 713 185 700 181 704 b 285 874 168 811 213 874 b 375 842 311 874 340 863 b 447 811 410 821 435 811 b 488 858 472 811 486 826 b 501 872 488 868 492 872 l 551 872 b 565 860 561 872 565 868 b 458 707 578 769 532 707 b 365 736 432 707 400 717 b 297 767 331 757 308 767 b 258 714 271 767 258 749 m 429 639 b 686 375 585 639 686 540 l 686 14 b 672 0 686 4 682 0 l 544 0 b 531 14 535 0 531 4 l 531 351 b 388 499 531 450 483 499 b 240 422 321 499 272 474 l 240 14 b 226 0 240 4 236 0 l 100 0 b 86 14 90 0 86 4 l 86 606 b 100 619 86 615 90 619 l 226 619 b 240 606 236 619 240 615 l 240 569 b 429 639 289 615 353 639 "},"ò":{"ha":776,"x_min":0,"x_max":0,"o":"m 397 703 b 378 701 392 696 385 696 l 165 868 b 164 889 158 874 157 881 l 224 949 b 243 949 231 956 238 956 l 425 751 b 425 732 431 744 431 739 m 50 310 b 143 546 50 406 81 485 b 388 639 206 608 286 639 b 632 546 489 639 569 608 b 726 310 694 485 726 406 b 632 74 726 214 694 136 b 388 -18 569 13 489 -18 b 143 74 288 -18 206 13 b 50 310 81 136 50 214 m 388 121 b 568 311 494 121 568 200 b 388 500 568 421 494 500 b 208 311 282 500 208 422 b 388 121 208 200 282 121 "},"ó":{"ha":776,"x_min":0,"x_max":0,"o":"m 397 703 b 378 704 390 697 383 697 l 351 732 b 351 751 346 739 346 744 l 533 949 b 553 950 540 956 546 957 l 613 890 b 611 869 619 882 618 875 m 50 310 b 143 546 50 406 81 485 b 388 639 206 608 286 639 b 632 546 489 639 569 608 b 726 310 694 485 726 406 b 632 74 726 214 694 136 b 388 -18 569 13 489 -18 b 143 74 288 -18 206 13 b 50 310 81 136 50 214 m 388 121 b 568 311 494 121 568 200 b 388 500 568 421 494 500 b 208 311 282 500 208 422 b 388 121 208 200 282 121 "},"ô":{"ha":776,"x_min":0,"x_max":0,"o":"m 192 729 b 189 749 185 735 185 742 l 311 914 b 329 922 315 919 321 922 l 446 922 b 464 914 454 922 460 919 l 586 749 b 583 729 590 742 590 735 l 533 694 b 514 697 526 690 521 690 l 388 828 l 261 697 b 242 694 254 690 249 690 m 50 310 b 143 546 50 406 81 485 b 388 639 206 608 286 639 b 632 546 489 639 569 608 b 726 310 694 485 726 406 b 632 74 726 214 694 136 b 388 -18 569 13 489 -18 b 143 74 288 -18 206 13 b 50 310 81 136 50 214 m 388 121 b 568 311 494 121 568 200 b 388 500 568 421 494 500 b 208 311 282 500 208 422 b 388 121 208 200 282 121 "},"õ":{"ha":776,"x_min":0,"x_max":0,"o":"m 208 700 b 194 713 199 700 194 704 b 299 874 182 811 226 874 b 389 842 325 874 354 863 b 461 811 424 821 449 811 b 501 858 486 811 500 826 b 515 872 501 868 506 872 l 565 872 b 579 860 575 872 579 868 b 472 707 592 769 546 707 b 379 736 446 707 414 717 b 311 767 344 757 322 767 b 272 714 285 767 272 749 b 258 700 272 704 268 700 m 50 310 b 143 546 50 406 81 485 b 388 639 206 608 286 639 b 632 546 489 639 569 608 b 726 310 694 485 726 406 b 632 74 726 214 694 136 b 388 -18 569 13 489 -18 b 143 74 288 -18 206 13 b 50 310 81 136 50 214 m 388 121 b 568 311 494 121 568 200 b 388 500 568 421 494 500 b 208 311 282 500 208 422 b 388 121 208 200 282 121 "},"ö":{"ha":776,"x_min":0,"x_max":0,"o":"m 260 692 b 178 772 214 692 178 726 b 260 856 178 821 214 856 b 343 772 308 856 343 821 b 260 692 343 726 308 692 m 517 692 b 433 772 468 692 433 726 b 517 856 433 821 468 856 b 599 772 563 856 599 821 b 517 692 599 726 563 692 m 50 310 b 143 546 50 406 81 485 b 388 639 206 608 286 639 b 632 546 489 639 569 608 b 726 310 694 485 726 406 b 632 74 726 214 694 136 b 388 -18 569 13 489 -18 b 143 74 288 -18 206 13 b 50 310 81 136 50 214 m 388 121 b 568 311 494 121 568 200 b 388 500 568 421 494 500 b 208 311 282 500 208 422 b 388 121 208 200 282 121 "},"÷":{"ha":790,"x_min":0,"x_max":0,"o":"m 461 588 b 329 588 424 553 368 553 b 329 718 292 625 292 681 b 461 718 368 757 424 757 b 461 588 500 681 500 625 m 153 458 b 167 472 153 468 157 472 l 625 472 b 639 458 635 472 639 468 l 639 363 b 625 349 639 353 635 349 l 167 349 b 153 363 157 349 153 353 m 301 167 b 396 260 301 217 346 260 b 490 167 446 260 490 217 b 396 75 490 118 446 75 b 301 167 346 75 301 118 "},"ø":{"ha":776,"x_min":0,"x_max":0,"o":"m 614 564 b 726 310 689 501 726 417 b 632 74 726 214 694 136 b 388 -18 569 13 489 -18 b 263 3 342 -18 300 -11 l 222 -61 b 204 -65 218 -68 211 -69 l 138 -24 b 132 -4 131 -19 128 -12 l 168 53 b 50 310 89 115 50 200 b 143 546 50 406 81 485 b 388 639 206 608 286 639 b 522 615 436 639 481 631 l 561 676 b 579 681 565 683 572 685 l 644 640 b 650 621 651 636 654 629 m 208 311 b 250 183 208 261 222 218 l 444 492 b 388 500 428 497 408 500 b 208 311 282 500 208 422 m 388 121 b 568 311 494 121 568 200 b 531 432 568 357 556 397 l 340 126 b 388 121 353 122 368 121 "},"ù":{"ha":744,"x_min":0,"x_max":0,"o":"m 410 732 b 410 713 415 725 415 719 l 382 683 b 363 682 376 676 369 676 l 150 849 b 149 869 143 854 142 861 l 208 929 b 228 929 215 936 222 936 m 510 606 b 524 619 510 615 514 619 l 651 619 b 665 606 661 619 665 615 l 665 14 b 651 0 665 4 661 0 l 524 0 b 510 14 514 0 510 4 l 510 51 b 318 -18 458 6 394 -18 b 79 244 167 -18 79 78 l 79 606 b 93 619 79 615 83 619 l 219 619 b 233 606 229 619 233 615 l 233 271 b 367 119 233 169 278 119 b 510 192 431 119 478 143 "},"ú":{"ha":744,"x_min":0,"x_max":0,"o":"m 597 871 b 596 850 604 863 603 856 l 382 683 b 363 685 375 678 369 678 l 336 713 b 336 732 331 719 331 725 l 518 929 b 538 931 525 936 531 938 m 510 606 b 524 619 510 615 514 619 l 651 619 b 665 606 661 619 665 615 l 665 14 b 651 0 665 4 661 0 l 524 0 b 510 14 514 0 510 4 l 510 51 b 318 -18 458 6 394 -18 b 79 244 167 -18 79 78 l 79 606 b 93 619 79 615 83 619 l 219 619 b 233 606 229 619 233 615 l 233 271 b 367 119 233 169 278 119 b 510 192 431 119 478 143 "},"û":{"ha":744,"x_min":0,"x_max":0,"o":"m 372 808 l 246 678 b 226 675 239 671 233 671 l 176 710 b 174 729 169 715 169 722 l 296 894 b 314 903 300 900 306 903 l 431 903 b 449 894 439 903 444 900 l 571 729 b 568 710 575 722 575 715 l 518 675 b 499 678 511 671 506 671 m 510 606 b 524 619 510 615 514 619 l 651 619 b 665 606 661 619 665 615 l 665 14 b 651 0 665 4 661 0 l 524 0 b 510 14 514 0 510 4 l 510 51 b 318 -18 458 6 394 -18 b 79 244 167 -18 79 78 l 79 606 b 93 619 79 615 83 619 l 219 619 b 233 606 229 619 233 615 l 233 271 b 367 119 233 169 278 119 b 510 192 431 119 478 143 "},"ü":{"ha":744,"x_min":0,"x_max":0,"o":"m 243 672 b 161 753 197 672 161 707 b 243 836 161 801 197 836 b 326 753 292 836 326 801 b 243 672 326 707 292 672 m 500 672 b 417 753 451 672 417 707 b 500 836 417 801 451 836 b 582 753 546 836 582 801 b 500 672 582 707 546 672 m 510 606 b 524 619 510 615 514 619 l 651 619 b 665 606 661 619 665 615 l 665 14 b 651 0 665 4 661 0 l 524 0 b 510 14 514 0 510 4 l 510 51 b 318 -18 458 6 394 -18 b 79 244 167 -18 79 78 l 79 606 b 93 619 79 615 83 619 l 219 619 b 233 606 229 619 233 615 l 233 271 b 367 119 233 169 278 119 b 510 192 431 119 478 143 "},"ý":{"ha":760,"x_min":0,"x_max":0,"o":"m 367 683 b 347 685 360 678 353 678 l 321 713 b 321 732 315 719 315 725 l 503 929 b 522 931 510 936 515 938 l 582 871 b 581 850 589 863 588 856 m 21 603 b 31 619 17 614 19 619 l 174 619 b 190 610 182 619 188 617 l 378 236 l 569 610 b 586 619 572 617 578 619 l 729 619 b 739 603 739 619 744 613 l 271 -275 b 254 -285 268 -282 263 -285 l 117 -285 b 107 -268 106 -285 103 -279 l 290 79 "},"þ":{"ha":801,"x_min":0,"x_max":0,"o":"m 442 639 b 665 549 535 639 608 608 b 751 310 722 489 751 408 b 665 72 751 211 722 132 b 443 -18 608 13 535 -18 b 242 63 353 -18 286 8 l 242 -271 b 228 -285 242 -281 238 -285 l 104 -285 b 90 -271 94 -285 90 -281 l 90 914 b 104 928 90 924 94 928 l 228 928 b 242 914 238 928 242 924 l 242 560 b 442 639 288 613 354 639 m 408 122 b 593 311 519 122 593 199 b 408 500 593 424 519 500 b 242 408 335 500 268 463 l 242 214 b 408 122 268 158 335 122 "},"ÿ":{"ha":760,"x_min":0,"x_max":0,"o":"m 229 672 b 147 753 183 672 147 707 b 229 836 147 801 183 836 b 313 753 278 836 313 801 b 229 672 313 707 278 672 m 486 672 b 403 753 438 672 403 707 b 486 836 403 801 438 836 b 568 753 532 836 568 801 b 486 672 568 707 532 672 m 21 603 b 31 619 17 614 19 619 l 174 619 b 190 610 182 619 188 617 l 378 236 l 569 610 b 586 619 572 617 578 619 l 729 619 b 739 603 739 619 744 613 l 271 -275 b 254 -285 268 -282 263 -285 l 117 -285 b 107 -268 106 -285 103 -279 l 290 79 "},"Ā":{"ha":950,"x_min":0,"x_max":0,"o":"m 643 1064 b 657 1050 653 1064 657 1060 l 657 969 b 643 956 657 960 653 956 l 306 956 b 292 969 296 956 292 960 l 292 1050 b 306 1064 292 1060 296 1064 m 769 0 b 754 11 763 0 757 4 l 679 193 l 267 193 l 190 11 b 175 0 188 4 182 0 l 31 0 b 19 17 18 0 15 6 l 393 879 b 408 890 396 886 401 890 l 540 890 b 556 879 547 890 553 886 l 929 17 b 918 0 933 6 931 0 m 322 325 l 625 325 l 475 692 "},"ā":{"ha":789,"x_min":0,"x_max":0,"o":"m 515 813 b 529 799 525 813 529 808 l 529 718 b 515 704 529 708 525 704 l 178 704 b 164 718 168 704 164 708 l 164 799 b 178 813 164 808 168 813 m 558 606 b 572 619 558 615 563 619 l 699 619 b 713 606 708 619 713 615 l 713 14 b 699 0 713 4 708 0 l 572 0 b 558 14 563 0 558 4 l 558 61 b 358 -18 513 8 446 -18 b 135 72 267 -18 192 13 b 50 310 78 132 50 211 b 135 549 50 408 78 489 b 358 639 192 608 267 639 b 558 561 446 639 513 613 m 392 122 b 558 211 464 122 531 157 l 558 410 b 392 500 529 465 464 500 b 208 311 282 500 208 424 b 392 122 208 199 282 122 "},"Ă":{"ha":950,"x_min":0,"x_max":0,"o":"m 476 946 b 260 1125 358 946 275 1015 b 274 1140 258 1135 263 1140 l 357 1140 b 371 1128 365 1140 369 1136 b 476 1050 381 1076 417 1050 b 579 1128 533 1050 568 1076 b 593 1140 581 1136 585 1140 l 676 1140 b 690 1125 688 1140 692 1135 b 476 946 675 1014 588 946 m 769 0 b 754 11 763 0 757 4 l 679 193 l 267 193 l 190 11 b 175 0 188 4 182 0 l 31 0 b 19 17 18 0 15 6 l 393 879 b 408 890 396 886 401 890 l 540 890 b 556 879 547 890 553 886 l 929 17 b 918 0 933 6 931 0 m 322 325 l 625 325 l 475 692 "},"ă":{"ha":789,"x_min":0,"x_max":0,"o":"m 347 694 b 131 874 229 694 146 764 b 144 889 129 883 133 889 l 228 889 b 242 876 235 889 240 885 b 347 799 251 825 288 799 b 450 876 404 799 439 825 b 464 889 451 885 457 889 l 547 889 b 561 874 558 889 563 883 b 347 694 546 763 458 694 m 558 606 b 572 619 558 615 563 619 l 699 619 b 713 606 708 619 713 615 l 713 14 b 699 0 713 4 708 0 l 572 0 b 558 14 563 0 558 4 l 558 61 b 358 -18 513 8 446 -18 b 135 72 267 -18 192 13 b 50 310 78 132 50 211 b 135 549 50 408 78 489 b 358 639 192 608 267 639 b 558 561 446 639 513 613 m 392 122 b 558 211 464 122 531 157 l 558 410 b 392 500 529 465 464 500 b 208 311 282 500 208 424 b 392 122 208 199 282 122 "},"Ą":{"ha":950,"x_min":0,"x_max":0,"o":"m 929 -147 b 946 -157 939 -144 944 -147 l 954 -210 b 944 -228 956 -218 953 -224 b 865 -243 919 -237 893 -243 b 733 -125 786 -243 733 -196 b 801 0 733 -76 756 -35 l 769 0 b 754 11 763 0 757 4 l 679 193 l 267 193 l 190 11 b 175 0 188 4 182 0 l 31 0 b 19 17 18 0 15 6 l 393 879 b 408 890 396 886 401 890 l 540 890 b 556 879 547 890 553 886 l 929 17 b 931 0 932 7 935 0 l 925 0 b 833 -101 869 -18 833 -58 b 892 -154 833 -135 857 -154 b 929 -147 903 -154 915 -151 m 322 325 l 625 325 l 475 692 "},"ą":{"ha":789,"x_min":0,"x_max":0,"o":"m 711 -147 b 728 -157 721 -144 726 -147 l 736 -210 b 726 -228 738 -218 735 -224 b 647 -243 701 -237 675 -243 b 515 -125 568 -243 515 -196 b 583 0 515 -76 538 -35 l 572 0 b 558 14 563 0 558 4 l 558 61 b 358 -18 513 8 446 -18 b 135 72 267 -18 192 13 b 50 310 78 132 50 211 b 135 549 50 408 78 489 b 358 639 192 608 267 639 b 558 561 446 639 513 613 l 558 606 b 572 619 558 615 563 619 l 699 619 b 713 606 708 619 713 615 l 713 14 b 710 0 713 4 711 0 l 707 0 b 615 -101 651 -18 615 -58 b 674 -154 615 -135 639 -154 b 711 -147 685 -154 697 -151 m 392 122 b 558 211 464 122 531 157 l 558 410 b 392 500 529 465 464 500 b 208 311 282 500 208 424 b 392 122 208 199 282 122 "},"Ć":{"ha":975,"x_min":0,"x_max":0,"o":"m 519 971 b 499 972 511 964 504 965 l 472 1001 b 472 1021 467 1008 467 1014 l 654 1217 b 674 1218 661 1224 667 1225 l 733 1158 b 732 1138 740 1150 739 1143 m 508 908 b 919 663 703 908 860 814 b 911 644 924 653 921 647 l 778 600 b 760 610 768 597 763 600 b 506 763 726 700 628 763 b 294 675 418 763 347 733 b 215 446 242 618 215 542 b 294 214 215 350 242 272 b 506 128 347 157 418 128 b 760 282 628 128 726 189 b 778 290 763 290 768 293 l 911 247 b 919 229 921 244 924 239 b 764 49 890 153 838 93 b 508 -18 690 4 604 -18 b 176 110 371 -18 261 25 b 50 446 92 196 50 308 b 176 781 50 583 92 696 b 508 908 261 865 371 908 "},"ć":{"ha":717,"x_min":0,"x_max":0,"o":"m 390 701 b 369 703 382 694 375 696 l 343 732 b 343 751 338 739 338 744 l 525 947 b 544 949 532 954 538 956 l 604 889 b 603 868 611 881 610 874 m 379 638 b 667 465 514 638 626 571 b 657 447 669 456 667 450 l 539 410 b 521 418 531 407 525 410 b 376 500 499 468 444 500 b 208 310 275 500 208 425 b 376 119 208 194 275 119 b 521 201 444 119 499 151 b 539 210 525 210 531 213 l 657 172 b 667 154 667 169 669 164 b 379 -18 626 49 518 -18 b 140 72 281 -18 201 13 b 50 310 81 132 50 211 b 140 547 50 408 81 488 b 379 638 201 607 281 638 "},"Ĉ":{"ha":975,"x_min":0,"x_max":0,"o":"m 313 999 b 310 1018 306 1004 306 1011 l 432 1183 b 450 1192 436 1189 442 1192 l 565 1192 b 583 1183 574 1192 579 1189 l 707 1018 b 704 999 711 1011 711 1004 l 654 964 b 635 967 647 960 642 960 l 508 1097 l 382 967 b 363 964 375 960 369 960 m 508 908 b 919 663 703 908 860 814 b 911 644 924 653 921 647 l 778 600 b 760 610 768 597 763 600 b 506 763 726 700 628 763 b 294 675 418 763 347 733 b 215 446 242 618 215 542 b 294 214 215 350 242 272 b 506 128 347 157 418 128 b 760 282 628 128 726 189 b 778 290 763 290 768 293 l 911 247 b 919 229 921 244 924 239 b 764 49 890 153 838 93 b 508 -18 690 4 604 -18 b 176 110 371 -18 261 25 b 50 446 92 196 50 308 b 176 781 50 583 92 696 b 508 908 261 865 371 908 "},"ĉ":{"ha":717,"x_min":0,"x_max":0,"o":"m 183 729 b 181 749 176 735 176 742 l 303 914 b 321 922 307 919 313 922 l 436 922 b 454 914 444 922 450 919 l 578 749 b 575 729 582 742 582 735 l 525 694 b 506 697 518 690 513 690 l 379 828 l 253 697 b 233 694 246 690 240 690 m 379 638 b 667 465 514 638 626 571 b 657 447 669 456 667 450 l 539 410 b 521 418 531 407 525 410 b 376 500 499 468 444 500 b 208 310 275 500 208 425 b 376 119 208 194 275 119 b 521 201 444 119 499 151 b 539 210 525 210 531 213 l 657 172 b 667 154 667 169 669 164 b 379 -18 626 49 518 -18 b 140 72 281 -18 201 13 b 50 310 81 132 50 211 b 140 547 50 408 81 488 b 379 638 201 607 281 638 "},"Ċ":{"ha":975,"x_min":0,"x_max":0,"o":"m 507 968 b 425 1049 461 968 425 1003 b 507 1132 425 1097 461 1132 b 590 1049 556 1132 590 1097 b 507 968 590 1003 556 968 m 508 908 b 919 663 703 908 860 814 b 911 644 924 653 921 647 l 778 600 b 760 610 768 597 763 600 b 506 763 726 700 628 763 b 294 675 418 763 347 733 b 215 446 242 618 215 542 b 294 214 215 350 242 272 b 506 128 347 157 418 128 b 760 282 628 128 726 189 b 778 290 763 290 768 293 l 911 247 b 919 229 921 244 924 239 b 764 49 890 153 838 93 b 508 -18 690 4 604 -18 b 176 110 371 -18 261 25 b 50 446 92 196 50 308 b 176 781 50 583 92 696 b 508 908 261 865 371 908 "},"ċ":{"ha":717,"x_min":0,"x_max":0,"o":"m 378 699 b 296 779 332 699 296 733 b 378 863 296 828 332 863 b 461 779 426 863 461 828 b 378 699 461 733 426 699 m 379 638 b 667 465 514 638 626 571 b 657 447 669 456 667 450 l 539 410 b 521 418 531 407 525 410 b 376 500 499 468 444 500 b 208 310 275 500 208 425 b 376 119 208 194 275 119 b 521 201 444 119 499 151 b 539 210 525 210 531 213 l 657 172 b 667 154 667 169 669 164 b 379 -18 626 49 518 -18 b 140 72 281 -18 201 13 b 50 310 81 132 50 211 b 140 547 50 408 81 488 b 379 638 201 607 281 638 "},"Č":{"ha":975,"x_min":0,"x_max":0,"o":"m 310 1139 b 313 1158 306 1146 306 1153 l 363 1194 b 382 1192 369 1199 375 1197 l 508 1060 l 635 1192 b 654 1194 640 1197 647 1199 l 704 1158 b 707 1139 711 1153 711 1146 l 585 974 b 567 965 581 968 575 965 l 450 965 b 432 974 442 965 436 968 m 508 908 b 919 663 703 908 860 814 b 911 644 924 653 921 647 l 778 600 b 760 610 768 597 763 600 b 506 763 726 700 628 763 b 294 675 418 763 347 733 b 215 446 242 618 215 542 b 294 214 215 350 242 272 b 506 128 347 157 418 128 b 760 282 628 128 726 189 b 778 290 763 290 768 293 l 911 247 b 919 229 921 244 924 239 b 764 49 890 153 838 93 b 508 -18 690 4 604 -18 b 176 110 371 -18 261 25 b 50 446 92 196 50 308 b 176 781 50 583 92 696 b 508 908 261 865 371 908 "},"č":{"ha":717,"x_min":0,"x_max":0,"o":"m 181 869 b 183 889 176 876 176 883 l 233 925 b 253 922 240 929 246 928 l 379 790 l 506 922 b 525 925 511 928 518 929 l 575 889 b 578 869 582 883 582 876 l 456 704 b 438 696 451 699 446 696 l 321 696 b 303 704 313 696 307 699 m 379 638 b 667 465 514 638 626 571 b 657 447 669 456 667 450 l 539 410 b 521 418 531 407 525 410 b 376 500 499 468 444 500 b 208 310 275 500 208 425 b 376 119 208 194 275 119 b 521 201 444 119 499 151 b 539 210 525 210 531 213 l 657 172 b 667 154 667 169 669 164 b 379 -18 626 49 518 -18 b 140 72 281 -18 201 13 b 50 310 81 132 50 211 b 140 547 50 408 81 488 b 379 638 201 607 281 638 "},"Ď":{"ha":925,"x_min":0,"x_max":0,"o":"m 442 954 b 424 946 438 949 432 946 l 307 946 b 289 954 299 946 293 949 l 167 1119 b 169 1139 163 1126 163 1133 l 219 1175 b 239 1172 226 1179 232 1178 l 365 1040 l 492 1172 b 511 1175 497 1178 504 1179 l 561 1139 b 564 1119 568 1133 568 1126 m 426 890 b 749 764 558 890 665 849 b 875 443 833 681 875 574 b 750 124 875 313 833 206 b 426 0 667 42 558 0 l 114 0 b 100 14 104 0 100 4 l 100 876 b 114 890 100 886 104 890 m 414 143 b 628 225 503 143 574 171 b 708 443 682 281 708 353 b 628 663 708 533 682 607 b 414 747 574 719 503 747 l 257 747 l 257 143 "},"ď":{"ha":938,"x_min":0,"x_max":0,"o":"m 557 876 b 571 890 557 886 561 890 l 699 890 b 713 876 708 890 713 886 l 713 14 b 699 0 713 4 708 0 l 571 0 b 557 14 561 0 557 4 l 557 61 b 357 -18 511 8 444 -18 b 135 72 265 -18 192 13 b 50 310 78 132 50 211 b 135 549 50 408 78 489 b 358 639 192 608 267 639 b 557 563 446 639 511 614 m 806 876 b 819 890 806 886 810 890 l 914 890 b 926 876 924 890 928 886 l 904 611 b 889 597 904 601 899 597 l 819 597 b 806 611 810 597 806 601 m 392 122 b 557 211 464 122 529 157 l 557 411 b 392 500 529 465 464 500 b 207 311 281 500 207 424 b 392 122 207 199 281 122 "},"Đ":{"ha":1026,"x_min":0,"x_max":0,"o":"m 481 890 b 803 764 613 890 719 849 b 929 443 888 681 929 574 b 804 124 929 313 888 206 b 481 0 721 42 613 0 l 168 0 b 154 14 158 0 154 4 l 154 388 l 72 388 b 58 401 63 388 58 392 l 58 488 b 72 501 58 497 63 501 l 154 501 l 154 876 b 168 890 154 886 158 890 m 468 143 b 682 225 557 143 628 171 b 763 443 736 281 763 353 b 682 663 763 533 736 607 b 468 747 628 719 557 747 l 311 747 l 311 501 l 475 501 b 489 488 485 501 489 497 l 489 401 b 475 388 489 392 485 388 l 311 388 l 311 143 "},"đ":{"ha":789,"x_min":0,"x_max":0,"o":"m 776 813 b 790 799 786 813 790 808 l 790 715 b 776 701 790 706 786 701 l 713 701 l 713 14 b 699 0 713 4 708 0 l 572 0 b 558 14 563 0 558 4 l 558 61 b 358 -18 513 8 446 -18 b 135 72 267 -18 192 13 b 50 310 78 132 50 211 b 135 549 50 408 78 489 b 358 639 192 608 267 639 b 558 561 446 639 513 613 l 558 701 l 399 701 b 385 715 389 701 385 706 l 385 799 b 399 813 385 808 389 813 l 558 813 l 558 876 b 572 890 558 886 563 890 l 699 890 b 713 876 708 890 713 886 l 713 813 m 392 122 b 558 211 464 122 531 157 l 558 410 b 392 500 529 465 464 500 b 208 311 282 500 208 424 b 392 122 208 199 282 122 "},"Ē":{"ha":739,"x_min":0,"x_max":0,"o":"m 550 1064 b 564 1050 560 1064 564 1060 l 564 969 b 550 956 564 960 560 956 l 213 956 b 199 969 203 956 199 960 l 199 1050 b 213 1064 199 1060 203 1064 m 668 760 b 654 746 668 750 664 746 l 257 746 l 257 517 l 611 517 b 625 503 621 517 625 513 l 625 394 b 611 381 625 385 621 381 l 257 381 l 257 143 l 654 143 b 668 129 664 143 668 139 l 668 14 b 654 0 668 4 664 0 l 114 0 b 100 14 104 0 100 4 l 100 876 b 114 890 100 886 104 890 l 654 890 b 668 876 664 890 668 886 "},"ē":{"ha":718,"x_min":0,"x_max":0,"o":"m 186 799 b 200 813 186 808 190 813 l 538 813 b 551 799 547 813 551 808 l 551 718 b 538 704 551 708 547 704 l 200 704 b 186 718 190 704 186 708 m 50 313 b 138 549 50 411 79 489 b 369 639 197 608 274 639 b 586 558 460 639 532 613 b 669 347 642 504 669 435 b 665 285 669 324 668 303 b 650 272 664 276 660 272 l 204 272 b 386 110 206 172 281 110 b 563 188 464 111 522 138 b 582 189 568 196 575 196 l 650 122 b 653 103 657 115 657 110 b 378 -18 596 29 494 -18 b 139 72 278 -18 199 13 b 50 313 79 132 50 213 m 515 379 b 364 511 514 458 454 511 b 206 379 275 511 215 461 "},"Ĕ":{"ha":739,"x_min":0,"x_max":0,"o":"m 382 946 b 165 1125 264 946 181 1015 b 179 1140 164 1135 168 1140 l 263 1140 b 276 1128 271 1140 275 1136 b 382 1050 286 1076 322 1050 b 485 1128 439 1050 474 1076 b 499 1140 486 1136 490 1140 l 582 1140 b 596 1125 593 1140 597 1135 b 382 946 581 1014 493 946 m 668 760 b 654 746 668 750 664 746 l 257 746 l 257 517 l 611 517 b 625 503 621 517 625 513 l 625 394 b 611 381 625 385 621 381 l 257 381 l 257 143 l 654 143 b 668 129 664 143 668 139 l 668 14 b 654 0 668 4 664 0 l 114 0 b 100 14 104 0 100 4 l 100 876 b 114 890 100 886 104 890 l 654 890 b 668 876 664 890 668 886 "},"ĕ":{"ha":718,"x_min":0,"x_max":0,"o":"m 569 889 b 583 874 581 889 585 883 b 369 694 571 763 482 694 b 153 874 251 694 168 764 b 167 889 151 883 156 889 l 250 889 b 264 876 257 889 263 885 b 369 799 274 825 310 799 b 472 876 426 799 461 825 b 486 889 474 885 479 889 m 50 313 b 138 549 50 411 79 489 b 369 639 197 608 274 639 b 586 558 460 639 532 613 b 669 347 642 504 669 435 b 665 285 669 324 668 303 b 650 272 664 276 660 272 l 204 272 b 386 110 206 172 281 110 b 563 188 464 111 522 138 b 582 189 568 196 575 196 l 650 122 b 653 103 657 115 657 110 b 378 -18 596 29 494 -18 b 139 72 278 -18 199 13 b 50 313 79 132 50 213 m 515 379 b 364 511 514 458 454 511 b 206 379 275 511 215 461 "},"Ė":{"ha":739,"x_min":0,"x_max":0,"o":"m 381 950 b 299 1031 335 950 299 985 b 381 1114 299 1079 335 1114 b 464 1031 429 1114 464 1079 b 381 950 464 985 429 950 m 668 760 b 654 746 668 750 664 746 l 257 746 l 257 517 l 611 517 b 625 503 621 517 625 513 l 625 394 b 611 381 625 385 621 381 l 257 381 l 257 143 l 654 143 b 668 129 664 143 668 139 l 668 14 b 654 0 668 4 664 0 l 114 0 b 100 14 104 0 100 4 l 100 876 b 114 890 100 886 104 890 l 654 890 b 668 876 664 890 668 886 "},"ė":{"ha":718,"x_min":0,"x_max":0,"o":"m 368 699 b 286 779 322 699 286 733 b 368 863 286 828 322 863 b 451 779 417 863 451 828 b 368 699 451 733 417 699 m 50 313 b 138 549 50 411 79 489 b 369 639 197 608 274 639 b 586 558 460 639 532 613 b 669 347 642 504 669 435 b 665 285 669 324 668 303 b 650 272 664 276 660 272 l 204 272 b 386 110 206 172 281 110 b 563 188 464 111 522 138 b 582 189 568 196 575 196 l 650 122 b 653 103 657 115 657 110 b 378 -18 596 29 494 -18 b 139 72 278 -18 199 13 b 50 313 79 132 50 213 m 515 379 b 364 511 514 458 454 511 b 206 379 275 511 215 461 "},"Ę":{"ha":739,"x_min":0,"x_max":0,"o":"m 668 -147 b 685 -157 678 -144 683 -147 l 693 -210 b 683 -228 694 -218 692 -224 b 604 -243 658 -237 632 -243 b 472 -125 525 -243 472 -196 b 540 0 472 -76 494 -35 l 114 0 b 100 14 104 0 100 4 l 100 876 b 114 890 100 886 104 890 l 654 890 b 668 876 664 890 668 886 l 668 760 b 654 746 668 750 664 746 l 257 746 l 257 517 l 611 517 b 625 503 621 517 625 513 l 625 394 b 611 381 625 385 621 381 l 257 381 l 257 143 l 654 143 b 668 129 664 143 668 139 l 668 14 b 667 0 668 4 668 0 l 664 0 b 572 -101 608 -18 572 -58 b 631 -154 572 -135 596 -154 b 668 -147 642 -154 654 -151 "},"ę":{"ha":718,"x_min":0,"x_max":0,"o":"m 669 347 b 665 285 669 324 668 303 b 650 272 664 276 660 272 l 204 272 b 386 110 206 172 281 110 b 563 188 464 111 522 138 b 582 189 568 196 575 196 l 650 122 b 653 103 657 115 657 110 b 414 -17 599 33 519 -7 b 358 -101 376 -39 358 -67 b 417 -154 358 -135 382 -154 b 454 -147 428 -154 440 -151 b 471 -157 464 -144 469 -147 l 479 -210 b 469 -228 481 -218 478 -224 b 390 -243 444 -237 418 -243 b 258 -125 311 -243 258 -196 b 311 -12 258 -82 276 -44 b 50 313 149 14 50 136 b 138 549 50 411 79 489 b 369 639 197 608 274 639 b 586 558 460 639 532 613 b 669 347 642 504 669 435 m 515 379 b 364 511 514 458 454 511 b 206 379 275 511 215 461 "},"Ě":{"ha":739,"x_min":0,"x_max":0,"o":"m 458 956 b 440 947 454 950 449 947 l 324 947 b 306 956 315 947 310 950 l 183 1121 b 186 1140 179 1128 179 1135 l 236 1176 b 256 1174 243 1181 250 1181 l 382 1042 l 508 1174 b 528 1176 514 1181 521 1181 l 578 1140 b 581 1121 585 1135 585 1128 m 668 760 b 654 746 668 750 664 746 l 257 746 l 257 517 l 611 517 b 625 503 621 517 625 513 l 625 394 b 611 381 625 385 621 381 l 257 381 l 257 143 l 654 143 b 668 129 664 143 668 139 l 668 14 b 654 0 668 4 664 0 l 114 0 b 100 14 104 0 100 4 l 100 876 b 114 890 100 886 104 890 l 654 890 b 668 876 664 890 668 886 "},"ě":{"ha":718,"x_min":0,"x_max":0,"o":"m 171 869 b 174 889 167 876 167 883 l 224 925 b 243 922 231 929 236 928 l 369 790 l 496 922 b 515 925 503 928 508 929 l 565 889 b 568 869 572 883 572 876 l 446 704 b 428 696 442 699 436 696 l 311 696 b 293 704 303 696 297 699 m 50 313 b 138 549 50 411 79 489 b 369 639 197 608 274 639 b 586 558 460 639 532 613 b 669 347 642 504 669 435 b 665 285 669 324 668 303 b 650 272 664 276 660 272 l 204 272 b 386 110 206 172 281 110 b 563 188 464 111 522 138 b 582 189 568 196 575 196 l 650 122 b 653 103 657 115 657 110 b 378 -18 596 29 494 -18 b 139 72 278 -18 199 13 b 50 313 79 132 50 213 m 515 379 b 364 511 514 458 454 511 b 206 379 275 511 215 461 "},"Ĝ":{"ha":994,"x_min":0,"x_max":0,"o":"m 507 1097 l 381 967 b 361 964 375 961 368 960 l 311 999 b 308 1018 304 1004 304 1011 l 431 1183 b 449 1192 435 1189 440 1192 l 564 1192 b 582 1183 572 1192 578 1189 l 706 1018 b 703 999 710 1011 710 1004 l 653 964 b 633 967 646 960 640 960 m 360 469 b 374 483 360 479 364 483 l 931 483 b 944 469 940 483 944 479 l 944 399 b 822 96 944 274 904 172 b 501 -18 740 19 633 -18 b 174 107 367 -18 257 24 b 50 439 92 192 50 301 b 176 778 50 579 92 692 b 506 908 261 865 371 908 b 907 669 694 908 847 815 b 899 651 911 660 908 654 l 771 611 b 754 619 763 608 757 611 b 504 763 715 710 619 763 b 290 674 414 763 343 733 b 213 442 239 615 213 538 b 504 128 213 247 326 128 b 779 347 654 128 761 213 l 374 347 b 360 361 364 347 360 351 "},"ĝ":{"ha":799,"x_min":0,"x_max":0,"o":"m 432 832 l 306 714 b 288 713 301 708 294 708 l 238 743 b 235 763 229 747 228 754 l 356 908 b 372 917 360 914 365 917 l 490 917 b 507 908 497 917 503 914 l 629 763 b 626 743 636 754 635 747 l 578 713 b 558 714 571 708 564 708 m 542 606 b 556 619 542 615 546 619 l 683 619 b 697 606 693 619 697 615 l 697 0 b 367 -304 697 -187 571 -304 b 65 -126 222 -304 110 -237 b 75 -108 63 -117 65 -111 l 193 -69 b 210 -78 201 -67 207 -69 b 368 -168 235 -137 288 -168 b 542 -6 479 -168 542 -106 l 542 88 b 350 15 496 39 432 15 b 132 100 260 15 188 43 b 50 326 78 157 50 233 b 132 553 50 419 78 496 b 351 639 188 610 261 639 b 542 567 435 639 499 615 m 382 149 b 542 228 450 149 513 179 l 542 426 b 382 506 513 475 450 506 b 207 326 278 506 207 433 b 382 149 207 221 278 149 "},"Ğ":{"ha":994,"x_min":0,"x_max":0,"o":"m 508 964 b 292 1143 390 964 307 1033 b 306 1158 290 1153 294 1158 l 389 1158 b 403 1146 396 1158 401 1154 b 508 1068 413 1094 449 1068 b 611 1146 565 1068 600 1094 b 625 1158 613 1154 618 1158 l 708 1158 b 722 1143 719 1158 724 1153 b 508 964 707 1032 619 964 m 360 469 b 374 483 360 479 364 483 l 931 483 b 944 469 940 483 944 479 l 944 399 b 822 96 944 274 904 172 b 501 -18 740 19 633 -18 b 174 107 367 -18 257 24 b 50 439 92 192 50 301 b 176 778 50 579 92 692 b 506 908 261 865 371 908 b 907 669 694 908 847 815 b 899 651 911 660 908 654 l 771 611 b 754 619 763 608 757 611 b 504 763 715 710 619 763 b 290 674 414 763 343 733 b 213 442 239 615 213 538 b 504 128 213 247 326 128 b 779 347 654 128 761 213 l 374 347 b 360 361 364 347 360 351 "},"ğ":{"ha":772,"x_min":0,"x_max":0,"o":"m 338 694 b 121 874 219 694 136 764 b 135 889 119 883 124 889 l 218 889 b 232 876 226 889 231 885 b 338 799 242 825 278 799 b 440 876 394 799 429 825 b 454 889 442 885 446 889 l 538 889 b 551 874 549 889 553 883 b 338 694 536 763 449 694 m 542 606 b 556 619 542 615 546 619 l 683 619 b 697 606 693 619 697 615 l 697 0 b 367 -304 697 -187 571 -304 b 65 -126 222 -304 110 -237 b 75 -108 63 -117 65 -111 l 193 -69 b 210 -78 201 -67 207 -69 b 368 -168 235 -137 288 -168 b 542 -6 479 -168 542 -106 l 542 88 b 350 15 496 39 432 15 b 132 100 260 15 188 43 b 50 326 78 157 50 233 b 132 553 50 419 78 496 b 351 639 188 610 261 639 b 542 567 435 639 499 615 m 382 149 b 542 228 450 149 513 179 l 542 426 b 382 506 513 475 450 506 b 207 326 278 506 207 433 b 382 149 207 221 278 149 "},"Ġ":{"ha":994,"x_min":0,"x_max":0,"o":"m 507 968 b 425 1049 461 968 425 1003 b 507 1132 425 1097 461 1132 b 590 1049 556 1132 590 1097 b 507 968 590 1003 556 968 m 360 469 b 374 483 360 479 364 483 l 931 483 b 944 469 940 483 944 479 l 944 399 b 822 96 944 274 904 172 b 501 -18 740 19 633 -18 b 174 107 367 -18 257 24 b 50 439 92 192 50 301 b 176 778 50 579 92 692 b 506 908 261 865 371 908 b 907 669 694 908 847 815 b 899 651 911 660 908 654 l 771 611 b 754 619 763 608 757 611 b 504 763 715 710 619 763 b 290 674 414 763 343 733 b 213 442 239 615 213 538 b 504 128 213 247 326 128 b 779 347 654 128 761 213 l 374 347 b 360 361 364 347 360 351 "},"ġ":{"ha":772,"x_min":0,"x_max":0,"o":"m 336 699 b 254 779 290 699 254 733 b 336 863 254 828 290 863 b 419 779 385 863 419 828 b 336 699 419 733 385 699 m 542 606 b 556 619 542 615 546 619 l 683 619 b 697 606 693 619 697 615 l 697 0 b 367 -304 697 -187 571 -304 b 65 -126 222 -304 110 -237 b 75 -108 63 -117 65 -111 l 193 -69 b 210 -78 201 -67 207 -69 b 368 -168 235 -137 288 -168 b 542 -6 479 -168 542 -106 l 542 88 b 350 15 496 39 432 15 b 132 100 260 15 188 43 b 50 326 78 157 50 233 b 132 553 50 419 78 496 b 351 639 188 610 261 639 b 542 567 435 639 499 615 m 382 149 b 542 228 450 149 513 179 l 542 426 b 382 506 513 475 450 506 b 207 326 278 506 207 433 b 382 149 207 221 278 149 "},"Ģ":{"ha":994,"x_min":0,"x_max":0,"o":"m 360 469 b 374 483 360 479 364 483 l 931 483 b 944 469 940 483 944 479 l 944 399 b 822 96 944 274 904 172 b 501 -18 740 19 633 -18 b 174 107 367 -18 257 24 b 50 439 92 192 50 301 b 176 778 50 579 92 692 b 506 908 261 865 371 908 b 907 669 694 908 847 815 b 899 651 911 660 908 654 l 771 611 b 754 619 763 608 757 611 b 504 763 715 710 619 763 b 290 674 414 763 343 733 b 213 442 239 615 213 538 b 504 128 213 247 326 128 b 779 347 654 128 761 213 l 374 347 b 360 361 364 347 360 351 m 525 -81 b 608 -162 575 -81 608 -112 b 569 -258 608 -186 596 -218 l 506 -358 b 488 -362 501 -365 494 -367 l 463 -347 b 458 -328 454 -342 453 -335 l 531 -226 b 514 -229 524 -228 518 -229 b 443 -160 474 -229 443 -203 b 525 -81 443 -115 476 -81 "},"ģ":{"ha":772,"x_min":0,"x_max":0,"o":"m 563 890 b 561 869 569 882 568 875 l 347 703 b 328 704 340 697 335 697 l 301 732 b 301 751 296 739 296 744 l 483 949 b 503 950 490 956 496 957 m 542 606 b 556 619 542 615 546 619 l 683 619 b 697 606 693 619 697 615 l 697 0 b 367 -304 697 -187 571 -304 b 65 -126 222 -304 110 -237 b 75 -108 63 -117 65 -111 l 193 -69 b 210 -78 201 -67 207 -69 b 368 -168 235 -137 288 -168 b 542 -6 479 -168 542 -106 l 542 88 b 350 15 496 39 432 15 b 132 100 260 15 188 43 b 50 326 78 157 50 233 b 132 553 50 419 78 496 b 351 639 188 610 261 639 b 542 567 435 639 499 615 m 382 149 b 542 228 450 149 513 179 l 542 426 b 382 506 513 475 450 506 b 207 326 278 506 207 433 b 382 149 207 221 278 149 "},"Ħ":{"ha":907,"x_min":0,"x_max":0,"o":"m 893 761 b 907 747 903 761 907 757 l 907 651 b 893 638 907 642 903 638 l 817 638 l 817 14 b 803 0 817 4 813 0 l 672 0 b 658 14 663 0 658 4 l 658 381 l 257 381 l 257 14 b 243 0 257 4 253 0 l 114 0 b 100 14 104 0 100 4 l 100 638 l 17 638 b 3 651 7 638 3 642 l 3 747 b 17 761 3 757 7 761 l 100 761 l 100 876 b 114 890 100 886 104 890 l 243 890 b 257 876 253 890 257 886 l 257 761 l 658 761 l 658 876 b 672 890 658 886 663 890 l 803 890 b 817 876 813 890 817 886 l 817 761 m 658 518 l 658 638 l 257 638 l 257 518 "},"ħ":{"ha":763,"x_min":0,"x_max":0,"o":"m 429 639 b 686 375 585 639 686 540 l 686 14 b 672 0 686 4 682 0 l 544 0 b 531 14 535 0 531 4 l 531 351 b 388 499 531 450 483 499 b 240 422 321 499 272 474 l 240 14 b 226 0 240 4 236 0 l 100 0 b 86 14 90 0 86 4 l 86 701 l 14 701 b 0 715 4 701 0 706 l 0 799 b 14 813 0 808 4 813 l 86 813 l 86 876 b 100 890 86 886 90 890 l 226 890 b 240 876 236 890 240 886 l 240 813 l 392 813 b 406 799 401 813 406 808 l 406 715 b 392 701 406 706 401 701 l 240 701 l 240 569 b 429 639 289 615 353 639 "},"Ĩ":{"ha":358,"x_min":0,"x_max":0,"o":"m 0 951 b -14 964 -10 951 -14 956 b 90 1125 -26 1063 18 1125 b 181 1093 117 1125 146 1114 b 253 1063 215 1072 240 1063 b 293 1110 278 1063 292 1078 b 307 1124 293 1119 297 1124 l 357 1124 b 371 1111 367 1124 371 1119 b 264 958 383 1021 338 958 b 171 988 238 958 206 968 b 103 1018 136 1008 114 1018 b 64 965 76 1018 64 1000 b 50 951 64 956 60 951 m 257 14 b 243 0 257 4 253 0 l 114 0 b 100 14 104 0 100 4 l 100 876 b 114 890 100 886 104 890 l 243 890 b 257 876 253 890 257 886 "},"ĩ":{"ha":328,"x_min":0,"x_max":0,"o":"m -15 706 b -29 718 -25 706 -29 710 b 75 879 -42 817 3 879 b 165 847 101 879 131 868 b 238 817 200 826 225 817 b 278 864 263 817 276 832 b 292 878 278 874 282 878 l 342 878 b 356 865 351 878 356 874 b 249 713 368 775 322 713 b 156 742 222 713 190 722 b 88 772 121 763 99 772 b 49 719 61 772 49 754 b 35 706 49 710 44 706 m 86 606 b 100 619 86 615 90 619 l 228 619 b 242 606 238 619 242 615 l 242 14 b 228 0 242 4 238 0 l 100 0 b 86 14 90 0 86 4 "},"Ī":{"ha":358,"x_min":0,"x_max":0,"o":"m -4 1050 b 10 1064 -4 1060 0 1064 l 347 1064 b 361 1050 357 1064 361 1060 l 361 969 b 347 956 361 960 357 956 l 10 956 b -4 969 0 956 -4 960 m 257 14 b 243 0 257 4 253 0 l 114 0 b 100 14 104 0 100 4 l 100 876 b 114 890 100 886 104 890 l 243 890 b 257 876 253 890 257 886 "},"ī":{"ha":328,"x_min":0,"x_max":0,"o":"m -19 804 b -6 818 -19 814 -15 818 l 332 818 b 346 804 342 818 346 814 l 346 724 b 332 710 346 714 342 710 l -6 710 b -19 724 -15 710 -19 714 m 86 606 b 100 619 86 615 90 619 l 228 619 b 242 606 238 619 242 615 l 242 14 b 228 0 242 4 238 0 l 100 0 b 86 14 90 0 86 4 "},"Į":{"ha":358,"x_min":0,"x_max":0,"o":"m 256 -147 b 272 -157 265 -144 271 -147 l 281 -210 b 271 -228 282 -218 279 -224 b 192 -243 246 -237 219 -243 b 60 -125 113 -243 60 -196 b 128 0 60 -76 82 -35 l 114 0 b 100 14 104 0 100 4 l 100 876 b 114 890 100 886 104 890 l 243 890 b 257 876 253 890 257 886 l 257 14 b 254 0 257 4 256 0 l 251 0 b 160 -101 196 -18 160 -58 b 218 -154 160 -135 183 -154 b 256 -147 229 -154 242 -151 "},"į":{"ha":328,"x_min":0,"x_max":0,"o":"m 163 704 b 81 785 117 704 81 739 b 163 868 81 833 117 868 b 246 785 211 868 246 833 b 163 704 246 739 211 704 m 240 -147 b 257 -157 250 -144 256 -147 l 265 -210 b 256 -228 267 -218 264 -224 b 176 -243 231 -237 204 -243 b 44 -125 97 -243 44 -196 b 113 0 44 -76 67 -35 l 100 0 b 86 14 90 0 86 4 l 86 606 b 100 619 86 615 90 619 l 228 619 b 242 606 238 619 242 615 l 242 14 b 239 0 242 4 240 0 l 236 0 b 144 -101 181 -18 144 -58 b 203 -154 144 -135 168 -154 b 240 -147 214 -154 226 -151 "},"İ":{"ha":358,"x_min":0,"x_max":0,"o":"m 178 950 b 96 1031 132 950 96 985 b 178 1114 96 1079 132 1114 b 261 1031 226 1114 261 1079 b 178 950 261 985 226 950 m 257 14 b 243 0 257 4 253 0 l 114 0 b 100 14 104 0 100 4 l 100 876 b 114 890 100 886 104 890 l 243 890 b 257 876 253 890 257 886 "},"ı":{"ha":328,"x_min":0,"x_max":0,"o":"m 86 606 b 100 619 86 615 90 619 l 228 619 b 242 606 238 619 242 615 l 242 14 b 228 0 242 4 238 0 l 100 0 b 86 14 90 0 86 4 "},"Ĵ":{"ha":739,"x_min":0,"x_max":0,"o":"m 371 979 b 368 999 364 985 364 992 l 490 1164 b 508 1172 494 1169 500 1172 l 624 1172 b 642 1164 632 1172 638 1169 l 765 999 b 763 979 769 992 769 985 l 713 944 b 693 947 706 940 700 940 l 567 1078 l 440 947 b 421 944 433 940 428 940 m 67 425 b 81 439 67 435 71 439 l 204 439 b 218 425 214 439 218 435 l 218 261 b 351 125 218 172 269 125 b 488 261 440 125 488 178 l 488 876 b 501 890 488 886 492 890 l 631 890 b 644 876 640 890 644 886 l 644 256 b 564 56 644 172 618 106 b 351 -18 510 7 439 -18 b 67 256 179 -17 67 93 "},"ĵ":{"ha":357,"x_min":0,"x_max":0,"o":"m -11 735 b -14 754 -18 740 -18 747 l 108 919 b 126 928 113 925 118 928 l 242 928 b 260 919 250 928 256 925 l 383 754 b 381 735 388 747 388 740 l 331 700 b 311 703 324 696 318 696 l 185 833 l 58 703 b 39 700 51 696 46 696 m 121 -287 b 107 -274 111 -287 107 -283 l 107 606 b 121 619 107 615 111 619 l 249 619 b 263 606 258 619 263 615 l 263 -274 b 249 -287 263 -283 258 -287 "},"Ķ":{"ha":889,"x_min":0,"x_max":0,"o":"m 850 890 b 857 874 861 890 864 883 l 539 517 l 860 17 b 851 0 867 6 864 0 l 688 0 b 671 10 681 0 675 3 l 425 390 l 258 204 l 258 14 b 244 0 258 4 254 0 l 114 0 b 100 14 104 0 100 4 l 100 876 b 114 890 100 886 104 890 l 244 890 b 258 876 254 890 258 886 l 258 422 l 672 883 b 689 890 676 888 682 890 m 469 -65 b 553 -147 519 -65 553 -97 b 514 -243 553 -171 540 -203 l 450 -343 b 432 -347 446 -350 439 -351 l 407 -332 b 403 -312 399 -326 397 -319 l 475 -211 b 458 -214 468 -212 463 -214 b 388 -144 418 -214 388 -187 b 469 -65 388 -100 421 -65 "},"ķ":{"ha":751,"x_min":0,"x_max":0,"o":"m 697 619 b 704 603 710 619 714 613 l 465 372 l 711 17 b 701 0 717 10 713 0 l 553 0 b 536 8 546 0 540 3 l 357 267 l 240 154 l 240 14 b 226 0 240 4 236 0 l 100 0 b 86 14 90 0 86 4 l 86 876 b 100 890 86 886 90 890 l 226 890 b 240 876 236 890 240 886 l 240 344 l 522 613 b 539 619 526 617 532 619 m 394 -65 b 478 -147 444 -65 478 -97 b 439 -243 478 -171 465 -203 l 375 -343 b 357 -347 371 -350 364 -351 l 332 -332 b 328 -312 324 -326 322 -319 l 400 -211 b 383 -214 393 -212 388 -214 b 313 -144 343 -214 313 -187 b 394 -65 313 -100 346 -65 "},"Ĺ":{"ha":658,"x_min":0,"x_max":0,"o":"m 404 1139 b 403 1118 411 1131 410 1124 l 190 951 b 169 953 182 944 175 946 l 143 982 b 143 1001 138 989 138 994 l 325 1199 b 344 1199 331 1206 338 1206 m 260 143 l 613 143 b 626 129 622 143 626 139 l 626 14 b 613 0 626 4 622 0 l 114 0 b 100 14 104 0 100 4 l 100 876 b 114 890 100 886 104 890 l 246 890 b 260 876 256 890 260 886 "},"ĺ":{"ha":326,"x_min":0,"x_max":0,"o":"m 174 1017 b 154 1018 167 1011 160 1011 l 128 1046 b 128 1065 122 1053 122 1058 l 310 1263 b 329 1264 317 1269 322 1271 l 389 1204 b 388 1183 396 1196 394 1189 m 100 0 b 86 14 90 0 86 4 l 86 876 b 100 890 86 886 90 890 l 226 890 b 240 876 236 890 240 886 l 240 14 b 226 0 240 4 236 0 "},"Ļ":{"ha":658,"x_min":0,"x_max":0,"o":"m 260 143 l 613 143 b 626 129 622 143 626 139 l 626 14 b 613 0 626 4 622 0 l 114 0 b 100 14 104 0 100 4 l 100 876 b 114 890 100 886 104 890 l 246 890 b 260 876 256 890 260 886 m 349 -65 b 432 -147 399 -65 432 -97 b 393 -243 432 -171 419 -203 l 329 -343 b 311 -347 325 -350 318 -351 l 286 -332 b 282 -312 278 -326 276 -319 l 354 -211 b 338 -214 347 -212 342 -214 b 267 -144 297 -214 267 -187 b 349 -65 267 -100 300 -65 "},"ļ":{"ha":326,"x_min":0,"x_max":0,"o":"m 226 890 b 240 876 236 890 240 886 l 240 14 b 226 0 240 4 236 0 l 100 0 b 86 14 90 0 86 4 l 86 876 b 100 890 86 886 90 890 m 164 -65 b 247 -147 214 -65 247 -97 b 208 -243 247 -171 235 -203 l 144 -343 b 126 -347 140 -350 133 -351 l 101 -332 b 97 -312 93 -326 92 -319 l 169 -211 b 153 -214 163 -212 157 -214 b 82 -144 113 -214 82 -187 b 164 -65 82 -100 115 -65 "},"Ľ":{"ha":686,"x_min":0,"x_max":0,"o":"m 260 143 l 613 143 b 626 129 622 143 626 139 l 626 14 b 613 0 626 4 622 0 l 114 0 b 100 14 104 0 100 4 l 100 876 b 114 890 100 886 104 890 l 246 890 b 260 876 256 890 260 886 m 453 739 b 382 808 413 739 382 765 b 464 888 382 853 415 888 b 547 806 514 888 547 856 b 508 710 547 782 535 750 l 444 610 b 426 606 440 603 433 601 l 401 621 b 397 640 393 626 392 633 l 471 742 b 453 739 464 740 457 739 "},"ľ":{"ha":326,"x_min":0,"x_max":0,"o":"m 100 0 b 86 14 90 0 86 4 l 86 876 b 100 890 86 886 90 890 l 226 890 b 240 876 236 890 240 886 l 240 14 b 226 0 240 4 236 0 "},"Ŀ":{"ha":686,"x_min":0,"x_max":0,"o":"m 260 143 l 613 143 b 626 129 622 143 626 139 l 626 14 b 613 0 626 4 622 0 l 114 0 b 100 14 104 0 100 4 l 100 876 b 114 890 100 886 104 890 l 246 890 b 260 876 256 890 260 886 m 403 499 b 486 581 403 543 442 581 b 543 442 553 582 599 488 b 403 499 499 389 400 432 "},"ŀ":{"ha":560,"x_min":0,"x_max":0,"o":"m 100 0 b 86 14 90 0 86 4 l 86 876 b 100 890 86 886 90 890 l 226 890 b 240 876 236 890 240 886 l 240 14 b 226 0 240 4 236 0 m 440 349 b 356 432 396 349 356 388 b 500 490 351 503 451 547 b 440 349 556 443 513 346 "},"Ł":{"ha":658,"x_min":0,"x_max":0,"o":"m 260 143 l 613 143 b 626 129 622 143 626 139 l 626 14 b 613 0 626 4 622 0 l 114 0 b 100 14 104 0 100 4 l 100 411 l 22 374 b 6 383 13 368 6 374 l 6 481 b 15 497 6 488 8 493 l 100 538 l 100 876 b 114 890 100 886 104 890 l 246 890 b 260 876 256 890 260 886 l 260 613 l 401 681 b 418 671 411 686 418 681 l 418 574 b 408 557 418 567 415 561 l 260 486 "},"ł":{"ha":404,"x_min":0,"x_max":0,"o":"m 361 649 b 378 638 372 653 378 650 l 378 539 b 367 524 378 532 374 526 l 279 488 l 279 14 b 265 0 279 4 275 0 l 139 0 b 125 14 129 0 125 4 l 125 424 l 43 390 b 26 401 32 386 26 389 l 26 501 b 38 517 26 508 31 514 l 125 553 l 125 876 b 139 890 125 886 129 890 l 265 890 b 279 876 275 890 279 886 l 279 615 "},"Ń":{"ha":911,"x_min":0,"x_max":0,"o":"m 689 1157 b 688 1136 696 1149 694 1142 l 475 969 b 454 971 467 963 460 964 l 428 1000 b 428 1019 422 1007 422 1013 l 610 1217 b 629 1217 615 1224 622 1224 m 664 876 b 678 890 664 886 668 890 l 806 890 b 819 876 815 890 819 886 l 819 14 b 806 0 819 4 815 0 l 682 0 b 665 8 675 0 669 3 l 257 617 l 257 14 b 243 0 257 4 253 0 l 114 0 b 100 14 104 0 100 4 l 100 876 b 114 890 100 886 104 890 l 239 890 b 256 882 246 890 251 888 l 664 269 "},"ń":{"ha":763,"x_min":0,"x_max":0,"o":"m 599 889 b 597 868 606 881 604 874 l 385 701 b 364 703 376 694 369 696 l 338 732 b 338 751 332 739 332 744 l 519 949 b 539 949 525 956 532 956 m 429 639 b 686 375 585 639 686 540 l 686 14 b 672 0 686 4 682 0 l 544 0 b 531 14 535 0 531 4 l 531 351 b 388 499 531 450 483 499 b 240 422 321 499 272 474 l 240 14 b 226 0 240 4 236 0 l 100 0 b 86 14 90 0 86 4 l 86 606 b 100 619 86 615 90 619 l 226 619 b 240 606 236 619 240 615 l 240 569 b 429 639 289 615 353 639 "},"Ņ":{"ha":911,"x_min":0,"x_max":0,"o":"m 664 876 b 678 890 664 886 668 890 l 806 890 b 819 876 815 890 819 886 l 819 14 b 806 0 819 4 815 0 l 682 0 b 665 8 675 0 669 3 l 257 617 l 257 14 b 243 0 257 4 253 0 l 114 0 b 100 14 104 0 100 4 l 100 876 b 114 890 100 886 104 890 l 239 890 b 256 882 246 890 251 888 l 664 269 m 460 -65 b 543 -147 510 -65 543 -97 b 504 -243 543 -171 531 -203 l 440 -343 b 422 -347 436 -350 429 -351 l 397 -332 b 393 -312 389 -326 388 -319 l 465 -211 b 449 -214 458 -212 453 -214 b 378 -144 408 -214 378 -187 b 460 -65 378 -100 411 -65 "},"ņ":{"ha":763,"x_min":0,"x_max":0,"o":"m 429 639 b 686 375 585 639 686 540 l 686 14 b 672 0 686 4 682 0 l 544 0 b 531 14 535 0 531 4 l 531 351 b 388 499 531 450 483 499 b 240 422 321 499 272 474 l 240 14 b 226 0 240 4 236 0 l 100 0 b 86 14 90 0 86 4 l 86 606 b 100 619 86 615 90 619 l 226 619 b 240 606 236 619 240 615 l 240 569 b 429 639 289 615 353 639 m 376 -65 b 460 -147 426 -65 460 -97 b 421 -243 460 -171 447 -203 l 357 -343 b 339 -347 353 -350 346 -351 l 314 -332 b 310 -312 306 -326 304 -319 l 382 -211 b 365 -214 375 -212 369 -214 b 294 -144 325 -214 294 -187 b 376 -65 294 -100 328 -65 "},"Ň":{"ha":911,"x_min":0,"x_max":0,"o":"m 542 972 b 524 964 538 967 532 964 l 407 964 b 389 972 399 964 393 967 l 267 1138 b 269 1157 263 1144 263 1151 l 319 1193 b 339 1190 326 1197 333 1197 l 465 1058 l 592 1190 b 611 1193 597 1197 604 1197 l 661 1157 b 664 1138 668 1151 668 1144 m 664 876 b 678 890 664 886 668 890 l 806 890 b 819 876 815 890 819 886 l 819 14 b 806 0 819 4 815 0 l 682 0 b 665 8 675 0 669 3 l 257 617 l 257 14 b 243 0 257 4 253 0 l 114 0 b 100 14 104 0 100 4 l 100 876 b 114 890 100 886 104 890 l 239 890 b 256 882 246 890 251 888 l 664 269 "},"ň":{"ha":763,"x_min":0,"x_max":0,"o":"m 450 704 b 432 696 446 699 440 696 l 315 696 b 297 704 307 696 301 699 l 175 869 b 178 889 171 876 171 883 l 228 925 b 247 922 235 929 240 928 l 374 790 l 500 922 b 519 925 506 928 513 929 l 569 889 b 572 869 576 883 576 876 m 429 639 b 686 375 585 639 686 540 l 686 14 b 672 0 686 4 682 0 l 544 0 b 531 14 535 0 531 4 l 531 351 b 388 499 531 450 483 499 b 240 422 321 499 272 474 l 240 14 b 226 0 240 4 236 0 l 100 0 b 86 14 90 0 86 4 l 86 606 b 100 619 86 615 90 619 l 226 619 b 240 606 236 619 240 615 l 240 569 b 429 639 289 615 353 639 "},"Ŋ":{"ha":946,"x_min":0,"x_max":0,"o":"m 114 0 b 100 14 104 0 100 4 l 100 876 b 114 890 100 886 104 890 l 250 890 b 267 882 257 890 263 888 l 686 260 l 686 876 b 700 890 686 886 690 890 l 833 890 b 847 876 843 890 847 886 l 847 -75 b 800 -206 847 -129 832 -174 b 569 -268 739 -272 657 -283 b 557 -253 561 -267 557 -262 l 557 -157 b 571 -143 557 -147 561 -143 l 618 -143 b 701 -49 674 -143 701 -111 l 701 0 l 697 0 b 681 8 690 0 685 3 l 261 628 l 261 14 b 247 0 261 4 257 0 "},"ŋ":{"ha":763,"x_min":0,"x_max":0,"o":"m 429 639 b 686 375 585 639 686 540 l 686 -49 b 442 -231 686 -225 533 -254 b 431 -215 435 -229 431 -224 l 431 -124 b 446 -110 431 -114 436 -110 b 531 -32 503 -117 531 -90 l 531 351 b 388 499 531 450 483 499 b 240 422 321 499 272 474 l 240 14 b 226 0 240 4 236 0 l 100 0 b 86 14 90 0 86 4 l 86 606 b 100 619 86 615 90 619 l 226 619 b 240 606 236 619 240 615 l 240 569 b 429 639 289 615 353 639 "},"Ō":{"ha":1036,"x_min":0,"x_max":0,"o":"m 335 1068 b 349 1082 335 1078 339 1082 l 686 1082 b 700 1068 696 1082 700 1078 l 700 988 b 686 974 700 978 696 974 l 349 974 b 335 988 339 974 335 978 m 986 446 b 853 111 986 310 942 199 b 518 -18 764 25 653 -18 b 182 111 383 -18 271 25 b 50 444 94 197 50 308 b 182 778 50 581 94 692 b 518 908 269 865 382 908 b 853 778 653 908 764 865 b 986 446 942 692 986 581 m 819 446 b 735 672 819 539 792 614 b 519 761 678 732 607 761 b 301 672 432 761 358 732 b 215 444 244 614 215 538 b 300 217 215 351 243 275 b 518 129 357 158 431 129 b 733 217 606 129 676 158 b 819 446 790 276 819 353 "},"ō":{"ha":776,"x_min":0,"x_max":0,"o":"m 204 799 b 218 813 204 808 208 813 l 556 813 b 569 799 565 813 569 808 l 569 718 b 556 704 569 708 565 704 l 218 704 b 204 718 208 704 204 708 m 50 310 b 143 546 50 406 81 485 b 388 639 206 608 286 639 b 632 546 489 639 569 608 b 726 310 694 485 726 406 b 632 74 726 214 694 136 b 388 -18 569 13 489 -18 b 143 74 288 -18 206 13 b 50 310 81 136 50 214 m 388 121 b 568 311 494 121 568 200 b 388 500 568 421 494 500 b 208 311 282 500 208 422 b 388 121 208 200 282 121 "},"Ő":{"ha":1036,"x_min":0,"x_max":0,"o":"m 408 971 b 388 972 400 964 393 965 l 361 1001 b 361 1021 356 1008 356 1014 l 543 1217 b 563 1218 550 1224 556 1225 l 622 1158 b 621 1138 629 1150 628 1143 m 651 971 b 631 972 643 964 636 965 l 604 1001 b 604 1021 599 1008 599 1014 l 786 1217 b 806 1218 793 1224 799 1225 l 864 1158 b 863 1138 871 1150 869 1143 m 986 446 b 853 111 986 310 942 199 b 518 -18 764 25 653 -18 b 182 111 383 -18 271 25 b 50 444 94 197 50 308 b 182 778 50 581 94 692 b 518 908 269 865 382 908 b 853 778 653 908 764 865 b 986 446 942 692 986 581 m 819 446 b 735 672 819 539 792 614 b 519 761 678 732 607 761 b 301 672 432 761 358 732 b 215 444 244 614 215 538 b 300 217 215 351 243 275 b 518 129 357 158 431 129 b 733 217 606 129 676 158 b 819 446 790 276 819 353 "},"ő":{"ha":776,"x_min":0,"x_max":0,"o":"m 278 701 b 257 703 269 694 263 696 l 231 732 b 231 751 225 739 225 744 l 413 947 b 432 949 419 954 425 956 l 492 889 b 490 868 499 881 497 874 m 521 701 b 500 703 513 694 506 696 l 474 732 b 474 751 468 739 468 744 l 656 947 b 675 949 663 954 668 956 l 733 889 b 732 868 740 881 739 874 m 50 310 b 143 546 50 406 81 485 b 388 639 206 608 286 639 b 632 546 489 639 569 608 b 726 310 694 485 726 406 b 632 74 726 214 694 136 b 388 -18 569 13 489 -18 b 143 74 288 -18 206 13 b 50 310 81 136 50 214 m 388 121 b 568 311 494 121 568 200 b 388 500 568 421 494 500 b 208 311 282 500 208 422 b 388 121 208 200 282 121 "},"Œ":{"ha":1543,"x_min":0,"x_max":0,"o":"m 1471 799 b 1457 785 1471 789 1467 785 l 1036 785 l 1036 544 l 1413 544 b 1426 531 1422 544 1426 540 l 1426 414 b 1413 400 1426 404 1422 400 l 1036 400 l 1036 153 l 1457 153 b 1471 139 1467 153 1471 149 l 1471 14 b 1457 0 1471 4 1467 0 l 889 0 b 875 14 879 0 875 4 l 875 121 b 540 -17 804 36 679 -17 b 183 118 392 -17 274 28 b 50 467 94 208 50 325 b 185 818 50 610 94 726 b 536 956 275 910 392 956 b 875 821 682 956 808 903 l 875 925 b 889 939 875 935 879 939 l 1457 938 b 1471 924 1467 938 1471 933 m 546 799 b 310 707 450 799 371 768 b 219 471 250 646 219 567 b 311 233 219 375 250 296 b 547 142 372 172 451 142 b 782 232 643 142 722 172 b 874 469 843 293 874 372 b 782 707 874 567 843 646 b 546 799 722 768 643 799 "},"œ":{"ha":1286,"x_min":0,"x_max":0,"o":"m 1238 347 b 1233 285 1238 324 1236 303 b 1218 272 1232 276 1226 272 l 772 272 b 954 110 774 172 849 110 b 1131 188 1032 111 1090 138 b 1150 189 1136 196 1143 196 l 1218 122 b 1221 103 1225 115 1225 110 b 946 -18 1164 29 1063 -18 b 669 119 821 -18 729 28 b 388 -18 607 28 513 -18 b 143 74 288 -18 206 13 b 50 310 81 136 50 214 b 143 546 50 406 81 485 b 388 639 206 608 286 639 b 669 503 511 639 606 593 b 938 639 726 593 817 639 b 1154 558 1028 639 1100 613 b 1238 347 1210 504 1238 435 m 1083 379 b 932 511 1082 458 1022 511 b 774 379 843 511 783 461 m 388 121 b 568 311 494 121 568 200 b 388 500 568 421 494 500 b 208 311 282 500 208 422 b 388 121 208 200 282 121 "},"Ŕ":{"ha":821,"x_min":0,"x_max":0,"o":"m 604 1140 b 603 1119 611 1132 610 1125 l 390 953 b 369 954 382 946 375 947 l 343 983 b 343 1003 338 990 338 996 l 525 1200 b 544 1200 531 1207 538 1207 m 776 17 b 768 0 783 10 779 0 l 611 0 b 594 8 604 0 599 3 l 318 406 l 257 406 l 257 14 b 243 0 257 4 253 0 l 114 0 b 100 14 104 0 100 4 l 100 876 b 114 890 100 886 104 890 l 483 890 b 754 650 654 890 754 796 b 497 406 754 504 653 410 m 257 522 l 458 522 b 589 638 543 522 589 565 b 458 754 589 711 542 754 l 257 754 "},"ŕ":{"ha":500,"x_min":0,"x_max":0,"o":"m 403 868 b 401 847 410 860 408 853 l 189 681 b 168 682 181 674 174 675 l 142 711 b 142 731 136 718 136 724 l 324 928 b 343 928 329 935 336 935 m 413 631 b 463 626 431 631 447 629 b 475 611 471 625 475 621 l 475 499 b 460 486 475 489 469 485 b 413 490 444 489 428 490 b 235 388 326 490 267 456 l 233 14 b 219 0 233 4 229 0 l 93 0 b 79 14 83 0 79 4 l 79 606 b 93 619 79 615 83 619 l 221 619 b 235 606 231 619 235 615 l 235 544 b 413 631 272 601 332 631 "},"Ŗ":{"ha":821,"x_min":0,"x_max":0,"o":"m 776 17 b 768 0 783 10 779 0 l 611 0 b 594 8 604 0 599 3 l 318 406 l 257 406 l 257 14 b 243 0 257 4 253 0 l 114 0 b 100 14 104 0 100 4 l 100 876 b 114 890 100 886 104 890 l 483 890 b 754 650 654 890 754 796 b 497 406 754 504 653 410 m 257 522 l 458 522 b 589 638 543 522 589 565 b 458 754 589 711 542 754 l 257 754 m 432 -64 b 515 -146 482 -64 515 -96 b 476 -242 515 -169 503 -201 l 413 -342 b 394 -346 408 -349 401 -350 l 369 -331 b 365 -311 361 -325 360 -318 l 438 -210 b 421 -212 431 -211 425 -212 b 350 -143 381 -212 350 -186 b 432 -64 350 -99 383 -64 "},"ŗ":{"ha":500,"x_min":0,"x_max":0,"o":"m 413 631 b 463 626 431 631 447 629 b 475 611 471 625 475 621 l 475 499 b 460 486 475 489 469 485 b 413 490 444 489 428 490 b 235 388 326 490 267 456 l 233 14 b 219 0 233 4 229 0 l 93 0 b 79 14 83 0 79 4 l 79 606 b 93 619 79 615 83 619 l 221 619 b 235 606 231 619 235 615 l 235 544 b 413 631 272 601 332 631 m 156 -65 b 239 -147 206 -65 239 -97 b 200 -243 239 -171 226 -203 l 136 -343 b 118 -347 132 -350 125 -351 l 93 -332 b 89 -312 85 -326 83 -319 l 161 -211 b 144 -214 154 -212 149 -214 b 74 -144 104 -214 74 -187 b 156 -65 74 -100 107 -65 "},"Ř":{"ha":821,"x_min":0,"x_max":0,"o":"m 456 956 b 438 947 451 950 446 947 l 321 947 b 303 956 313 947 307 950 l 181 1121 b 183 1140 176 1128 176 1135 l 233 1176 b 253 1174 240 1181 246 1181 l 379 1042 l 506 1174 b 525 1176 511 1181 518 1181 l 575 1140 b 578 1121 582 1135 582 1128 m 776 17 b 768 0 783 10 779 0 l 611 0 b 594 8 604 0 599 3 l 318 406 l 257 406 l 257 14 b 243 0 257 4 253 0 l 114 0 b 100 14 104 0 100 4 l 100 876 b 114 890 100 886 104 890 l 483 890 b 754 650 654 890 754 796 b 497 406 754 504 653 410 m 257 522 l 458 522 b 589 638 543 522 589 565 b 458 754 589 711 542 754 l 257 754 "},"ř":{"ha":500,"x_min":0,"x_max":0,"o":"m 254 683 b 236 675 250 678 244 675 l 119 675 b 101 683 111 675 106 678 l -21 849 b -18 868 -25 856 -25 863 l 32 904 b 51 901 39 908 44 907 l 178 769 l 304 901 b 324 904 310 907 317 908 l 374 868 b 376 849 381 863 381 856 m 413 631 b 463 626 431 631 447 629 b 475 611 471 625 475 621 l 475 499 b 460 486 475 489 469 485 b 413 490 444 489 428 490 b 235 388 326 490 267 456 l 233 14 b 219 0 233 4 229 0 l 93 0 b 79 14 83 0 79 4 l 79 606 b 93 619 79 615 83 619 l 221 619 b 235 606 231 619 235 615 l 235 544 b 413 631 272 601 332 631 "},"Ś":{"ha":774,"x_min":0,"x_max":0,"o":"m 378 971 b 357 972 369 964 363 965 l 331 1001 b 331 1021 325 1008 325 1014 l 513 1217 b 532 1218 519 1224 525 1225 l 592 1158 b 590 1138 599 1150 597 1143 m 383 -17 b 57 78 249 -17 140 15 b 53 96 50 82 49 88 l 93 190 b 113 194 97 199 104 200 b 378 111 189 139 278 111 b 558 239 494 111 558 157 b 508 332 558 282 543 314 b 419 369 475 353 463 357 l 326 396 b 242 422 292 406 263 415 b 164 463 221 431 196 444 b 71 647 103 501 71 564 b 160 838 71 728 100 792 b 393 908 219 885 297 908 b 688 829 506 908 603 882 b 693 811 694 825 696 819 l 653 715 b 635 710 649 706 643 704 b 401 778 564 756 486 778 b 236 656 296 778 236 732 b 382 532 236 582 283 558 l 483 506 b 603 460 529 493 553 488 b 726 249 674 424 721 361 b 383 -17 726 83 600 -17 "},"ś":{"ha":614,"x_min":0,"x_max":0,"o":"m 315 701 b 294 703 307 694 300 696 l 268 732 b 268 751 263 739 263 744 l 450 947 b 469 949 457 954 463 956 l 529 889 b 528 868 536 881 535 874 m 301 -18 b 60 50 201 -18 121 4 b 54 68 53 54 51 60 l 90 154 b 108 158 94 163 100 164 b 299 104 163 122 226 104 b 408 171 372 104 408 126 b 393 210 408 186 403 200 b 332 238 375 231 364 231 l 232 264 b 63 443 125 290 63 342 b 311 639 63 560 163 639 b 532 585 393 639 467 621 b 539 565 540 581 543 574 l 503 479 b 485 474 499 469 493 468 b 319 518 435 503 379 518 b 219 453 253 518 219 496 b 232 418 219 439 224 428 b 293 392 250 401 260 399 l 406 364 b 568 183 514 338 568 276 b 301 -18 568 57 464 -18 "},"Ŝ":{"ha":774,"x_min":0,"x_max":0,"o":"m 171 999 b 168 1018 164 1004 164 1011 l 290 1183 b 308 1192 294 1189 300 1192 l 424 1192 b 442 1183 432 1192 438 1189 l 565 1018 b 563 999 569 1011 569 1004 l 513 964 b 493 967 506 960 500 960 l 367 1097 l 240 967 b 221 964 233 960 228 960 m 383 -17 b 57 78 249 -17 140 15 b 53 96 50 82 49 88 l 93 190 b 113 194 97 199 104 200 b 378 111 189 139 278 111 b 558 239 494 111 558 157 b 508 332 558 282 543 314 b 419 369 475 353 463 357 l 326 396 b 242 422 292 406 263 415 b 164 463 221 431 196 444 b 71 647 103 501 71 564 b 160 838 71 728 100 792 b 393 908 219 885 297 908 b 688 829 506 908 603 882 b 693 811 694 825 696 819 l 653 715 b 635 710 649 706 643 704 b 401 778 564 756 486 778 b 236 656 296 778 236 732 b 382 532 236 582 283 558 l 483 506 b 603 460 529 493 553 488 b 726 249 674 424 721 361 b 383 -17 726 83 600 -17 "},"ŝ":{"ha":614,"x_min":0,"x_max":0,"o":"m 108 729 b 106 749 101 735 101 742 l 228 914 b 246 922 232 919 238 922 l 361 922 b 379 914 369 922 375 919 l 503 749 b 500 729 507 742 507 735 l 450 694 b 431 697 443 690 438 690 l 304 828 l 178 697 b 158 694 171 690 165 690 m 301 -18 b 60 50 201 -18 121 4 b 54 68 53 54 51 60 l 90 154 b 108 158 94 163 100 164 b 299 104 163 122 226 104 b 408 171 372 104 408 126 b 393 210 408 186 403 200 b 332 238 375 231 364 231 l 232 264 b 63 443 125 290 63 342 b 311 639 63 560 163 639 b 532 585 393 639 467 621 b 539 565 540 581 543 574 l 503 479 b 485 474 499 469 493 468 b 319 518 435 503 379 518 b 219 453 253 518 219 496 b 232 418 219 439 224 428 b 293 392 250 401 260 399 l 406 364 b 568 183 514 338 568 276 b 301 -18 568 57 464 -18 "},"Ş":{"ha":774,"x_min":0,"x_max":0,"o":"m 726 249 b 414 -17 726 93 613 -7 l 379 -68 b 472 -89 411 -62 443 -69 b 518 -185 503 -110 518 -142 b 472 -283 518 -226 503 -260 b 263 -299 411 -333 329 -326 b 253 -282 256 -294 253 -289 l 253 -231 b 268 -222 253 -219 258 -217 b 360 -239 293 -240 324 -246 b 414 -181 396 -232 414 -212 b 325 -125 414 -140 375 -115 b 306 -119 317 -126 310 -124 l 286 -100 b 285 -81 281 -94 281 -87 l 328 -14 b 57 78 218 -4 128 26 b 53 96 50 82 49 88 l 93 190 b 113 194 97 199 104 200 b 378 111 189 139 278 111 b 558 239 494 111 558 157 b 508 332 558 282 543 314 b 419 369 475 353 463 357 l 326 396 b 242 422 292 406 263 415 b 164 463 221 431 196 444 b 71 647 103 501 71 564 b 160 838 71 728 100 792 b 393 908 219 885 297 908 b 688 829 506 908 603 882 b 693 811 694 825 696 819 l 653 715 b 635 710 649 706 643 704 b 401 778 564 756 486 778 b 236 656 296 778 236 732 b 382 532 236 582 283 558 l 483 506 b 603 460 529 493 553 488 b 726 249 674 424 721 361 "},"ş":{"ha":614,"x_min":0,"x_max":0,"o":"m 568 183 b 342 -17 568 68 481 -6 l 313 -58 b 407 -81 346 -54 378 -61 b 453 -175 438 -100 453 -132 b 196 -290 453 -308 289 -339 b 186 -274 189 -286 186 -281 l 186 -222 b 201 -214 186 -211 192 -208 b 293 -229 228 -232 258 -236 b 347 -172 329 -222 347 -204 b 258 -117 347 -129 310 -107 b 240 -111 250 -118 244 -115 l 221 -92 b 219 -72 217 -85 215 -79 l 256 -17 b 60 50 172 -7 107 15 b 54 68 53 54 51 60 l 90 154 b 108 158 94 163 100 164 b 299 104 163 122 226 104 b 408 171 372 104 408 126 b 393 210 408 186 403 200 b 332 238 375 231 364 231 l 232 264 b 63 443 125 290 63 342 b 311 639 63 560 163 639 b 532 585 393 639 467 621 b 539 565 540 581 543 574 l 503 479 b 485 474 499 469 493 468 b 319 518 435 503 379 518 b 219 453 253 518 219 496 b 232 418 219 439 224 428 b 293 392 250 401 260 399 l 406 364 b 568 183 514 338 568 276 "},"Š":{"ha":774,"x_min":0,"x_max":0,"o":"m 169 1139 b 172 1158 165 1146 165 1153 l 222 1194 b 242 1192 229 1199 236 1197 l 368 1060 l 494 1192 b 514 1194 500 1197 507 1199 l 564 1158 b 567 1139 571 1153 571 1146 l 444 974 b 426 965 440 968 435 965 l 310 965 b 292 974 301 965 296 968 m 383 -17 b 57 78 249 -17 140 15 b 53 96 50 82 49 88 l 93 190 b 113 194 97 199 104 200 b 378 111 189 139 278 111 b 558 239 494 111 558 157 b 508 332 558 282 543 314 b 419 369 475 353 463 357 l 326 396 b 242 422 292 406 263 415 b 164 463 221 431 196 444 b 71 647 103 501 71 564 b 160 838 71 728 100 792 b 393 908 219 885 297 908 b 688 829 506 908 603 882 b 693 811 694 825 696 819 l 653 715 b 635 710 649 706 643 704 b 401 778 564 756 486 778 b 236 656 296 778 236 732 b 382 532 236 582 283 558 l 483 506 b 603 460 529 493 553 488 b 726 249 674 424 721 361 b 383 -17 726 83 600 -17 "},"š":{"ha":614,"x_min":0,"x_max":0,"o":"m 106 869 b 108 889 101 876 101 883 l 158 925 b 178 922 165 929 171 928 l 304 790 l 431 922 b 450 925 436 928 443 929 l 500 889 b 503 869 507 883 507 876 l 381 704 b 363 696 376 699 371 696 l 246 696 b 228 704 238 696 232 699 m 301 -18 b 60 50 201 -18 121 4 b 54 68 53 54 51 60 l 90 154 b 108 158 94 163 100 164 b 299 104 163 122 226 104 b 408 171 372 104 408 126 b 393 210 408 186 403 200 b 332 238 375 231 364 231 l 232 264 b 63 443 125 290 63 342 b 311 639 63 560 163 639 b 532 585 393 639 467 621 b 539 565 540 581 543 574 l 503 479 b 485 474 499 469 493 468 b 319 518 435 503 379 518 b 219 453 253 518 219 496 b 232 418 219 439 224 428 b 293 392 250 401 260 399 l 406 364 b 568 183 514 338 568 276 b 301 -18 568 57 464 -18 "},"Ţ":{"ha":742,"x_min":0,"x_max":0,"o":"m 450 0 l 450 -1 l 406 -68 b 499 -89 438 -62 469 -69 b 544 -185 529 -110 544 -142 b 499 -283 544 -226 529 -260 b 289 -299 438 -333 356 -326 b 279 -282 282 -294 279 -289 l 279 -231 b 294 -222 279 -219 285 -217 b 386 -239 319 -240 350 -246 b 440 -181 422 -232 440 -212 b 351 -125 440 -140 401 -115 b 332 -119 343 -126 336 -124 l 313 -100 b 311 -81 307 -94 307 -87 l 364 0 l 308 0 b 294 14 299 0 294 4 l 294 747 l 35 747 b 21 761 25 747 21 751 l 21 876 b 35 890 21 886 25 890 l 707 890 b 721 876 717 890 721 886 l 721 761 b 707 747 721 751 717 747 l 451 747 l 451 0 "},"ţ":{"ha":601,"x_min":0,"x_max":0,"o":"m 565 504 b 551 490 565 494 561 490 l 353 490 l 353 233 b 471 117 353 156 392 117 b 543 126 492 117 515 119 b 558 114 553 129 558 125 l 558 14 b 546 -1 558 4 554 0 b 440 -17 511 -10 475 -15 l 403 -74 b 496 -94 435 -68 467 -75 b 542 -190 526 -115 542 -147 b 496 -289 542 -232 526 -265 b 286 -304 435 -339 353 -332 b 276 -287 279 -300 276 -294 l 276 -236 b 292 -228 276 -225 282 -222 b 383 -244 317 -246 347 -251 b 438 -186 419 -237 438 -218 b 349 -131 438 -146 399 -121 b 329 -125 340 -132 333 -129 l 310 -106 b 308 -86 304 -100 304 -93 l 358 -10 b 197 215 251 14 197 89 l 197 490 l 35 490 b 21 504 25 490 21 494 l 21 606 b 35 619 21 615 25 619 l 197 619 l 197 876 b 211 890 197 886 201 890 l 339 890 b 353 876 349 890 353 886 l 353 619 l 551 619 b 565 606 561 619 565 615 "},"Ť":{"ha":742,"x_min":0,"x_max":0,"o":"m 449 956 b 431 947 444 950 439 947 l 314 947 b 296 956 306 947 300 950 l 174 1121 b 176 1140 169 1128 169 1135 l 226 1176 b 246 1174 233 1181 239 1181 l 372 1042 l 499 1174 b 518 1176 504 1181 511 1181 l 568 1140 b 571 1121 575 1135 575 1128 m 707 890 b 721 876 717 890 721 886 l 721 761 b 707 747 721 751 717 747 l 451 747 l 451 14 b 438 0 451 4 447 0 l 308 0 b 294 14 299 0 294 4 l 294 747 l 35 747 b 21 761 25 747 21 751 l 21 876 b 35 890 21 886 25 890 "},"ť":{"ha":546,"x_min":0,"x_max":0,"o":"m 518 935 b 532 919 528 935 533 926 l 506 703 b 492 690 504 694 500 690 l 438 690 b 424 704 428 690 424 694 l 424 921 b 438 935 424 931 428 935 m 565 504 b 551 490 565 494 561 490 l 353 490 l 353 233 b 471 117 353 156 392 117 b 543 126 492 117 515 119 b 558 114 553 129 558 125 l 558 14 b 546 -1 558 4 554 0 b 429 -17 507 -11 468 -17 b 197 215 281 -17 197 61 l 197 490 l 35 490 b 21 504 25 490 21 494 l 21 606 b 35 619 21 615 25 619 l 197 619 l 197 876 b 211 890 197 886 201 890 l 339 890 b 353 876 349 890 353 886 l 353 619 l 551 619 b 565 606 561 619 565 615 "},"Ŧ":{"ha":742,"x_min":0,"x_max":0,"o":"m 721 761 b 707 747 721 751 717 747 l 451 747 l 451 504 l 624 504 b 638 490 633 504 638 500 l 638 385 b 624 371 638 375 633 371 l 451 371 l 451 14 b 438 0 451 4 447 0 l 308 0 b 294 14 299 0 294 4 l 294 371 l 124 371 b 110 385 114 371 110 375 l 110 490 b 124 504 110 500 114 504 l 294 504 l 294 747 l 35 747 b 21 761 25 747 21 751 l 21 876 b 35 890 21 886 25 890 l 707 890 b 721 876 717 890 721 886 "},"ŧ":{"ha":597,"x_min":0,"x_max":0,"o":"m 565 504 b 551 490 565 494 561 490 l 353 490 l 353 390 l 551 390 b 565 376 561 390 565 386 l 565 289 b 551 275 565 279 561 275 l 353 275 l 353 233 b 471 117 353 156 392 117 b 543 126 492 117 515 119 b 558 114 553 129 558 125 l 558 14 b 546 -1 558 4 554 0 b 429 -17 507 -11 468 -17 b 197 215 281 -17 197 61 l 197 275 l 35 275 b 21 289 25 275 21 279 l 21 376 b 35 390 21 386 25 390 l 197 390 l 197 490 l 35 490 b 21 504 25 490 21 494 l 21 606 b 35 619 21 615 25 619 l 197 619 l 197 876 b 211 890 197 886 201 890 l 339 890 b 353 876 349 890 353 886 l 353 619 l 551 619 b 565 606 561 619 565 615 "},"Ũ":{"ha":921,"x_min":0,"x_max":0,"o":"m 282 951 b 268 964 272 951 268 956 b 372 1125 256 1063 300 1125 b 463 1093 399 1125 428 1114 b 535 1063 497 1072 522 1063 b 575 1110 560 1063 574 1078 b 589 1124 575 1119 579 1124 l 639 1124 b 653 1111 649 1124 653 1119 b 546 958 665 1021 619 958 b 453 988 519 958 488 968 b 385 1018 418 1008 396 1018 b 346 965 358 1018 346 1000 b 332 951 346 956 342 951 m 93 876 b 107 890 93 886 97 890 l 236 890 b 250 876 246 890 250 886 l 250 325 b 460 126 251 186 338 126 b 671 325 588 126 671 196 l 671 876 b 685 890 671 886 675 890 l 814 890 b 828 876 824 890 828 886 l 828 319 b 725 69 828 211 793 128 b 460 -18 657 11 568 -18 b 194 69 351 -18 263 11 b 93 319 126 128 93 211 "},"ũ":{"ha":744,"x_min":0,"x_max":0,"o":"m 257 694 b 243 681 257 685 253 681 l 193 681 b 179 693 183 681 179 685 b 283 854 167 792 211 854 b 374 822 310 854 339 843 b 446 792 408 801 433 792 b 486 839 471 792 485 807 b 500 853 486 849 490 853 l 550 853 b 564 840 560 853 564 849 b 457 688 576 750 531 688 b 364 717 431 688 399 697 b 296 747 329 738 307 747 b 257 694 269 747 257 729 m 510 606 b 524 619 510 615 514 619 l 651 619 b 665 606 661 619 665 615 l 665 14 b 651 0 665 4 661 0 l 524 0 b 510 14 514 0 510 4 l 510 51 b 318 -18 458 6 394 -18 b 79 244 167 -18 79 78 l 79 606 b 93 619 79 615 83 619 l 219 619 b 233 606 229 619 233 615 l 233 271 b 367 119 233 169 278 119 b 510 192 431 119 478 143 "},"Ū":{"ha":921,"x_min":0,"x_max":0,"o":"m 278 1050 b 292 1064 278 1060 282 1064 l 629 1064 b 643 1050 639 1064 643 1060 l 643 969 b 629 956 643 960 639 956 l 292 956 b 278 969 282 956 278 960 m 93 876 b 107 890 93 886 97 890 l 236 890 b 250 876 246 890 250 886 l 250 325 b 460 126 251 186 338 126 b 671 325 588 126 671 196 l 671 876 b 685 890 671 886 675 890 l 814 890 b 828 876 824 890 828 886 l 828 319 b 725 69 828 211 793 128 b 460 -18 657 11 568 -18 b 194 69 351 -18 263 11 b 93 319 126 128 93 211 "},"ū":{"ha":744,"x_min":0,"x_max":0,"o":"m 540 793 b 554 779 550 793 554 789 l 554 699 b 540 685 554 689 550 685 l 203 685 b 189 699 193 685 189 689 l 189 779 b 203 793 189 789 193 793 m 510 606 b 524 619 510 615 514 619 l 651 619 b 665 606 661 619 665 615 l 665 14 b 651 0 665 4 661 0 l 524 0 b 510 14 514 0 510 4 l 510 51 b 318 -18 458 6 394 -18 b 79 244 167 -18 79 78 l 79 606 b 93 619 79 615 83 619 l 219 619 b 233 606 229 619 233 615 l 233 271 b 367 119 233 169 278 119 b 510 192 431 119 478 143 "},"Ů":{"ha":921,"x_min":0,"x_max":0,"o":"m 461 924 b 290 1083 357 924 290 996 b 461 1244 290 1172 357 1244 b 583 1196 511 1244 551 1228 b 631 1083 615 1164 631 1126 b 461 924 631 996 563 924 m 529 1086 b 461 1156 529 1125 499 1156 b 393 1086 424 1156 393 1126 b 529 1086 386 994 536 994 m 93 876 b 107 890 93 886 97 890 l 236 890 b 250 876 246 890 250 886 l 250 325 b 460 126 251 186 338 126 b 671 325 588 126 671 196 l 671 876 b 685 890 671 886 675 890 l 814 890 b 828 876 824 890 828 886 l 828 319 b 725 69 828 211 793 128 b 460 -18 657 11 568 -18 b 194 69 351 -18 263 11 b 93 319 126 128 93 211 "},"ů":{"ha":744,"x_min":0,"x_max":0,"o":"m 372 653 b 201 813 268 653 201 725 b 372 974 201 901 268 974 b 494 925 422 974 463 957 b 542 813 526 893 542 856 b 372 653 542 725 474 653 m 304 815 b 440 815 297 724 447 724 b 372 885 440 854 410 885 b 304 815 335 885 304 854 m 510 606 b 524 619 510 615 514 619 l 651 619 b 665 606 661 619 665 615 l 665 14 b 651 0 665 4 661 0 l 524 0 b 510 14 514 0 510 4 l 510 51 b 318 -18 458 6 394 -18 b 79 244 167 -18 79 78 l 79 606 b 93 619 79 615 83 619 l 219 619 b 233 606 229 619 233 615 l 233 271 b 367 119 233 169 278 119 b 510 192 431 119 478 143 "},"Ű":{"ha":921,"x_min":0,"x_max":0,"o":"m 349 954 b 329 956 342 949 335 949 l 303 983 b 303 1003 297 990 297 996 l 485 1200 b 504 1201 492 1207 497 1208 l 564 1142 b 563 1121 571 1133 569 1126 m 592 954 b 572 956 585 949 578 949 l 546 983 b 546 1003 540 990 540 996 l 728 1200 b 747 1201 735 1207 740 1208 l 806 1142 b 804 1121 813 1133 811 1126 m 93 876 b 107 890 93 886 97 890 l 236 890 b 250 876 246 890 250 886 l 250 325 b 460 126 251 186 338 126 b 671 325 588 126 671 196 l 671 876 b 685 890 671 886 675 890 l 814 890 b 828 876 824 890 828 886 l 828 319 b 725 69 828 211 793 128 b 460 -18 657 11 568 -18 b 194 69 351 -18 263 11 b 93 319 126 128 93 211 "},"ű":{"ha":744,"x_min":0,"x_max":0,"o":"m 475 871 b 474 850 482 863 481 856 l 260 683 b 240 685 253 678 247 678 l 214 713 b 214 732 208 719 208 725 l 396 929 b 415 931 403 936 408 938 m 503 683 b 483 685 496 678 489 678 l 457 713 b 457 732 451 719 451 725 l 639 929 b 658 931 646 936 651 938 l 717 871 b 715 850 724 863 722 856 m 510 606 b 524 619 510 615 514 619 l 651 619 b 665 606 661 619 665 615 l 665 14 b 651 0 665 4 661 0 l 524 0 b 510 14 514 0 510 4 l 510 51 b 318 -18 458 6 394 -18 b 79 244 167 -18 79 78 l 79 606 b 93 619 79 615 83 619 l 219 619 b 233 606 229 619 233 615 l 233 271 b 367 119 233 169 278 119 b 510 192 431 119 478 143 "},"Ų":{"ha":921,"x_min":0,"x_max":0,"o":"m 671 876 b 685 890 671 886 675 890 l 814 890 b 828 876 824 890 828 886 l 828 319 b 508 -15 828 119 701 1 b 451 -101 471 -39 451 -67 b 510 -154 451 -135 475 -154 b 547 -147 521 -154 533 -151 b 564 -157 557 -144 563 -147 l 572 -210 b 563 -228 574 -218 571 -224 b 483 -243 538 -237 511 -243 b 351 -125 404 -243 351 -196 b 401 -15 351 -82 368 -46 b 93 319 214 6 93 124 l 93 876 b 107 890 93 886 97 890 l 236 890 b 250 876 246 890 250 886 l 250 325 b 460 126 251 186 338 126 b 671 325 588 126 671 196 "},"ų":{"ha":744,"x_min":0,"x_max":0,"o":"m 664 -147 b 681 -157 674 -144 679 -147 l 689 -210 b 679 -228 690 -218 688 -224 b 600 -243 654 -237 628 -243 b 468 -125 521 -243 468 -196 b 536 0 468 -76 490 -35 l 524 0 b 510 14 514 0 510 4 l 510 51 b 318 -18 458 6 394 -18 b 79 244 167 -18 79 78 l 79 606 b 93 619 79 615 83 619 l 219 619 b 233 606 229 619 233 615 l 233 271 b 367 119 233 169 278 119 b 510 192 431 119 478 143 l 510 606 b 524 619 510 615 514 619 l 651 619 b 665 606 661 619 665 615 l 665 14 b 663 0 665 4 664 0 l 660 0 b 568 -101 604 -18 568 -58 b 626 -154 568 -135 592 -154 b 664 -147 638 -154 650 -151 "},"Ŵ":{"ha":1540,"x_min":0,"x_max":0,"o":"m 769 1079 l 643 949 b 624 946 636 942 631 942 l 574 981 b 571 1000 567 986 567 993 l 693 1165 b 711 1174 697 1171 703 1174 l 828 1174 b 846 1165 836 1174 842 1171 l 968 1000 b 965 981 972 993 972 986 l 915 946 b 896 949 908 942 903 942 m 1336 879 b 1351 890 1339 886 1344 890 l 1506 890 b 1517 874 1518 890 1521 885 l 1165 11 b 1150 0 1163 4 1157 0 l 1021 0 b 1006 11 1014 0 1008 4 l 769 642 l 533 11 b 518 0 531 4 525 0 l 388 0 b 372 11 381 0 375 4 l 24 874 b 35 890 19 885 22 890 l 189 890 b 204 879 196 890 201 886 l 454 228 l 689 856 b 704 867 692 863 697 867 l 836 867 b 851 856 843 867 849 863 l 1085 228 "},"ŵ":{"ha":1146,"x_min":0,"x_max":0,"o":"m 575 808 l 449 678 b 429 675 442 671 436 671 l 379 710 b 376 729 372 715 372 722 l 499 894 b 517 903 503 900 508 903 l 633 903 b 651 894 642 903 647 900 l 774 729 b 771 710 778 722 778 715 l 721 675 b 701 678 714 671 708 671 m 965 608 b 981 619 968 615 974 619 l 1119 619 b 1131 603 1132 619 1135 614 l 865 11 b 850 0 863 4 857 0 l 738 0 b 721 11 729 0 724 4 l 574 411 l 415 11 b 400 0 413 4 407 0 l 288 0 b 272 11 281 0 275 4 l 15 603 b 26 619 11 614 14 619 l 168 619 b 183 608 175 619 181 615 l 350 201 l 500 592 b 515 603 503 599 508 603 l 632 603 b 647 592 639 603 644 599 l 792 201 "},"Ŷ":{"ha":847,"x_min":0,"x_max":0,"o":"m 232 979 b 229 999 225 985 225 992 l 351 1164 b 369 1172 356 1169 361 1172 l 486 1172 b 504 1164 494 1172 500 1169 l 626 999 b 624 979 631 992 631 985 l 574 944 b 554 947 567 940 561 940 l 428 1078 l 301 947 b 282 944 294 940 289 940 m 8 874 b 17 890 1 885 4 890 l 169 890 b 186 881 176 890 182 888 l 426 511 l 667 881 b 683 890 671 888 676 890 l 831 890 b 839 874 843 890 846 885 l 504 358 l 504 14 b 490 0 504 4 500 0 l 360 0 b 346 14 350 0 346 4 l 346 358 "},"ŷ":{"ha":760,"x_min":0,"x_max":0,"o":"m 161 710 b 158 729 154 715 154 722 l 281 894 b 299 903 285 900 290 903 l 415 903 b 433 894 424 903 429 900 l 556 729 b 553 710 560 722 560 715 l 503 675 b 483 678 496 671 490 671 l 357 808 l 231 678 b 211 675 224 671 218 671 m 21 603 b 31 619 17 614 19 619 l 174 619 b 190 610 182 619 188 617 l 378 236 l 569 610 b 586 619 572 617 578 619 l 729 619 b 739 603 739 619 744 613 l 271 -275 b 254 -285 268 -282 263 -285 l 117 -285 b 107 -268 106 -285 103 -279 l 290 79 "},"Ÿ":{"ha":847,"x_min":0,"x_max":0,"o":"m 300 943 b 218 1024 254 943 218 978 b 300 1107 218 1072 254 1107 b 383 1024 349 1107 383 1072 b 300 943 383 978 349 943 m 557 943 b 474 1024 508 943 474 978 b 557 1107 474 1072 508 1107 b 639 1024 603 1107 639 1072 b 557 943 639 978 603 943 m 8 874 b 17 890 1 885 4 890 l 169 890 b 186 881 176 890 182 888 l 426 511 l 667 881 b 683 890 671 888 676 890 l 831 890 b 839 874 843 890 846 885 l 504 358 l 504 14 b 490 0 504 4 500 0 l 360 0 b 346 14 350 0 346 4 l 346 358 "},"Ź":{"ha":813,"x_min":0,"x_max":0,"o":"m 407 953 b 386 954 399 946 392 947 l 360 983 b 360 1003 354 990 354 996 l 542 1199 b 561 1200 549 1206 554 1207 l 621 1140 b 619 1119 628 1132 626 1125 m 67 0 b 53 14 57 0 53 4 l 53 101 b 58 119 53 108 54 115 l 536 747 l 89 747 b 75 761 79 747 75 751 l 75 876 b 89 890 75 886 79 890 l 740 890 b 754 876 750 890 754 886 l 754 794 b 749 776 754 788 753 781 l 272 143 l 743 143 b 757 129 753 143 757 139 l 757 14 b 743 0 757 4 753 0 "},"ź":{"ha":681,"x_min":0,"x_max":0,"o":"m 340 682 b 319 683 332 675 325 676 l 293 713 b 293 732 288 719 288 725 l 475 928 b 494 929 482 935 488 936 l 554 869 b 553 849 561 861 560 854 m 74 0 b 60 14 64 0 60 4 l 60 93 b 67 110 60 97 63 103 l 390 483 l 88 483 b 74 497 78 483 74 488 l 74 606 b 88 619 74 615 78 619 l 593 619 b 607 606 603 619 607 615 l 607 525 b 600 508 607 521 604 515 l 278 138 l 607 138 b 621 124 617 138 621 133 l 621 14 b 607 0 621 4 617 0 "},"Ż":{"ha":813,"x_min":0,"x_max":0,"o":"m 394 950 b 313 1031 349 950 313 985 b 394 1114 313 1079 349 1114 b 478 1031 443 1114 478 1079 b 394 950 478 985 443 950 m 67 0 b 53 14 57 0 53 4 l 53 101 b 58 119 53 108 54 115 l 536 747 l 89 747 b 75 761 79 747 75 751 l 75 876 b 89 890 75 886 79 890 l 740 890 b 754 876 750 890 754 886 l 754 794 b 749 776 754 788 753 781 l 272 143 l 743 143 b 757 129 753 143 757 139 l 757 14 b 743 0 757 4 753 0 "},"ż":{"ha":681,"x_min":0,"x_max":0,"o":"m 329 679 b 247 760 283 679 247 714 b 329 843 247 808 283 843 b 413 760 378 843 413 808 b 329 679 413 714 378 679 m 74 0 b 60 14 64 0 60 4 l 60 93 b 67 110 60 97 63 103 l 390 483 l 88 483 b 74 497 78 483 74 488 l 74 606 b 88 619 74 615 78 619 l 593 619 b 607 606 603 619 607 615 l 607 525 b 600 508 607 521 604 515 l 278 138 l 607 138 b 621 124 617 138 621 133 l 621 14 b 607 0 621 4 617 0 "},"Ž":{"ha":813,"x_min":0,"x_max":0,"o":"m 197 1121 b 200 1140 193 1128 193 1135 l 250 1176 b 269 1174 257 1181 264 1181 l 396 1042 l 522 1174 b 542 1176 528 1181 535 1181 l 592 1140 b 594 1121 599 1135 599 1128 l 472 956 b 454 947 468 950 463 947 l 338 947 b 319 956 329 947 324 950 m 67 0 b 53 14 57 0 53 4 l 53 101 b 58 119 53 108 54 115 l 536 747 l 89 747 b 75 761 79 747 75 751 l 75 876 b 89 890 75 886 79 890 l 740 890 b 754 876 750 890 754 886 l 754 794 b 749 776 754 788 753 781 l 272 143 l 743 143 b 757 129 753 143 757 139 l 757 14 b 743 0 757 4 753 0 "},"ž":{"ha":681,"x_min":0,"x_max":0,"o":"m 132 850 b 135 869 128 857 128 864 l 185 906 b 204 903 192 910 197 908 l 331 771 l 457 903 b 476 906 463 908 469 910 l 526 869 b 529 850 533 864 533 857 l 407 685 b 389 676 403 679 397 676 l 272 676 b 254 685 264 676 258 679 m 74 0 b 60 14 64 0 60 4 l 60 93 b 67 110 60 97 63 103 l 390 483 l 88 483 b 74 497 78 483 74 488 l 74 606 b 88 619 74 615 78 619 l 593 619 b 607 606 603 619 607 615 l 607 525 b 600 508 607 521 604 515 l 278 138 l 607 138 b 621 124 617 138 621 133 l 621 14 b 607 0 621 4 617 0 "},"ƒ":{"ha":856,"x_min":0,"x_max":0,"o":"m 660 753 b 519 638 569 753 532 717 l 513 590 l 736 590 b 750 576 746 590 750 586 l 750 486 b 736 472 750 476 746 472 l 493 472 l 454 218 b 175 0 428 61 338 0 l 82 0 b 68 14 72 0 68 4 l 67 122 b 81 136 67 132 71 136 l 160 136 b 306 276 250 136 290 175 l 338 472 l 182 472 b 168 486 172 472 168 476 l 168 576 b 182 590 168 586 172 590 l 357 590 l 369 671 b 651 890 396 833 486 890 l 736 890 b 750 876 746 890 750 886 l 750 767 b 736 753 750 757 746 753 "},"Ǻ":{"ha":950,"x_min":0,"x_max":0,"o":"m 632 1188 b 624 1171 635 1178 632 1172 l 358 1107 b 342 1117 350 1104 344 1107 l 329 1156 b 338 1174 326 1164 329 1169 l 586 1274 b 604 1265 596 1278 601 1275 m 769 0 b 754 11 763 0 757 4 l 679 193 l 267 193 l 190 11 b 175 0 188 4 182 0 l 31 0 b 19 17 18 0 15 6 l 383 858 b 331 967 349 885 331 921 b 478 1106 331 1043 389 1106 b 625 967 565 1106 625 1043 b 567 856 625 918 606 882 l 929 17 b 918 0 933 6 931 0 m 478 1029 b 418 969 444 1029 418 1003 b 538 969 414 889 542 889 b 478 1029 538 1003 510 1029 m 322 325 l 625 325 l 475 692 "},"ǻ":{"ha":794,"x_min":0,"x_max":0,"o":"m 526 928 b 518 911 529 918 526 913 l 253 847 b 236 857 244 844 239 847 l 224 896 b 232 914 221 904 224 910 l 481 1014 b 497 1006 489 1018 494 1015 m 558 606 b 572 619 558 615 563 619 l 699 619 b 713 606 708 619 713 615 l 713 14 b 699 0 713 4 708 0 l 572 0 b 558 14 563 0 558 4 l 558 61 b 358 -18 513 8 446 -18 b 135 72 267 -18 192 13 b 50 310 78 132 50 211 b 250 622 50 465 126 579 b 221 707 231 646 221 675 b 368 847 221 785 279 847 b 515 707 456 847 515 783 b 481 615 515 672 504 642 b 558 561 513 603 538 585 m 368 647 b 428 710 401 647 428 675 b 326 753 428 764 363 786 b 368 647 290 717 318 647 m 392 122 b 558 211 464 122 531 157 l 558 410 b 392 500 529 465 464 500 b 208 311 282 500 208 424 b 392 122 208 199 282 122 "},"Ǽ":{"ha":1182,"x_min":0,"x_max":0,"o":"m 935 1157 b 933 1136 942 1149 940 1142 l 721 969 b 700 971 713 963 706 964 l 674 1000 b 674 1019 668 1007 668 1013 l 856 1217 b 875 1217 861 1224 868 1224 m 1111 750 b 1097 736 1111 740 1107 736 l 693 738 l 693 524 l 1054 522 b 1068 508 1064 522 1068 518 l 1068 389 b 1054 375 1068 379 1064 375 l 693 376 l 693 153 l 1097 153 b 1111 139 1107 153 1111 149 l 1111 14 b 1097 0 1111 4 1107 0 l 693 1 l 693 0 l 553 0 b 539 14 543 0 539 4 l 539 217 l 281 217 l 201 11 b 186 0 199 4 193 0 l 32 0 b 21 17 19 0 17 6 l 372 879 b 388 890 375 886 381 890 l 1097 890 b 1111 876 1107 890 1111 886 m 539 356 l 539 738 l 482 738 l 335 356 "},"ǽ":{"ha":1254,"x_min":0,"x_max":0,"o":"m 864 869 b 863 849 871 861 869 854 l 650 682 b 629 683 642 675 635 676 l 603 713 b 603 732 597 719 597 725 l 785 929 b 804 929 790 936 797 936 m 1206 347 b 1201 288 1206 324 1204 304 b 1186 275 1200 279 1196 275 l 740 275 b 922 110 742 174 815 110 b 1099 188 1000 111 1058 138 b 1118 189 1104 196 1111 196 l 1186 122 b 1189 103 1193 115 1193 110 b 914 -18 1132 29 1031 -18 b 696 53 826 -18 753 6 l 696 14 b 682 0 696 4 692 0 l 572 0 b 558 14 563 0 558 4 l 558 61 b 358 -18 513 8 446 -18 b 135 72 267 -18 192 13 b 50 310 78 132 50 211 b 135 549 50 408 78 489 b 358 639 192 608 267 639 b 558 561 446 639 513 613 l 558 606 b 572 619 558 615 563 619 l 682 619 b 696 606 692 619 696 615 l 696 569 b 906 639 753 615 822 639 b 1122 558 996 639 1068 613 b 1206 347 1178 504 1206 435 m 1051 379 b 900 511 1050 458 990 511 b 742 379 811 511 751 461 m 392 122 b 558 211 464 122 531 157 l 558 410 b 392 500 529 465 464 500 b 208 311 282 500 208 424 b 392 122 208 199 282 122 "},"Ǿ":{"ha":1036,"x_min":0,"x_max":0,"o":"m 744 1139 b 743 1118 751 1131 750 1124 l 531 951 b 510 953 522 944 515 946 l 483 982 b 483 1001 478 989 478 994 l 665 1199 b 685 1199 671 1206 678 1206 m 518 910 b 853 779 653 910 764 867 b 986 446 942 693 986 582 b 853 113 986 310 942 199 b 518 -17 764 26 653 -17 b 182 113 383 -17 271 26 b 50 446 94 199 50 310 b 182 779 50 581 94 692 b 518 910 269 867 382 910 m 519 763 b 301 674 432 763 358 733 b 215 446 244 615 215 539 b 231 342 215 410 221 375 l 736 672 b 519 763 679 732 607 763 m 518 129 b 733 217 606 129 676 158 b 819 446 790 276 819 353 b 803 560 819 488 814 525 l 296 222 b 518 129 353 160 428 129 "},"ǿ":{"ha":776,"x_min":0,"x_max":0,"o":"m 613 889 b 611 868 619 881 618 874 l 399 701 b 378 703 390 694 383 696 l 351 732 b 351 751 346 739 346 744 l 533 949 b 553 949 539 956 546 956 m 614 564 b 726 310 689 501 726 417 b 632 74 726 214 694 136 b 388 -18 569 13 489 -18 b 263 3 342 -18 300 -11 l 222 -61 b 204 -65 218 -68 211 -69 l 138 -24 b 132 -4 131 -19 128 -12 l 168 53 b 50 310 89 115 50 200 b 143 546 50 406 81 485 b 388 639 206 608 286 639 b 522 615 436 639 481 631 l 561 676 b 579 681 565 683 572 685 l 644 640 b 650 621 651 636 654 629 m 208 311 b 250 183 208 261 222 218 l 444 492 b 388 500 428 497 408 500 b 208 311 282 500 208 422 m 388 121 b 568 311 494 121 568 200 b 531 432 568 357 556 397 l 340 126 b 388 121 353 122 368 121 "},"Ș":{"ha":774,"x_min":0,"x_max":0,"o":"m 483 506 b 603 460 529 493 553 488 b 726 249 674 424 721 361 b 383 -17 726 83 600 -17 b 57 78 249 -17 140 15 b 53 96 50 82 49 88 l 93 190 b 113 194 97 199 104 200 b 378 111 189 139 278 111 b 558 239 494 111 558 157 b 508 332 558 282 543 314 b 419 369 475 353 463 357 l 326 396 b 242 422 292 406 263 415 b 164 463 221 431 196 444 b 71 647 103 501 71 564 b 160 838 71 728 100 792 b 393 908 219 885 297 908 b 688 829 506 908 603 882 b 693 811 694 825 696 819 l 653 715 b 635 710 649 706 643 704 b 401 778 564 756 486 778 b 236 656 296 778 236 732 b 382 532 236 582 283 558 m 383 -65 b 467 -147 433 -65 467 -97 b 428 -243 467 -171 454 -203 l 364 -343 b 346 -347 360 -350 353 -351 l 321 -332 b 317 -312 313 -326 311 -319 l 389 -211 b 372 -214 382 -212 376 -214 b 301 -144 332 -214 301 -187 b 383 -65 301 -100 335 -65 "},"ș":{"ha":617,"x_min":0,"x_max":0,"o":"m 406 364 b 568 183 514 338 568 276 b 301 -18 568 57 464 -18 b 60 50 201 -18 121 4 b 54 68 53 54 51 60 l 90 154 b 108 158 94 163 100 164 b 299 104 163 122 226 104 b 408 171 372 104 408 126 b 393 210 408 186 403 200 b 332 238 375 231 364 231 l 232 264 b 63 443 125 290 63 342 b 311 639 63 560 163 639 b 532 585 393 639 467 621 b 539 565 540 581 543 574 l 503 479 b 485 474 499 469 493 468 b 319 518 435 503 379 518 b 219 453 253 518 219 496 b 232 418 219 439 224 428 b 293 392 250 401 260 399 m 331 -114 b 415 -196 381 -114 415 -146 b 375 -292 415 -219 401 -251 l 311 -392 b 293 -396 307 -399 300 -400 l 268 -381 b 264 -361 260 -376 258 -369 l 339 -258 b 319 -261 329 -260 324 -261 b 249 -193 279 -261 249 -236 b 331 -114 249 -147 282 -114 "},"Ț":{"ha":742,"x_min":0,"x_max":0,"o":"m 21 876 b 35 890 21 886 25 890 l 707 890 b 721 876 717 890 721 886 l 721 761 b 707 747 721 751 717 747 l 451 747 l 451 14 b 438 0 451 4 447 0 l 308 0 b 294 14 299 0 294 4 l 294 747 l 35 747 b 21 761 25 747 21 751 m 376 -128 b 460 -208 425 -128 460 -160 b 421 -304 460 -232 447 -264 l 357 -404 b 339 -408 353 -411 346 -412 l 314 -393 b 310 -374 306 -387 304 -381 l 383 -272 b 365 -275 376 -274 369 -275 b 294 -206 325 -275 294 -249 b 376 -128 294 -161 326 -128 "},"ț":{"ha":601,"x_min":0,"x_max":0,"o":"m 565 504 b 551 490 565 494 561 490 l 353 490 l 353 233 b 471 117 353 156 392 117 b 543 126 492 117 515 119 b 558 114 553 129 558 125 l 558 14 b 546 -1 558 4 554 0 b 429 -17 507 -11 468 -17 b 197 215 281 -17 197 61 l 197 490 l 35 490 b 21 504 25 490 21 494 l 21 606 b 35 619 21 615 25 619 l 197 619 l 197 876 b 211 890 197 886 201 890 l 339 890 b 353 876 349 890 353 886 l 353 619 l 551 619 b 565 606 561 619 565 615 m 407 -71 b 490 -153 457 -71 490 -103 b 451 -249 490 -176 478 -208 l 388 -349 b 369 -353 383 -356 376 -357 l 344 -337 b 340 -318 336 -332 335 -325 l 413 -217 b 396 -219 406 -218 400 -219 b 325 -150 356 -219 325 -193 b 407 -71 325 -106 358 -71 "},"ȷ":{"ha":357,"x_min":0,"x_max":0,"o":"m 121 -287 b 107 -274 111 -287 107 -283 l 107 606 b 121 619 107 615 111 619 l 249 619 b 263 606 258 619 263 615 l 263 -274 b 249 -287 263 -283 258 -287 "},"Ƀ":{"ha":833,"x_min":0,"x_max":0,"o":"m 619 453 b 768 236 713 421 768 342 b 465 0 768 86 650 0 l 114 0 b 100 14 104 0 100 4 l 100 219 l 26 219 b 13 233 17 219 13 224 l 13 304 b 26 318 13 314 17 318 l 100 318 l 100 876 b 114 890 100 886 104 890 l 463 890 b 760 651 647 890 760 794 b 619 453 760 556 707 482 m 258 753 l 258 513 l 457 513 b 599 632 547 513 599 564 b 457 753 599 700 547 753 m 468 139 b 610 267 556 139 610 189 b 468 392 610 344 551 392 l 258 392 l 258 318 l 374 318 b 388 304 383 318 388 314 l 388 233 b 374 219 388 224 383 219 l 258 219 l 258 139 "},"ˆ":{"ha":576,"x_min":0,"x_max":0,"o":"m 92 989 b 89 1008 85 994 85 1001 l 211 1174 b 229 1182 215 1179 221 1182 l 346 1182 b 364 1174 354 1182 360 1179 l 486 1008 b 483 989 490 1001 490 994 l 433 954 b 414 957 426 950 421 950 l 288 1088 l 161 957 b 142 954 154 950 149 950 "},"ˇ":{"ha":576,"x_min":0,"x_max":0,"o":"m 89 1129 b 92 1149 85 1136 85 1143 l 142 1185 b 161 1182 149 1189 156 1189 l 288 1050 l 414 1182 b 433 1185 419 1189 426 1189 l 483 1149 b 486 1129 490 1143 490 1136 l 364 964 b 346 956 360 958 354 956 l 229 956 b 211 964 221 956 215 958 "},"˘":{"ha":631,"x_min":0,"x_max":0,"o":"m 517 1149 b 531 1133 528 1149 532 1143 b 317 954 518 1022 429 954 b 100 1133 199 954 115 1024 b 114 1149 99 1143 103 1149 l 197 1149 b 211 1136 204 1149 210 1144 b 317 1058 221 1085 257 1058 b 419 1136 374 1058 408 1085 b 433 1149 421 1144 426 1149 "},"˙":{"ha":268,"x_min":0,"x_max":0,"o":"m 132 953 b 50 1033 86 953 50 988 b 132 1117 50 1082 86 1117 b 215 1033 181 1117 215 1082 b 132 953 215 988 181 953 "},"˚":{"ha":490,"x_min":0,"x_max":0,"o":"m 244 918 b 74 1078 140 918 74 990 b 244 1239 74 1167 140 1239 b 367 1190 294 1239 335 1222 b 414 1078 399 1158 414 1121 b 244 918 414 990 346 918 m 313 1081 b 244 1150 313 1119 282 1150 b 176 1081 207 1150 176 1121 b 313 1081 169 989 319 989 "},"˛":{"ha":350,"x_min":0,"x_max":0,"o":"m 222 -243 b 90 -125 143 -243 90 -196 b 193 19 90 -68 128 -10 b 211 22 200 22 206 24 l 272 17 b 286 8 282 15 286 13 b 275 -3 286 4 282 0 b 190 -101 218 -25 190 -58 b 249 -154 190 -135 214 -154 b 286 -147 260 -154 272 -151 b 303 -157 296 -144 301 -147 l 311 -210 b 301 -228 313 -218 310 -224 b 222 -243 276 -237 250 -243 "},"˜":{"ha":638,"x_min":0,"x_max":0,"o":"m 133 960 b 119 972 124 960 119 964 b 224 1133 107 1071 151 1133 b 314 1101 250 1133 279 1122 b 386 1071 349 1081 374 1071 b 426 1118 411 1071 425 1086 b 440 1132 426 1128 431 1132 l 490 1132 b 504 1119 500 1132 504 1128 b 397 967 517 1029 471 967 b 304 996 371 967 339 976 b 236 1026 269 1017 247 1026 b 197 974 210 1026 197 1008 b 183 960 197 964 193 960 "},"˝":{"ha":669,"x_min":0,"x_max":0,"o":"m 182 963 b 163 964 175 957 168 957 l 136 992 b 136 1011 131 999 131 1004 l 318 1208 b 338 1210 325 1215 331 1217 l 397 1150 b 396 1129 404 1142 403 1135 m 425 963 b 406 964 418 957 411 957 l 379 992 b 379 1011 374 999 374 1004 l 561 1208 b 581 1210 568 1215 574 1217 l 639 1150 b 638 1129 646 1142 644 1135 "},"̀":{"ha":0,"x_min":0,"x_max":0,"o":"m -125 963 b -144 961 -131 956 -137 956 l -357 1128 b -358 1149 -364 1133 -365 1140 l -299 1208 b -279 1208 -292 1215 -285 1215 l -97 1011 b -97 992 -92 1004 -92 999 "},"́":{"ha":0,"x_min":0,"x_max":0,"o":"m -221 961 b -242 963 -229 954 -236 956 l -268 992 b -268 1011 -274 999 -274 1004 l -86 1207 b -67 1208 -79 1214 -74 1215 l -7 1149 b -8 1128 0 1140 -1 1133 "},"̂":{"ha":0,"x_min":0,"x_max":0,"o":"m -485 989 b -487 1008 -492 994 -492 1001 l -365 1174 b -347 1182 -361 1179 -356 1182 l -232 1182 b -214 1174 -224 1182 -218 1179 l -90 1008 b -93 989 -86 1001 -86 994 l -143 954 b -162 957 -150 950 -156 950 l -289 1088 l -415 957 b -435 954 -422 950 -428 950 "},"̃":{"ha":0,"x_min":0,"x_max":0,"o":"m -504 960 b -519 972 -512 960 -518 964 b -414 1133 -532 1071 -486 1133 b -322 1101 -387 1133 -357 1122 b -251 1071 -287 1081 -264 1071 b -211 1118 -226 1071 -212 1086 b -197 1132 -211 1128 -207 1132 l -147 1132 b -133 1119 -137 1132 -133 1128 b -240 967 -121 1029 -167 967 b -332 996 -267 967 -297 976 b -401 1026 -367 1017 -390 1026 b -440 974 -428 1026 -440 1008 b -454 960 -440 964 -444 960 "},"̄":{"ha":0,"x_min":0,"x_max":0,"o":"m -461 1058 b -447 1072 -461 1068 -457 1072 l -110 1072 b -96 1058 -100 1072 -96 1068 l -96 978 b -110 964 -96 968 -100 964 l -447 964 b -461 978 -457 964 -461 968 "},"̆":{"ha":0,"x_min":0,"x_max":0,"o":"m -114 1149 b -100 1133 -103 1149 -99 1143 b -314 954 -115 1022 -203 954 b -531 1133 -435 954 -515 1024 b -517 1149 -532 1143 -528 1149 l -433 1149 b -419 1136 -426 1149 -421 1144 b -314 1058 -410 1085 -374 1058 b -211 1136 -257 1058 -222 1085 b -197 1149 -210 1144 -204 1149 "},"̇":{"ha":0,"x_min":0,"x_max":0,"o":"m -154 958 b -236 1039 -200 958 -236 993 b -154 1122 -236 1088 -200 1122 b -71 1039 -106 1122 -71 1088 b -154 958 -71 993 -106 958 "},"̈":{"ha":0,"x_min":0,"x_max":0,"o":"m -397 958 b -479 1039 -443 958 -479 993 b -397 1122 -479 1088 -443 1122 b -314 1039 -349 1122 -314 1088 b -397 958 -314 993 -349 958 m -140 958 b -224 1039 -189 958 -224 993 b -140 1122 -224 1088 -189 1122 b -58 1039 -94 1122 -58 1088 b -140 958 -58 993 -94 958 "},"̊":{"ha":0,"x_min":0,"x_max":0,"o":"m -246 932 b -417 1092 -350 932 -417 1004 b -246 1253 -417 1181 -350 1253 b -124 1204 -196 1253 -156 1236 b -76 1092 -92 1172 -76 1135 b -246 932 -76 1004 -144 932 m -178 1094 b -246 1164 -178 1133 -208 1164 b -294 1043 -304 1164 -337 1089 b -178 1094 -256 1001 -172 1032 "},"̋":{"ha":0,"x_min":0,"x_max":0,"o":"m -475 961 b -496 963 -483 954 -490 956 l -522 992 b -522 1011 -528 999 -528 1004 l -340 1207 b -321 1208 -333 1214 -328 1215 l -261 1149 b -262 1128 -254 1140 -256 1133 m -232 961 b -253 963 -240 954 -247 956 l -279 992 b -279 1011 -285 999 -285 1004 l -97 1207 b -78 1208 -90 1214 -85 1215 l -19 1149 b -21 1128 -12 1140 -14 1133 "},"̌":{"ha":0,"x_min":0,"x_max":0,"o":"m -487 1129 b -485 1149 -492 1136 -492 1143 l -435 1185 b -415 1182 -428 1189 -421 1189 l -289 1050 l -162 1182 b -143 1185 -156 1189 -150 1189 l -93 1149 b -90 1129 -86 1143 -86 1136 l -212 964 b -231 956 -217 958 -222 956 l -347 956 b -365 964 -356 956 -361 958 "},"̒":{"ha":0,"x_min":0,"x_max":0,"o":"m -117 1097 b -49 1026 -78 1097 -49 1067 b -131 949 -49 981 -82 949 b -215 1049 -181 949 -215 989 b -71 1206 -215 1136 -161 1199 b -57 1192 -61 1206 -57 1201 l -57 1183 b -71 1169 -57 1175 -61 1171 b -147 1089 -119 1160 -146 1132 b -117 1097 -140 1094 -129 1097 "},"̦":{"ha":0,"x_min":0,"x_max":0,"o":"m -133 -65 b -50 -147 -83 -65 -50 -97 b -89 -243 -50 -171 -62 -203 l -153 -343 b -171 -347 -157 -350 -164 -351 l -196 -332 b -200 -312 -204 -326 -206 -319 l -128 -211 b -144 -214 -135 -212 -140 -214 b -215 -144 -185 -214 -215 -187 b -133 -65 -215 -100 -182 -65 "},"̧":{"ha":0,"x_min":0,"x_max":0,"o":"m -200 -74 b -106 -94 -168 -68 -136 -75 b -61 -190 -76 -115 -61 -147 b -317 -304 -61 -322 -224 -353 b -326 -287 -324 -300 -326 -294 l -326 -236 b -311 -228 -326 -225 -321 -222 b -219 -244 -286 -246 -256 -251 b -165 -186 -183 -237 -165 -218 b -254 -131 -165 -146 -204 -121 b -274 -125 -262 -132 -269 -129 l -293 -106 b -294 -86 -299 -100 -299 -93 l -218 29 b -201 39 -214 36 -208 39 l -169 39 b -156 25 -160 39 -156 35 l -156 3 b -161 -15 -156 -1 -157 -8 "},"̸":{"ha":0,"x_min":0,"x_max":0,"o":"m -651 -126 b -669 -131 -656 -133 -662 -135 l -747 -82 b -753 -62 -754 -78 -757 -71 l -264 715 b -246 719 -260 722 -253 724 l -167 672 b -161 653 -160 667 -157 660 "},"Ω":{"ha":1063,"x_min":0,"x_max":0,"o":"m 994 475 b 782 121 994 318 917 192 l 964 121 b 978 107 974 121 978 117 l 978 14 b 964 0 978 4 974 0 l 614 0 b 600 14 604 0 600 4 l 600 147 b 611 164 600 156 604 161 b 822 450 739 204 822 315 b 742 646 822 532 796 597 b 533 721 688 696 618 721 b 324 644 449 721 378 696 b 242 446 269 593 242 528 b 297 268 242 379 260 319 b 443 164 335 217 383 182 b 454 147 450 161 454 156 l 454 14 b 440 0 454 4 450 0 l 90 0 b 76 14 81 0 76 4 l 76 107 b 90 121 76 117 81 121 l 278 121 b 68 472 143 192 68 321 b 197 772 68 594 111 694 b 531 889 285 850 396 889 b 864 774 667 889 778 850 b 994 475 951 697 994 597 "},"π":{"ha":835,"x_min":0,"x_max":0,"o":"m 44 590 b 31 604 35 590 31 594 l 31 703 b 44 717 31 713 35 717 l 732 717 b 746 703 742 717 746 713 l 746 604 b 732 590 746 594 742 590 l 635 590 l 635 211 b 719 121 635 140 654 121 l 732 121 b 746 107 742 121 746 117 l 746 13 b 733 -3 746 4 742 -1 b 661 -8 714 -7 690 -8 b 479 197 518 -8 479 65 l 479 590 l 290 590 l 290 14 b 276 0 290 4 286 0 l 151 0 b 138 14 142 0 138 4 l 138 590 "},"฿":{"ha":815,"x_min":0,"x_max":0,"o":"m 606 447 b 765 238 707 419 765 342 b 485 0 765 83 658 0 l 432 0 l 432 -126 b 418 -140 432 -136 428 -140 l 356 -140 b 342 -126 346 -140 342 -136 l 342 0 l 114 0 b 100 14 104 0 100 4 l 100 876 b 114 890 100 886 104 890 l 342 890 l 342 1004 b 356 1018 342 1014 346 1018 l 418 1018 b 432 1004 428 1018 432 1014 l 432 890 l 481 890 b 742 657 643 890 742 800 b 606 447 742 558 690 482 m 254 756 l 254 503 l 438 503 b 583 628 528 503 583 550 b 444 756 583 706 528 756 m 464 135 b 608 258 557 135 608 182 b 463 386 608 342 551 386 l 254 386 l 254 135 "},"Ẁ":{"ha":1540,"x_min":0,"x_max":0,"o":"m 807 1003 b 807 983 813 996 813 990 l 779 954 b 760 953 774 947 767 947 l 547 1119 b 546 1140 540 1125 539 1132 l 606 1200 b 625 1200 613 1207 619 1207 m 1336 879 b 1351 890 1339 886 1344 890 l 1506 890 b 1517 874 1518 890 1521 885 l 1165 11 b 1150 0 1163 4 1157 0 l 1021 0 b 1006 11 1014 0 1008 4 l 769 642 l 533 11 b 518 0 531 4 525 0 l 388 0 b 372 11 381 0 375 4 l 24 874 b 35 890 19 885 22 890 l 189 890 b 204 879 196 890 201 886 l 454 228 l 689 856 b 704 867 692 863 697 867 l 836 867 b 851 856 843 867 849 863 l 1085 228 "},"ẁ":{"ha":1146,"x_min":0,"x_max":0,"o":"m 613 732 b 613 713 618 725 618 719 l 585 683 b 565 682 579 676 572 676 l 353 849 b 351 869 346 854 344 861 l 411 929 b 431 929 418 936 425 936 m 965 608 b 981 619 968 615 974 619 l 1119 619 b 1131 603 1132 619 1135 614 l 865 11 b 850 0 863 4 857 0 l 738 0 b 721 11 729 0 724 4 l 574 411 l 415 11 b 400 0 413 4 407 0 l 288 0 b 272 11 281 0 275 4 l 15 603 b 26 619 11 614 14 619 l 168 619 b 183 608 175 619 181 615 l 350 201 l 500 592 b 515 603 503 599 508 603 l 632 603 b 647 592 639 603 644 599 l 792 201 "},"Ẃ":{"ha":1540,"x_min":0,"x_max":0,"o":"m 994 1142 b 993 1121 1001 1133 1000 1126 l 779 954 b 760 956 772 949 767 949 l 733 983 b 733 1003 728 990 728 996 l 915 1200 b 935 1201 922 1207 928 1208 m 1336 879 b 1351 890 1339 886 1344 890 l 1506 890 b 1517 874 1518 890 1521 885 l 1165 11 b 1150 0 1163 4 1157 0 l 1021 0 b 1006 11 1014 0 1008 4 l 769 642 l 533 11 b 518 0 531 4 525 0 l 388 0 b 372 11 381 0 375 4 l 24 874 b 35 890 19 885 22 890 l 189 890 b 204 879 196 890 201 886 l 454 228 l 689 856 b 704 867 692 863 697 867 l 836 867 b 851 856 843 867 849 863 l 1085 228 "},"ẃ":{"ha":1146,"x_min":0,"x_max":0,"o":"m 800 871 b 799 850 807 863 806 856 l 585 683 b 565 685 578 678 572 678 l 539 713 b 539 732 533 719 533 725 l 721 929 b 740 931 728 936 733 938 m 965 608 b 981 619 968 615 974 619 l 1119 619 b 1131 603 1132 619 1135 614 l 865 11 b 850 0 863 4 857 0 l 738 0 b 721 11 729 0 724 4 l 574 411 l 415 11 b 400 0 413 4 407 0 l 288 0 b 272 11 281 0 275 4 l 15 603 b 26 619 11 614 14 619 l 168 619 b 183 608 175 619 181 615 l 350 201 l 500 592 b 515 603 503 599 508 603 l 632 603 b 647 592 639 603 644 599 l 792 201 "},"Ẅ":{"ha":1540,"x_min":0,"x_max":0,"o":"m 640 943 b 558 1024 594 943 558 978 b 640 1107 558 1072 594 1107 b 724 1024 689 1107 724 1072 b 640 943 724 978 689 943 m 897 943 b 814 1024 849 943 814 978 b 897 1107 814 1072 849 1107 b 979 1024 943 1107 979 1072 b 897 943 979 978 943 943 m 1336 879 b 1351 890 1339 886 1344 890 l 1506 890 b 1517 874 1518 890 1521 885 l 1165 11 b 1150 0 1163 4 1157 0 l 1021 0 b 1006 11 1014 0 1008 4 l 769 642 l 533 11 b 518 0 531 4 525 0 l 388 0 b 372 11 381 0 375 4 l 24 874 b 35 890 19 885 22 890 l 189 890 b 204 879 196 890 201 886 l 454 228 l 689 856 b 704 867 692 863 697 867 l 836 867 b 851 856 843 867 849 863 l 1085 228 "},"ẅ":{"ha":1146,"x_min":0,"x_max":0,"o":"m 447 672 b 365 753 401 672 365 707 b 447 836 365 801 401 836 b 531 753 496 836 531 801 b 447 672 531 707 496 672 m 704 672 b 621 753 656 672 621 707 b 704 836 621 801 656 836 b 786 753 750 836 786 801 b 704 672 786 707 750 672 m 965 608 b 981 619 968 615 974 619 l 1119 619 b 1131 603 1132 619 1135 614 l 865 11 b 850 0 863 4 857 0 l 738 0 b 721 11 729 0 724 4 l 574 411 l 415 11 b 400 0 413 4 407 0 l 288 0 b 272 11 281 0 275 4 l 15 603 b 26 619 11 614 14 619 l 168 619 b 183 608 175 619 181 615 l 350 201 l 500 592 b 515 603 503 599 508 603 l 632 603 b 647 592 639 603 644 599 l 792 201 "},"Ỳ":{"ha":847,"x_min":0,"x_max":0,"o":"m 438 953 b 418 951 432 946 425 946 l 206 1118 b 204 1139 199 1124 197 1131 l 264 1199 b 283 1199 271 1206 278 1206 l 465 1001 b 465 982 471 994 471 989 m 8 874 b 17 890 1 885 4 890 l 169 890 b 186 881 176 890 182 888 l 426 511 l 667 881 b 683 890 671 888 676 890 l 831 890 b 839 874 843 890 846 885 l 504 358 l 504 14 b 490 0 504 4 500 0 l 360 0 b 346 14 350 0 346 4 l 346 358 "},"ỳ":{"ha":760,"x_min":0,"x_max":0,"o":"m 367 683 b 347 682 361 676 354 676 l 135 849 b 133 869 128 854 126 861 l 193 929 b 213 929 200 936 207 936 l 394 732 b 394 713 400 725 400 719 m 21 603 b 31 619 17 614 19 619 l 174 619 b 190 610 182 619 188 617 l 378 236 l 569 610 b 586 619 572 617 578 619 l 729 619 b 739 603 739 619 744 613 l 271 -275 b 254 -285 268 -282 263 -285 l 117 -285 b 107 -268 106 -285 103 -279 l 290 79 "},"–":{"ha":1247,"x_min":0,"x_max":0,"o":"m 96 388 b 110 401 96 397 100 401 l 1138 401 b 1151 388 1147 401 1151 397 l 1151 276 b 1138 263 1151 267 1147 263 l 110 263 b 96 276 100 263 96 267 "},"—":{"ha":1540,"x_min":0,"x_max":0,"o":"m 96 388 b 110 401 96 397 100 401 l 1431 401 b 1444 388 1440 401 1444 397 l 1444 276 b 1431 263 1444 267 1440 263 l 110 263 b 96 276 100 263 96 267 "},"‘":{"ha":333,"x_min":0,"x_max":0,"o":"m 183 768 b 279 675 238 768 279 732 b 168 569 279 614 235 569 b 57 679 103 569 57 613 b 110 808 57 711 75 754 l 199 947 b 217 951 203 954 210 956 l 257 925 b 261 907 264 921 265 914 l 160 764 b 183 768 167 767 174 768 "},"’":{"ha":333,"x_min":0,"x_max":0,"o":"m 164 935 b 276 824 231 935 276 890 b 268 779 276 810 274 794 b 222 696 257 750 250 740 l 135 557 b 117 551 131 547 124 546 l 75 578 b 71 597 67 582 65 589 l 172 739 b 149 736 163 738 156 736 b 54 829 94 736 54 772 b 164 935 54 890 99 935 "},"‚":{"ha":346,"x_min":0,"x_max":0,"o":"m 71 149 b 86 161 72 157 76 161 l 222 161 b 233 144 235 161 238 156 l 100 -156 b 85 -167 97 -162 92 -167 l 28 -167 b 15 -151 18 -167 14 -161 "},"“":{"ha":601,"x_min":0,"x_max":0,"o":"m 183 768 b 279 675 238 768 279 732 b 168 569 279 614 235 569 b 57 679 103 569 57 613 b 110 808 57 711 75 754 l 199 947 b 217 951 203 954 210 956 l 257 925 b 261 907 264 921 265 914 l 160 764 b 183 768 167 767 174 768 m 457 768 b 551 675 511 768 551 732 b 442 569 551 614 507 569 b 331 679 376 569 331 613 b 383 808 331 711 349 754 l 472 947 b 490 951 476 954 483 956 l 531 925 b 535 907 538 921 539 914 l 433 764 b 457 768 440 767 449 768 "},"”":{"ha":606,"x_min":0,"x_max":0,"o":"m 164 935 b 276 824 231 935 276 890 b 268 779 276 810 274 794 b 222 696 257 750 250 740 l 135 557 b 117 551 131 547 124 546 l 75 578 b 71 597 67 582 65 589 l 172 739 b 149 736 163 738 156 736 b 54 829 94 736 54 772 b 164 935 54 890 99 935 m 438 935 b 550 824 504 935 550 890 b 542 779 550 810 547 794 b 496 696 531 750 524 740 l 408 557 b 390 551 404 547 397 546 l 349 578 b 344 597 340 582 339 589 l 446 739 b 422 736 436 738 429 736 b 328 829 367 736 328 772 b 438 935 328 890 372 935 "},"„":{"ha":617,"x_min":0,"x_max":0,"o":"m 131 150 b 147 161 133 157 139 161 l 274 161 b 285 144 286 161 289 156 l 161 -156 b 146 -167 158 -162 153 -167 l 38 -167 b 26 -151 28 -167 24 -161 m 383 150 b 399 161 386 157 392 161 l 528 161 b 538 144 539 161 542 156 l 390 -157 b 374 -167 388 -164 382 -167 l 268 -167 b 257 -150 256 -167 253 -161 "},"†":{"ha":556,"x_min":0,"x_max":0,"o":"m 481 464 b 494 450 490 464 494 460 l 494 390 b 481 376 494 381 490 376 l 326 376 l 326 189 b 313 175 326 179 322 175 l 243 175 b 229 189 233 175 229 179 l 229 376 l 75 376 b 61 390 65 376 61 381 l 61 450 b 75 464 61 460 65 464 l 229 464 l 229 876 b 243 890 229 886 233 890 l 313 890 b 326 876 322 890 326 886 l 326 464 "},"‡":{"ha":522,"x_min":0,"x_max":0,"o":"m 453 632 b 439 618 453 622 449 618 l 310 618 l 310 464 l 439 464 b 453 450 449 464 453 460 l 453 389 b 439 375 453 379 449 375 l 310 375 l 310 206 b 296 192 310 196 306 192 l 226 192 b 213 206 217 192 213 196 l 213 375 l 83 375 b 69 389 74 375 69 379 l 69 450 b 83 464 69 460 74 464 l 213 464 l 213 618 l 83 618 b 69 632 74 618 69 622 l 69 693 b 83 707 69 703 74 707 l 213 707 l 213 876 b 226 890 213 886 217 890 l 296 890 b 310 876 306 890 310 886 l 310 707 l 439 707 b 453 693 449 707 453 703 "},"•":{"ha":708,"x_min":0,"x_max":0,"o":"m 356 639 b 538 564 428 639 489 614 b 611 383 586 515 611 454 b 538 204 611 313 586 253 b 356 131 489 156 429 131 b 171 203 282 131 221 154 b 97 383 122 251 97 313 b 171 564 97 454 122 515 b 356 639 221 614 282 639 "},"…":{"ha":1011,"x_min":0,"x_max":0,"o":"m 182 -21 b 79 79 126 -21 79 25 b 182 182 79 135 126 182 b 283 79 236 182 283 133 b 182 -21 283 25 236 -21 m 506 -21 b 403 79 450 -21 403 25 b 506 182 403 135 450 182 b 607 79 560 182 607 133 b 506 -21 607 25 560 -21 m 826 -21 b 725 79 771 -21 725 25 b 826 182 725 135 771 182 b 931 79 881 182 931 133 b 826 -21 931 28 881 -21 "},"‰":{"ha":1496,"x_min":0,"x_max":0,"o":"m 440 593 b 303 542 404 558 358 542 b 165 593 247 542 201 558 b 111 725 129 628 111 672 b 165 856 111 778 129 821 b 303 908 201 890 247 908 b 440 856 358 908 404 890 b 494 725 476 821 494 778 b 440 593 494 672 476 628 m 279 -7 b 261 -11 275 -15 268 -17 l 208 24 b 206 42 201 28 201 35 l 771 897 b 789 901 775 904 782 906 l 842 868 b 846 850 849 864 850 857 m 303 638 b 393 725 357 638 393 674 b 303 813 393 776 357 813 b 214 725 249 813 214 776 b 303 638 214 674 251 638 m 556 165 b 747 349 556 271 636 349 b 940 165 858 349 940 271 b 885 35 940 114 922 69 b 747 -18 849 0 803 -18 b 610 35 692 -18 646 0 b 556 165 574 69 556 114 m 1000 165 b 1192 349 1000 271 1081 349 b 1385 165 1303 349 1385 271 b 1329 35 1385 114 1367 69 b 1192 -18 1293 0 1247 -18 b 1054 35 1136 -18 1090 0 b 1000 165 1018 69 1000 114 m 747 78 b 838 165 801 78 838 114 b 747 254 838 219 801 254 b 658 165 696 254 658 219 b 747 78 658 114 696 78 m 1192 78 b 1282 165 1246 78 1282 114 b 1192 254 1282 219 1246 254 b 1103 165 1140 254 1103 219 b 1192 78 1103 114 1140 78 "},"‱":{"ha":1940,"x_min":0,"x_max":0,"o":"m 440 593 b 303 542 404 558 358 542 b 165 593 247 542 201 558 b 111 725 129 628 111 672 b 165 856 111 778 129 821 b 303 908 201 890 247 908 b 440 856 358 908 404 890 b 494 725 476 821 494 778 b 440 593 494 672 476 628 m 279 -7 b 261 -11 275 -15 268 -17 l 208 24 b 206 42 201 28 201 35 l 771 897 b 789 901 775 904 782 906 l 842 868 b 846 850 849 864 850 857 m 303 638 b 393 725 357 638 393 674 b 303 813 393 776 357 813 b 214 725 249 813 214 776 b 303 638 214 674 251 638 m 556 165 b 747 349 556 271 636 349 b 940 165 858 349 940 271 b 885 35 940 114 922 69 b 747 -18 849 0 803 -18 b 610 35 692 -18 646 0 b 556 165 574 69 556 114 m 1000 165 b 1192 349 1000 271 1081 349 b 1385 165 1303 349 1385 271 b 1329 35 1385 114 1367 69 b 1192 -18 1293 0 1247 -18 b 1054 35 1136 -18 1090 0 b 1000 165 1018 69 1000 114 m 1444 165 b 1636 349 1444 271 1525 349 b 1829 165 1747 349 1829 271 b 1774 35 1829 114 1811 69 b 1636 -18 1738 0 1692 -18 b 1499 35 1581 -18 1535 0 b 1444 165 1463 69 1444 114 m 747 78 b 838 165 801 78 838 114 b 747 254 838 219 801 254 b 658 165 696 254 658 219 b 747 78 658 114 696 78 m 1192 78 b 1282 165 1246 78 1282 114 b 1192 254 1282 219 1246 254 b 1103 165 1140 254 1103 219 b 1192 78 1103 114 1140 78 m 1636 78 b 1726 165 1690 78 1726 114 b 1636 254 1726 219 1690 254 b 1547 165 1585 254 1547 219 b 1636 78 1547 114 1585 78 "},"′":{"ha":265,"x_min":0,"x_max":0,"o":"m 47 818 b 133 908 47 869 83 908 b 219 818 182 908 219 869 b 215 793 219 813 218 804 l 158 519 b 143 507 157 511 151 507 l 121 507 b 106 519 113 507 107 511 l 51 792 b 47 818 49 806 47 814 "},"‹":{"ha":444,"x_min":0,"x_max":0,"o":"m 390 565 b 400 549 403 565 407 560 l 268 310 l 400 69 b 390 53 407 58 403 53 l 251 53 b 235 63 244 53 239 56 l 100 300 b 100 319 96 307 96 313 l 235 556 b 251 565 239 563 244 565 "},"›":{"ha":446,"x_min":0,"x_max":0,"o":"m 194 565 b 211 556 201 565 207 563 l 346 319 b 346 300 350 313 350 307 l 211 63 b 194 53 207 56 201 53 l 56 53 b 46 69 43 53 39 58 l 178 310 l 46 549 b 56 565 39 560 43 565 "},"⁂":{"ha":1194,"x_min":0,"x_max":0,"o":"m 706 649 b 622 708 672 669 644 689 b 633 607 629 679 633 644 l 633 535 b 619 521 633 525 629 521 l 569 521 b 556 535 560 521 556 525 l 556 607 b 567 708 556 636 560 669 b 485 649 546 690 519 669 l 424 613 b 404 618 415 608 408 610 l 379 661 b 385 681 375 669 376 676 l 446 715 b 539 757 472 731 503 744 b 446 797 504 767 472 781 l 385 833 b 379 853 376 838 375 844 l 404 894 b 424 900 408 904 415 906 l 485 864 b 567 804 519 844 546 825 b 556 906 560 842 556 875 l 556 978 b 569 992 556 988 560 992 l 619 992 b 633 978 629 992 633 988 l 633 906 b 622 804 633 868 629 833 b 706 864 644 825 672 846 l 767 900 b 786 894 775 904 782 903 l 811 853 b 806 833 815 844 813 838 l 744 797 b 651 757 718 782 686 768 b 744 715 690 742 721 728 l 806 681 b 811 661 814 676 815 669 l 786 618 b 767 613 782 610 775 608 m 500 321 b 494 301 504 313 503 306 l 433 265 b 340 225 407 250 375 236 b 433 183 379 210 410 196 l 494 149 b 500 129 503 144 504 138 l 475 86 b 456 81 471 78 464 76 l 394 117 b 311 176 357 139 329 158 b 322 75 318 147 322 113 l 322 3 b 308 -11 322 -7 318 -11 l 258 -11 b 244 3 249 -11 244 -7 l 244 75 b 256 176 244 106 249 139 b 174 117 235 158 208 138 l 113 81 b 93 86 104 76 97 78 l 68 129 b 74 149 64 138 65 144 l 135 183 b 228 225 161 199 192 213 b 135 265 193 235 161 249 l 74 301 b 68 321 65 306 64 313 l 93 363 b 113 368 97 372 104 374 l 174 332 b 256 272 208 313 235 293 b 244 374 249 310 244 343 l 244 446 b 258 460 244 456 249 460 l 308 460 b 322 446 318 460 322 456 l 322 374 b 311 272 322 336 318 301 b 394 332 331 292 358 311 l 456 368 b 475 363 464 374 471 372 m 963 225 b 1056 183 1001 210 1032 196 l 1117 149 b 1122 129 1125 144 1126 138 l 1097 86 b 1078 81 1093 78 1086 76 l 1017 117 b 933 176 983 138 956 157 b 944 75 940 147 944 113 l 944 3 b 931 -11 944 -7 940 -11 l 881 -11 b 867 3 871 -11 867 -7 l 867 75 b 878 176 867 106 871 139 b 796 117 857 158 831 138 l 735 81 b 715 86 726 76 719 78 l 690 129 b 696 149 686 138 688 144 l 757 183 b 850 225 781 196 811 210 b 757 265 813 238 782 250 l 696 301 b 690 321 688 306 686 313 l 715 363 b 735 368 719 372 726 374 l 796 332 b 878 272 831 313 857 293 b 867 374 871 310 867 343 l 867 446 b 881 460 867 456 871 460 l 931 460 b 944 446 940 460 944 456 l 944 374 b 933 272 944 336 940 301 b 1017 332 956 293 983 314 l 1078 368 b 1097 363 1086 372 1093 371 l 1122 321 b 1117 301 1126 313 1124 306 l 1056 265 b 963 225 1029 250 997 236 "},"⁄":{"ha":918,"x_min":0,"x_max":0,"o":"m 132 -131 b 114 -135 128 -137 121 -139 l 61 -103 b 57 -83 54 -99 53 -92 l 786 1019 b 804 1024 790 1026 797 1028 l 857 990 b 861 972 864 986 865 979 "},"⁰":{"ha":672,"x_min":0,"x_max":0,"o":"m 57 736 b 336 1106 57 965 163 1106 b 617 736 510 1106 617 964 b 336 368 617 508 510 368 b 57 736 163 368 57 508 m 336 494 b 471 736 425 494 471 582 b 336 978 471 890 425 978 b 201 736 249 978 201 892 b 336 494 201 585 249 494 "},"⁴":{"ha":682,"x_min":0,"x_max":0,"o":"m 521 683 l 625 683 b 639 669 635 683 639 679 l 639 579 b 625 565 639 569 635 565 l 521 565 l 521 393 b 507 379 521 383 517 379 l 397 379 b 383 393 388 379 383 383 l 383 565 l 58 565 b 44 579 49 565 44 569 l 44 663 b 50 681 44 669 46 676 l 333 1083 b 350 1092 338 1089 343 1092 l 507 1092 b 521 1078 517 1092 521 1088 m 193 683 l 383 683 l 383 956 "},"⁵":{"ha":660,"x_min":0,"x_max":0,"o":"m 351 853 b 526 785 422 853 481 831 b 596 614 572 739 596 682 b 518 438 596 542 569 483 b 325 369 467 392 403 369 b 69 558 192 369 90 446 b 81 575 67 568 71 574 l 190 597 b 206 586 199 599 204 596 b 325 496 218 531 264 496 b 451 615 397 496 451 544 b 325 735 451 686 401 735 b 219 693 281 735 246 721 b 201 686 214 688 208 685 l 92 699 b 79 714 82 700 78 706 l 160 1079 b 175 1092 161 1088 165 1092 l 540 1092 b 554 1078 550 1092 554 1088 l 554 982 b 540 968 554 972 550 968 l 271 968 l 239 828 b 351 853 269 844 307 853 "},"⁶":{"ha":664,"x_min":0,"x_max":0,"o":"m 353 857 b 535 790 426 857 486 835 b 608 618 583 746 608 689 b 529 439 608 546 582 486 b 329 368 478 392 411 368 b 135 438 249 368 183 392 b 61 614 86 485 61 543 b 161 860 61 683 94 765 l 317 1083 b 333 1092 321 1089 326 1092 l 456 1092 b 464 1075 467 1092 471 1082 l 307 853 b 353 857 322 856 338 857 m 333 494 b 464 615 407 494 464 543 b 336 736 464 688 407 736 b 206 615 264 736 206 689 b 333 494 206 543 261 494 "},"⁷":{"ha":540,"x_min":0,"x_max":0,"o":"m 28 1078 b 42 1092 28 1088 32 1092 l 499 1092 b 513 1078 508 1092 513 1088 l 513 989 b 508 972 513 985 511 979 l 239 389 b 224 379 236 382 231 379 l 100 379 b 89 396 88 379 85 385 l 354 968 l 42 968 b 28 982 32 968 28 972 "},"⁸":{"ha":640,"x_min":0,"x_max":0,"o":"m 475 758 b 583 586 542 729 583 664 b 508 426 583 519 558 467 b 319 368 458 388 396 368 b 131 428 243 368 181 388 b 57 586 82 468 57 521 b 164 758 57 665 99 729 b 81 910 108 793 81 844 b 147 1049 81 965 103 1011 b 321 1104 193 1086 250 1104 b 493 1049 390 1104 447 1086 b 561 910 539 1011 561 965 b 475 758 561 844 525 788 m 319 981 b 221 897 263 981 221 946 b 321 811 221 846 265 811 b 421 896 375 811 421 847 b 319 981 421 946 379 981 m 321 692 b 200 593 250 692 200 653 b 319 493 200 533 251 493 b 439 593 388 493 439 533 b 321 692 439 653 389 692 "},"⁹":{"ha":671,"x_min":0,"x_max":0,"o":"m 608 858 b 590 761 608 826 603 794 b 556 683 579 729 568 703 b 508 611 544 664 529 640 l 354 388 b 338 379 350 382 344 379 l 214 379 b 206 396 203 379 199 386 l 363 617 b 317 613 347 614 332 613 b 135 679 243 613 183 635 b 63 853 86 725 63 782 b 140 1033 63 926 89 986 b 340 1106 193 1082 260 1106 b 535 1035 421 1106 486 1082 b 608 858 583 988 608 929 m 335 735 b 464 856 407 735 464 783 b 336 975 464 929 407 975 b 206 856 263 975 206 928 b 335 735 206 783 264 735 "},"⁺":{"ha":711,"x_min":0,"x_max":0,"o":"m 586 779 b 600 765 596 779 600 775 l 600 694 b 586 681 600 685 596 681 l 411 681 l 411 497 b 397 483 411 488 407 483 l 317 483 b 303 497 307 483 303 488 l 303 681 l 125 681 b 111 694 115 681 111 685 l 111 765 b 125 779 111 775 115 779 l 303 779 l 303 964 b 317 978 303 974 307 978 l 397 978 b 411 964 407 978 411 974 l 411 779 "},"⁻":{"ha":614,"x_min":0,"x_max":0,"o":"m 489 779 b 503 765 499 779 503 775 l 503 694 b 489 681 503 685 499 681 l 125 681 b 111 694 115 681 111 685 l 111 765 b 125 779 111 775 115 779 "},"⁼":{"ha":614,"x_min":0,"x_max":0,"o":"m 489 888 b 503 874 499 888 503 883 l 503 803 b 489 789 503 793 499 789 l 125 789 b 111 803 115 789 111 793 l 111 874 b 125 888 111 883 115 888 m 489 660 b 503 646 499 660 503 656 l 503 575 b 489 561 503 565 499 561 l 125 561 b 111 575 115 561 111 565 l 111 646 b 125 660 111 656 115 660 "},"₀":{"ha":672,"x_min":0,"x_max":0,"o":"m 57 217 b 336 588 57 446 163 588 b 617 217 510 588 617 444 b 542 -51 617 104 592 14 b 336 -151 492 -118 424 -151 b 57 217 163 -151 57 -11 m 471 217 b 336 458 471 372 425 458 b 201 217 249 458 201 372 b 336 -25 201 65 249 -25 b 471 217 424 -25 471 63 "},"₁":{"ha":483,"x_min":0,"x_max":0,"o":"m 64 329 b 47 339 53 322 47 326 l 47 439 b 57 456 47 446 50 451 l 238 568 b 256 574 244 572 251 574 l 358 574 b 372 560 368 574 372 569 l 372 -125 b 358 -139 372 -135 368 -139 l 244 -139 b 231 -125 235 -139 231 -135 l 231 422 "},"₂":{"ha":615,"x_min":0,"x_max":0,"o":"m 286 -11 l 544 -11 b 558 -25 554 -11 558 -15 l 558 -125 b 544 -139 558 -135 554 -139 l 86 -139 b 72 -125 76 -139 72 -135 l 72 -47 b 79 -31 72 -40 75 -35 l 339 233 b 406 363 383 278 406 321 b 306 458 406 419 365 458 b 204 386 250 458 217 435 b 188 374 201 376 196 372 l 76 388 b 64 403 67 389 63 394 b 313 588 85 518 183 588 b 547 372 453 588 547 504 b 447 157 547 297 514 225 "},"₃":{"ha":639,"x_min":0,"x_max":0,"o":"m 389 301 b 581 86 506 286 581 203 b 506 -83 581 18 556 -39 b 317 -150 457 -128 393 -150 b 61 50 179 -150 76 -71 b 72 67 60 60 64 65 l 183 89 b 200 76 193 90 199 86 b 318 -24 207 15 256 -24 b 438 90 386 -24 438 19 b 328 200 438 157 393 196 b 249 201 307 201 281 201 l 244 201 b 229 214 236 201 231 206 l 210 285 b 215 304 208 292 210 299 l 364 450 l 113 450 b 99 464 103 450 99 454 l 99 560 b 113 574 99 569 103 574 l 531 574 b 544 560 540 574 544 569 l 544 465 b 538 449 544 458 542 453 "},"₄":{"ha":682,"x_min":0,"x_max":0,"o":"m 521 165 l 625 165 b 639 151 635 165 639 161 l 639 61 b 625 47 639 51 635 47 l 521 47 l 521 -125 b 507 -139 521 -135 517 -139 l 397 -139 b 383 -125 388 -139 383 -135 l 383 47 l 58 47 b 44 61 49 47 44 51 l 44 144 b 50 163 44 151 46 158 l 333 565 b 350 574 338 571 343 574 l 507 574 b 521 560 517 574 521 569 m 193 165 l 383 165 l 383 438 "},"₅":{"ha":660,"x_min":0,"x_max":0,"o":"m 351 335 b 526 267 422 335 481 313 b 596 96 572 221 596 164 b 518 -81 596 24 569 -35 b 325 -149 467 -126 403 -149 b 69 40 192 -149 90 -72 b 81 57 67 50 71 56 l 190 79 b 206 68 199 81 204 78 b 325 -22 218 13 264 -22 b 451 97 397 -22 451 26 b 325 217 451 168 401 217 b 219 175 281 217 246 203 b 201 168 214 169 208 167 l 92 181 b 79 196 82 182 78 188 l 160 561 b 175 574 161 569 165 574 l 540 574 b 554 560 550 574 554 569 l 554 464 b 540 450 554 454 550 450 l 271 450 l 239 310 b 351 335 269 326 307 335 "},"₆":{"ha":664,"x_min":0,"x_max":0,"o":"m 353 339 b 535 272 426 339 486 317 b 608 100 583 228 608 171 b 529 -79 608 28 582 -32 b 329 -150 478 -126 411 -150 b 135 -79 249 -150 183 -126 b 61 96 86 -33 61 25 b 161 342 61 165 94 247 l 317 565 b 333 574 321 571 326 574 l 456 574 b 464 557 467 574 471 567 l 307 335 b 353 339 322 338 338 339 m 333 -24 b 464 97 407 -24 464 25 b 336 218 464 169 407 218 b 206 97 264 218 206 171 b 333 -24 206 25 261 -24 "},"₇":{"ha":540,"x_min":0,"x_max":0,"o":"m 28 560 b 42 574 28 569 32 574 l 499 574 b 513 560 508 574 513 569 l 513 471 b 508 454 513 467 511 461 l 239 -129 b 224 -139 236 -136 231 -139 l 100 -139 b 89 -122 88 -139 85 -133 l 354 450 l 42 450 b 28 464 32 450 28 454 "},"₈":{"ha":640,"x_min":0,"x_max":0,"o":"m 475 240 b 583 69 543 211 583 146 b 508 -89 583 3 558 -50 b 319 -149 460 -129 396 -149 b 131 -89 243 -149 181 -129 b 57 69 82 -50 57 3 b 164 242 57 149 99 213 b 81 392 114 271 81 331 b 147 532 81 449 103 494 b 321 588 193 569 250 588 b 493 532 390 588 447 569 b 561 392 539 494 561 449 b 475 240 561 326 525 269 m 319 464 b 221 379 263 464 221 429 b 321 294 221 329 265 294 b 421 379 375 294 421 331 b 319 464 421 429 379 464 m 321 175 b 200 76 250 175 200 133 b 233 4 200 47 211 22 b 404 4 279 -33 360 -33 b 439 76 428 22 439 47 b 321 175 439 136 389 175 "},"₉":{"ha":671,"x_min":0,"x_max":0,"o":"m 608 340 b 590 243 608 308 603 276 b 556 165 579 211 568 185 b 508 93 544 146 529 122 l 354 -131 b 338 -139 350 -136 344 -139 l 214 -139 b 206 -122 203 -139 199 -129 l 363 99 b 317 94 347 96 332 94 b 135 161 243 94 183 117 b 63 335 86 207 63 264 b 140 515 63 408 89 468 b 340 588 193 564 260 588 b 535 517 421 588 486 564 b 608 340 583 469 608 411 m 335 217 b 464 338 407 217 464 265 b 336 457 464 411 407 457 b 206 338 263 457 206 410 b 335 217 206 265 264 217 "},"₊":{"ha":711,"x_min":0,"x_max":0,"o":"m 586 307 b 600 293 596 307 600 303 l 600 222 b 586 208 600 213 596 208 l 411 208 l 411 25 b 397 11 411 15 407 11 l 317 11 b 303 25 307 11 303 15 l 303 208 l 125 208 b 111 222 115 208 111 213 l 111 293 b 125 307 111 303 115 307 l 303 307 l 303 492 b 317 506 303 501 307 506 l 397 506 b 411 492 407 506 411 501 l 411 307 "},"₋":{"ha":614,"x_min":0,"x_max":0,"o":"m 489 307 b 503 293 499 307 503 303 l 503 222 b 489 208 503 213 499 208 l 125 208 b 111 222 115 208 111 213 l 111 293 b 125 307 111 303 115 307 "},"₌":{"ha":697,"x_min":0,"x_max":0,"o":"m 531 579 b 544 565 540 579 544 575 l 544 494 b 531 481 544 485 540 481 l 167 481 b 153 494 157 481 153 485 l 153 565 b 167 579 153 575 157 579 m 531 351 b 544 338 540 351 544 347 l 544 267 b 531 253 544 257 540 253 l 167 253 b 153 267 157 253 153 257 l 153 338 b 167 351 153 347 157 351 "},"₪":{"ha":1014,"x_min":0,"x_max":0,"o":"m 114 0 b 100 14 104 0 100 4 l 100 939 b 114 953 100 949 104 953 l 424 953 b 688 668 600 953 688 858 l 688 313 b 674 299 688 303 683 299 l 572 299 b 558 313 563 299 558 303 l 558 672 b 386 833 558 779 501 833 l 229 833 l 229 14 b 215 0 229 4 225 0 m 589 0 b 326 285 414 0 326 94 l 326 640 b 340 654 326 650 331 654 l 442 654 b 456 640 451 654 456 650 l 456 281 b 626 119 456 163 517 119 l 783 119 l 783 939 b 797 953 783 949 788 953 l 899 953 b 913 939 908 953 913 949 l 913 14 b 899 0 913 4 908 0 "},"€":{"ha":860,"x_min":0,"x_max":0,"o":"m 629 768 b 318 610 475 768 372 715 l 626 610 b 639 594 636 610 640 604 l 624 513 b 608 500 622 504 618 500 l 286 500 b 283 446 285 478 283 460 b 286 394 283 433 285 417 l 588 394 b 600 379 597 394 601 389 l 585 296 b 569 283 583 288 579 283 l 317 283 b 628 122 368 176 472 122 b 747 136 671 122 711 126 b 763 124 757 139 763 135 l 763 15 b 750 0 763 7 758 1 b 613 -17 707 -11 661 -17 b 158 283 383 -17 218 96 l 81 283 b 67 297 71 283 67 288 l 67 381 b 81 394 67 390 71 394 l 136 394 b 135 443 135 404 135 421 b 138 500 135 457 136 476 l 81 500 b 67 514 71 500 67 504 l 67 596 b 81 610 67 606 71 610 l 160 610 b 604 908 219 794 383 908 b 751 890 658 908 707 903 b 763 875 758 889 763 883 l 763 767 b 747 754 763 756 757 751 b 629 768 713 764 674 768 "},"₹":{"ha":840,"x_min":0,"x_max":0,"o":"m 749 890 b 763 876 758 890 763 886 l 763 786 b 749 772 763 776 758 772 l 563 772 b 611 667 586 746 601 711 l 749 667 b 763 653 758 667 763 663 l 763 564 b 749 550 763 554 758 550 l 614 550 b 358 332 592 418 507 344 l 576 17 b 567 0 582 10 578 0 l 406 0 b 389 8 399 0 393 3 l 149 354 b 143 372 144 358 143 365 l 143 435 b 157 449 143 444 147 449 l 282 449 b 451 550 381 449 436 482 l 156 550 b 142 564 146 550 142 554 l 142 653 b 156 667 142 663 146 667 l 451 667 b 282 772 438 738 381 772 l 157 772 b 143 786 147 772 143 776 l 143 876 b 157 890 143 886 147 890 "},"№":{"ha":1708,"x_min":0,"x_max":0,"o":"m 1267 315 b 1044 399 1179 315 1104 343 b 956 611 985 454 956 525 b 1044 822 956 697 985 768 b 1267 904 1104 876 1178 904 b 1489 822 1356 904 1429 876 b 1578 611 1549 768 1578 697 b 1489 399 1578 525 1549 454 b 1267 315 1429 343 1356 315 m 143 0 b 129 14 133 0 129 4 l 129 876 b 143 890 129 886 133 890 l 256 890 b 272 882 263 890 268 888 l 713 239 l 713 876 b 726 890 713 886 717 890 l 836 890 b 850 876 846 890 850 886 l 850 14 b 836 0 850 4 846 0 l 724 0 b 707 8 717 0 711 3 l 267 653 l 267 14 b 253 0 267 4 263 0 m 1267 443 b 1442 613 1368 443 1442 518 b 1392 729 1442 658 1425 697 b 1267 778 1360 761 1318 778 b 1142 729 1217 778 1175 761 b 1092 613 1108 697 1092 658 b 1142 493 1092 567 1108 526 b 1267 443 1175 460 1217 443 m 1074 106 b 1060 119 1064 106 1060 110 l 1060 204 b 1074 218 1060 214 1064 218 l 1460 218 b 1474 204 1469 218 1474 214 l 1474 119 b 1460 106 1474 110 1469 106 "},"℗":{"ha":1044,"x_min":0,"x_max":0,"o":"m 994 444 b 860 113 994 311 950 200 b 522 -18 769 25 657 -18 b 185 113 388 -18 275 25 b 50 444 94 200 50 310 b 185 776 50 579 94 689 b 522 908 275 864 388 908 b 860 776 657 908 769 864 b 994 444 950 689 994 579 m 522 79 b 788 182 629 79 718 114 b 892 444 857 250 892 338 b 788 707 892 551 857 639 b 522 811 718 776 629 811 b 257 707 415 811 328 776 b 151 444 186 639 151 551 b 257 182 151 339 186 251 b 522 79 328 114 415 79 m 386 214 b 372 228 376 214 372 218 l 372 649 b 386 663 372 658 376 663 l 581 663 b 740 518 675 663 739 607 b 581 367 744 429 679 367 l 468 367 l 468 228 b 454 214 468 218 464 214 m 468 447 l 565 447 b 642 517 614 447 642 474 b 565 582 642 560 617 582 l 468 582 "},"™":{"ha":1024,"x_min":0,"x_max":0,"o":"m 49 804 b 35 818 39 804 35 808 l 35 876 b 49 890 35 886 39 890 l 361 890 b 375 876 371 890 375 886 l 375 818 b 361 804 375 808 371 804 l 253 804 l 253 493 b 239 479 253 483 249 479 l 172 479 b 158 493 163 479 158 483 l 158 804 m 963 494 b 950 479 965 485 961 479 l 876 479 b 861 492 868 479 863 483 l 800 728 l 719 501 b 703 490 717 494 711 490 l 657 490 b 640 501 649 490 643 494 l 561 725 l 501 492 b 486 479 500 483 496 479 l 411 479 b 399 494 400 479 396 485 l 501 878 b 517 890 503 886 508 890 l 585 890 b 601 879 593 890 599 886 l 681 631 l 761 879 b 778 890 764 886 769 890 l 844 890 b 860 878 853 890 858 886 "},"℮":{"ha":1028,"x_min":0,"x_max":0,"o":"m 936 419 b 921 406 935 410 931 406 l 232 406 l 232 201 b 535 53 289 107 401 53 b 810 179 650 53 754 101 b 826 188 814 185 819 188 l 888 188 b 897 171 900 188 904 182 b 532 -18 822 44 700 -18 b 206 108 394 -18 286 24 b 89 449 126 193 88 307 b 210 785 90 590 131 703 b 526 908 290 867 396 908 b 938 482 772 908 926 750 b 936 419 939 460 938 439 m 514 832 b 240 693 397 831 306 783 l 240 475 l 788 475 l 788 715 b 514 832 721 796 629 835 "},"⅛":{"ha":1336,"x_min":0,"x_max":0,"o":"m 939 1019 b 957 1024 943 1026 950 1028 l 1010 990 b 1014 972 1017 986 1018 979 l 285 -131 b 267 -135 281 -137 274 -139 l 214 -103 b 210 -83 207 -99 206 -92 m 218 285 b 204 299 208 285 204 289 l 204 804 l 46 717 b 29 726 35 710 29 714 l 29 824 b 39 840 29 831 32 836 l 211 947 b 229 953 218 951 225 953 l 329 953 b 343 939 339 953 343 949 l 343 299 b 329 285 343 289 339 285 m 1204 356 b 1304 196 1265 329 1304 268 b 1233 46 1304 133 1281 83 b 1056 -10 1186 8 1126 -10 b 807 196 910 -10 807 69 b 904 357 807 269 844 329 b 829 497 854 389 829 436 b 1056 681 829 603 922 681 b 1218 628 1121 681 1175 663 b 1282 497 1261 593 1282 550 b 1204 356 1282 435 1256 388 m 1054 560 b 967 485 1004 560 967 528 b 1056 408 967 440 1006 408 b 1144 485 1104 408 1144 440 b 1054 560 1144 528 1106 560 m 1054 114 b 1161 203 1117 114 1161 151 b 1056 290 1161 254 1117 290 b 949 203 990 290 949 254 b 1054 114 949 151 993 114 "}}}
